<svg width="50" height="50" viewBox="0 0 50 50" fill="none" xmlns="http://www.w3.org/2000/svg">
<path d="M2.58789 1.02539C2.35352 1.25 2.34375 1.30859 2.34375 2.58789V3.90625H1.80664C1.35742 3.90625 1.2207 3.94531 1.02539 4.15039L0.78125 4.38477V10.9375V17.4902L1.02539 17.7246C1.2207 17.9297 1.35742 17.9688 1.80664 17.9688H2.34375V31.25V44.5312H1.80664C1.35742 44.5312 1.2207 44.5703 1.02539 44.7754C0.78125 45.0098 0.78125 45.0293 0.78125 46.875C0.78125 48.7207 0.78125 48.7402 1.02539 48.9746L1.25977 49.2188H25H48.7402L48.9746 48.9746C49.2188 48.7402 49.2188 48.7207 49.2188 46.875C49.2188 45.0293 49.2188 45.0098 48.9746 44.7754C48.7793 44.5703 48.6426 44.5312 48.1934 44.5312H47.6562V31.25V17.9688H48.1934C48.6426 17.9688 48.7793 17.9297 48.9746 17.7246L49.2188 17.4902V10.9375V4.38477L48.9746 4.15039C48.7793 3.94531 48.6426 3.90625 48.1934 3.90625H47.6562V2.58789C47.6562 1.30859 47.6465 1.25 47.4121 1.02539L47.1777 0.78125H25H2.82227L2.58789 1.02539ZM46.0938 3.125V3.90625H25H3.90625V3.125V2.34375H25H46.0938V3.125ZM47.6562 10.9375V16.4062H25H2.34375V10.9375V5.46875H25H47.6562V10.9375ZM46.0938 18.75V19.5312H25H3.90625V18.75V17.9688H25H46.0938V18.75ZM13.2812 23.4375V25.7812H8.59375H3.90625V23.4375V21.0938H8.59375H13.2812V23.4375ZM24.2188 23.4375V25.7812H19.5312H14.8438V23.4375V21.0938H19.5312H24.2188V23.4375ZM35.1562 23.4375V25.7812H30.4688H25.7812V23.4375V21.0938H30.4688H35.1562V23.4375ZM46.0938 23.4375V25.7812H41.4062H36.7188V23.4375V21.0938H41.4062H46.0938V23.4375ZM46.0938 35.9375V44.5312H45.3125H44.5312V36.9629V29.3848L44.2871 29.1504L44.0527 28.9062H38.2812H32.5098L32.2754 29.1504L32.0312 29.3848V36.9629V44.5312H30.4688H28.9062V36.9629V29.3848L28.6621 29.1504L28.4277 28.9062H17.1875H5.94727L5.71289 29.1504L5.46875 29.3848V36.9629V44.5312H4.6875H3.90625V35.9375V27.3438H25H46.0938V35.9375ZM27.3438 37.5V44.5312H26.5625H25.7812V38.5254V32.5098L25.5371 32.2754L25.3027 32.0312H17.1875H9.07227L8.83789 32.2754L8.59375 32.5098V38.5254V44.5312H7.8125H7.03125V37.5V30.4688H17.1875H27.3438V37.5ZM42.9688 37.5V44.5312H38.2812H33.5938V37.5V30.4688H38.2812H42.9688V37.5ZM16.4062 39.0625V44.5312H13.2812H10.1562V39.0625V33.5938H13.2812H16.4062V39.0625ZM24.2188 39.0625V44.5312H21.0938H17.9688V39.0625V33.5938H21.0938H24.2188V39.0625ZM47.6562 46.875V47.6562H25H2.34375V46.875V46.0938H25H47.6562V46.875Z" fill="#271291"/>
<path d="M11.1816 7.27539L10.9375 7.50977V10.9375V14.3652L11.1816 14.5996C11.416 14.8438 11.4355 14.8438 13.291 14.8438C15.5371 14.8438 15.791 14.7852 16.4551 14.1113C17.3047 13.2617 17.4316 12.1484 16.7773 11.2012C16.5918 10.9375 16.5918 10.9375 16.7773 10.6641C17.4316 9.72656 17.3047 8.61328 16.4551 7.76367C15.791 7.08984 15.5371 7.03125 13.291 7.03125C11.4355 7.03125 11.416 7.03125 11.1816 7.27539ZM15.3809 8.83789C15.5371 8.98438 15.625 9.18945 15.625 9.375C15.625 9.56055 15.5371 9.76562 15.3809 9.91211C15.1562 10.1465 15.0977 10.1562 13.8184 10.1562H12.5V9.375V8.59375H13.8184C15.0977 8.59375 15.1562 8.60352 15.3809 8.83789ZM15.3809 11.9629C15.5371 12.1094 15.625 12.3145 15.625 12.5C15.625 12.6855 15.5371 12.8906 15.3809 13.0371C15.1562 13.2715 15.0977 13.2812 13.8184 13.2812H12.5V12.5V11.7188H13.8184C15.0977 11.7188 15.1562 11.7285 15.3809 11.9629Z" fill="#271291"/>
<path d="M21.1445 7.11914C20.2461 7.35352 19.4551 7.99805 19.0449 8.83789C18.8008 9.31641 18.8008 9.375 18.7715 12.0801L18.7422 14.8438H19.5234H20.3145V13.6719V12.5H21.877H23.4395V13.6719V14.8438H24.2305H25.0117L24.9824 12.0801L24.9531 9.32617L24.6895 8.82812C24.2988 8.0957 24.0059 7.7832 23.3516 7.43164C22.7168 7.09961 21.75 6.95312 21.1445 7.11914ZM22.7363 8.85742C23.2344 9.22852 23.3809 9.53125 23.4199 10.2539L23.459 10.9375H21.8867H20.3145V10.4102C20.3145 9.56055 20.6074 9.01367 21.2422 8.73047C21.6328 8.54492 22.4043 8.61328 22.7363 8.85742Z" fill="#271291"/>
<path d="M26.8066 7.27539L26.5625 7.50977V11.1816V14.8438H27.3438H28.125L28.1445 12.5293L28.1738 10.2148L29.8633 12.4707C30.791 13.7109 31.6211 14.7559 31.6992 14.7852C32.0117 14.9023 32.3438 14.834 32.5684 14.5996L32.8125 14.3652V10.6934V7.03125H32.0312H31.25L31.2305 9.3457L31.2012 11.6602L29.5117 9.4043C28.584 8.16406 27.7539 7.11914 27.6758 7.08984C27.3633 6.97266 27.0312 7.04102 26.8066 7.27539Z" fill="#271291"/>
<path d="M34.375 10.9375V14.8438H35.1562H35.9277L35.957 13.5156L35.9863 12.1875L36.4453 12.5879C36.9434 13.0371 37.3633 13.7793 37.4609 14.4238L37.5293 14.8438H38.3105H39.0918L39.0234 14.3066C38.8965 13.1738 38.1543 11.8652 37.3145 11.2695C37.0996 11.1133 36.9141 10.9668 36.9141 10.9375C36.9141 10.9082 37.0996 10.7617 37.3145 10.6055C38.1543 10.0098 38.8965 8.70117 39.0234 7.56836L39.0918 7.03125H38.3105H37.5293L37.4609 7.44141C37.3633 8.0957 36.9434 8.83789 36.4453 9.28711L35.9863 9.6875L35.957 8.35938L35.9277 7.03125H35.1562H34.375V10.9375Z" fill="#271291"/>
<path d="M35.4004 32.2754L35.1562 32.5098V35.1562V37.8027L35.4004 38.0371L35.6348 38.2812H38.2812H40.9277L41.1621 38.0371L41.4062 37.8027V35.1562V32.5098L41.1621 32.2754L40.9277 32.0312H38.2812H35.6348L35.4004 32.2754ZM39.8438 35.1562V36.7188H38.2812H36.7188V35.1562V33.5938H38.2812H39.8438V35.1562Z" fill="#271291"/>
</svg>
