<svg width="120" height="33" viewBox="0 0 120 33" fill="none" xmlns="http://www.w3.org/2000/svg">
<path d="M35.1172 7.06104H36.7798L41.9838 13.8249L47.0159 7.06104H48.6342V20.5126H46.8275V10.0787L42.15 16.2661H41.7177L36.9017 10.0787V20.5126H35.1172V7.06104Z" fill="#271291"/>
<path d="M56.4818 7.02295H57.895L63.9081 20.5125H62.046L60.5164 17.1089H53.7994L52.2921 20.5125H50.4688L56.4818 7.02295ZM54.4645 15.5756H59.8514L57.1524 9.46427L54.4645 15.5756Z" fill="#271291"/>
<path d="M76.7175 18.3211C75.6813 19.7402 73.6255 20.6862 71.3919 20.6862C67.0636 20.6862 64.3203 17.9677 64.3203 13.7865C64.3203 9.92607 67.0026 6.88672 71.2533 6.88672C73.7199 6.88672 75.5984 7.90344 76.5237 9.11593L75.3653 10.2034C74.8425 9.66419 74.2097 9.24003 73.5075 8.95878C72.8053 8.6776 72.0502 8.54585 71.2922 8.57223C68.0999 8.57223 66.1824 10.7471 66.1824 13.7974C66.1824 16.8476 68.3161 19.0225 71.5081 19.0225C72.299 19.0421 73.0842 18.8906 73.8085 18.5786C74.5329 18.2666 75.1779 17.8018 75.6978 17.2173L76.7175 18.3211Z" fill="#271291"/>
<path d="M90.077 18.3211C89.0408 19.7402 86.985 20.6862 84.7511 20.6862C80.4234 20.6862 77.6797 17.9677 77.6797 13.7865C77.6797 9.92607 80.3619 6.88672 84.6131 6.88672C87.0794 6.88672 88.9636 7.90344 89.8832 9.11593L88.7248 10.2034C88.2021 9.66419 87.5692 9.24003 86.867 8.95878C86.1648 8.6776 85.4097 8.54585 84.6517 8.57223C81.4596 8.57223 79.5418 10.7471 79.5418 13.7974C79.5418 16.8476 81.6755 19.0225 84.8676 19.0225C85.6585 19.0429 86.4444 18.8917 87.1688 18.5796C87.8924 18.2676 88.5381 17.8024 89.0573 17.2173L90.077 18.3211Z" fill="#271291"/>
<path d="M96.6537 7.02295H98.0667L104.058 20.5125H102.196L100.666 17.1089H93.9714L92.4641 20.5125H90.6406L96.6537 7.02295ZM94.6365 15.5756H100.023L97.3187 9.46427L94.6365 15.5756Z" fill="#271291"/>
<path d="M105.938 20.5126V7.06104H111.263C115.846 7.06104 116.888 9.23591 116.888 11.2857C116.888 13.4606 115.437 15.5539 111.246 15.5539H107.722V20.5126H105.938ZM107.722 8.69221V13.939H111.208C113.89 13.939 115.043 12.8516 115.043 11.2694C115.043 9.76873 114.067 8.69221 111.341 8.69221H107.722Z" fill="#271291"/>
<path d="M39.2541 26.303H36.0342V31.4574H35.3359V25.6396H39.9967V31.4574H39.2763L39.2541 26.303Z" fill="#E20613"/>
<path d="M40.9453 25.6396H45.8168V26.303H43.7385V31.4574H43.018V26.303H40.9453V25.6396Z" fill="#E20613"/>
<path d="M50.9228 30.8922C50.4053 31.3374 49.7376 31.5777 49.0495 31.5664C48.6459 31.5865 48.2425 31.5225 47.8658 31.3787C47.4892 31.2349 47.1478 31.0145 46.8641 30.7321C46.5804 30.4497 46.3609 30.1116 46.2198 29.7399C46.0788 29.3683 46.0195 28.9717 46.0458 28.576C46.0183 28.184 46.0752 27.7907 46.2125 27.4215C46.35 27.0524 46.5649 26.7158 46.8433 26.4333C47.1218 26.1509 47.4576 25.929 47.8291 25.782C48.2006 25.635 48.5994 25.5663 48.9996 25.5801C49.6482 25.548 50.2876 25.7406 50.8063 26.1239L50.4738 26.6676C50.0491 26.3674 49.5337 26.2161 49.0107 26.238C48.7061 26.2373 48.4045 26.2982 48.1249 26.4168C47.8454 26.5355 47.5937 26.7095 47.3857 26.9279C47.1777 27.1462 47.0178 27.4043 46.916 27.686C46.8141 27.9678 46.7726 28.267 46.7939 28.5651C46.7717 28.8717 46.8159 29.1795 46.9236 29.468C47.0314 29.7566 47.2003 30.0195 47.4192 30.2394C47.6381 30.4593 47.902 30.6312 48.1935 30.7437C48.4851 30.8562 48.7975 30.9068 49.1105 30.8922C49.6602 30.8952 50.1943 30.7129 50.6235 30.3757L50.9228 30.8922Z" fill="#E20613"/>
<path d="M53.9609 31.4574V25.6396H54.6815V30.2939L58.2837 25.6396H58.9211V31.4574H58.2006V26.8032L54.5983 31.4574H53.9609Z" fill="#E20613"/>
<path d="M64.6745 28.8475H61.4158V31.4574H60.6953V25.6396H61.4158V28.157H64.6745V25.6396H65.3949V31.4574H64.6745V28.8475Z" fill="#E20613"/>
<path d="M66.5396 25.6396H67.3819L69.7262 28.4235L67.2877 31.4574H66.4453L68.9393 28.4235L66.5396 25.6396ZM69.8647 25.6396H70.5853V31.4574H69.8647V25.6396ZM71.5272 28.4126L74.0157 31.4574H73.1848L70.7459 28.4235L73.0904 25.6396H73.927L71.5272 28.4126Z" fill="#E20613"/>
<path d="M75.0781 31.4574V25.6396H75.7932V30.2939L79.3958 25.6396H80.0272V31.4574H79.3071V26.8032L75.7103 31.4574H75.0781Z" fill="#E20613"/>
<path d="M85.7735 28.8475H82.5099V31.4574H81.7891V25.6396H82.5099V28.157H85.7735V25.6396H86.4943V31.4574H85.7735V28.8475Z" fill="#E20613"/>
<path d="M88.2812 31.4574V25.6396H89.0021V30.2939L92.6039 25.6396H93.236V31.4574H92.5152V26.8032L88.9184 31.4574H88.2812Z" fill="#E20613"/>
<path d="M95.0156 31.4574V25.6396H96.5674C98.2628 25.6396 98.7841 26.5422 98.7841 27.4447C98.7841 28.3473 98.0969 29.2771 96.6503 29.2771C96.4122 29.2771 96.0575 29.2771 95.7579 29.2445V31.4574H95.0156ZM95.7357 26.303V28.5485C96.0239 28.5485 96.2899 28.5866 96.6002 28.5866C97.4762 28.5866 97.9968 28.1461 97.9968 27.4176C97.9968 26.689 97.5756 26.2866 96.6338 26.2866C96.4007 26.2866 96.0189 26.2921 95.7472 26.303H95.7357Z" fill="#E20613"/>
<path d="M100.07 31.4574V25.6396H100.791V30.2939L104.393 25.6396H105.031V31.4574H104.31V26.8032L100.735 31.4574H100.07Z" fill="#E20613"/>
<path d="M110.78 28.8475H107.521V31.4574H106.828V25.6396H107.549V28.157H110.808V25.6396H111.528V31.4574H110.808L110.78 28.8475Z" fill="#E20613"/>
<path d="M113.273 25.6396H116.599V26.303H114.011V31.4574H113.29L113.273 25.6396Z" fill="#E20613"/>
<path d="M19.6761 18.5313C21.7569 19.7099 24.417 19.0115 25.6175 16.9714C26.8181 14.9313 26.1046 12.3219 24.0237 11.1433L8.11813 2.13389C6.03732 0.955265 3.37723 1.65366 2.17664 3.6938C0.976052 5.73394 1.68961 8.34329 3.77041 9.52189L19.6761 18.5313Z" fill="url(#paint0_linear_428_6915)"/>
<path d="M3.84854 20.1472C1.76773 21.3258 1.05418 23.9351 2.25476 25.9752C3.45535 28.0154 6.11545 28.7138 8.19624 27.5352L24.0251 18.5692C26.1059 17.3906 26.8194 14.7813 25.6189 12.7412C24.4183 10.701 21.7582 10.0026 19.6774 11.1813L3.84854 20.1472Z" fill="#E20613"/>
<path d="M5.91271 28.2062C8.33685 28.2062 10.302 26.2783 10.302 23.8999C10.302 21.5217 8.33685 19.5938 5.91271 19.5938C3.48859 19.5938 1.52344 21.5217 1.52344 23.8999C1.52344 26.2783 3.48859 28.2062 5.91271 28.2062Z" fill="#271291"/>
<defs>
<linearGradient id="paint0_linear_428_6915" x1="1.59504" y1="10.3327" x2="26.2016" y2="10.3327" gradientUnits="userSpaceOnUse">
<stop stop-color="#E20613"/>
<stop offset="0.14" stop-color="#C0082A"/>
<stop offset="0.44" stop-color="#7F0C56"/>
<stop offset="0.7" stop-color="#4F0F76"/>
<stop offset="0.89" stop-color="#32118A"/>
<stop offset="1" stop-color="#271291"/>
</linearGradient>
</defs>
</svg>
