<svg width="60" height="60" viewBox="0 0 60 60" fill="none" xmlns="http://www.w3.org/2000/svg">
<path d="M2.81348 1.08985C2.23926 1.27735 1.25488 2.28516 1.0791 2.88282C0.879883 3.58594 0.879883 39.5391 1.0791 40.2422C1.2666 40.8867 2.23926 41.8594 2.88379 42.0469C3.24707 42.1523 5.52051 42.1875 11.8018 42.1875H20.2275L20.8603 43.0781C21.5986 44.1094 23.0166 45.5625 24.0361 46.3477C24.915 47.0273 26.6377 48.0586 27.3643 48.3398L27.915 48.5508L26.415 50.0508L24.9033 51.5625H23.2393H21.5635V49.9688C21.5635 49.0547 21.5049 48.1641 21.4228 47.8828C21.2353 47.2383 20.2627 46.2656 19.6182 46.0781C18.9268 45.8789 7.32519 45.8789 6.63379 46.0781C5.98926 46.2656 5.0166 47.2383 4.8291 47.8828C4.62988 48.5625 4.62988 56.4375 4.8291 57.1172C5.0166 57.7617 5.98926 58.7344 6.63379 58.9219C7.32519 59.1211 18.9268 59.1211 19.6182 58.9219C20.2627 58.7344 21.2353 57.7617 21.4228 57.1172C21.5049 56.8359 21.5635 55.9453 21.5635 55.0313V53.4375H23.6377H25.7119L27.833 51.3281L29.9541 49.207L30.833 49.4063C31.9463 49.6641 35.1924 49.6992 36.4463 49.4648C38.1221 49.1719 40.4893 48.293 41.6728 47.5547L42.1533 47.25L43.3603 48.457L44.5674 49.6641L44.3096 49.9805C44.1807 50.1563 44.0635 50.4727 44.0635 50.6719C44.0635 50.9883 44.4736 51.4453 47.6611 54.6211C51.5986 58.5352 51.833 58.7109 53.3682 58.9805C56.6143 59.5312 59.5322 56.6133 58.9814 53.3672C58.7119 51.832 58.5361 51.5977 54.6221 47.6602C51.4463 44.4844 50.9893 44.0625 50.6728 44.0625C50.4736 44.0625 50.1572 44.1797 49.9814 44.3086L49.665 44.5664L48.4814 43.3711L47.2861 42.1875H51.9853C57.4111 42.1875 57.4463 42.1875 58.2783 41.25C58.5596 40.9453 58.8525 40.4766 58.9228 40.2188C59.1221 39.5508 59.1221 3.57422 58.9228 2.90625C58.8525 2.64844 58.5596 2.17969 58.2783 1.875C57.3525 0.843754 60.0947 0.937504 29.9541 0.949223C10.8174 0.960941 3.10645 0.996098 2.81348 1.08985ZM56.8955 3.10547L57.1885 3.38672V21.5625V39.7383L56.8955 40.0195L56.6143 40.3125H52.4307C48.5049 40.3125 48.2588 40.3008 48.3408 40.1016C48.7041 39.293 49.126 37.9336 49.3603 36.9023C49.7002 35.332 49.7353 32.3906 49.4189 30.7969C48.458 25.957 45.2705 21.7148 40.9814 19.5469L40.2783 19.1953L42.6103 16.8633L44.9424 14.5313L44.9775 15.7031L45.0127 16.875H45.9385H46.876V14.3555C46.876 10.9805 47.1455 11.25 43.7705 11.25H41.251V12.1875V13.125H42.4463H43.6533L40.9814 15.7969L38.2978 18.4805L37.4189 18.2695C36.9268 18.1523 36.0244 18 35.4033 17.9297C34.7822 17.8594 34.2549 17.7656 34.208 17.7188C34.1728 17.6719 33.1768 16.0781 31.9932 14.1797C30.8213 12.2813 29.7432 10.6289 29.626 10.5117C29.415 10.3359 29.1221 10.3125 27.3525 10.3125H25.3135V8.71875C25.3135 6.8086 25.1963 6.375 24.5283 5.625C23.6728 4.66407 23.8135 4.6875 16.8994 4.6875C12.5049 4.6875 10.7354 4.72266 10.3838 4.82813C9.73926 5.01563 8.7666 5.98829 8.5791 6.63282C8.37988 7.3125 8.37988 15.1875 8.5791 15.8672C8.7666 16.5117 9.73926 17.4844 10.3838 17.6719C10.7354 17.7773 12.5049 17.8125 16.8994 17.8125C23.8135 17.8125 23.6728 17.8359 24.5283 16.875C25.1963 16.125 25.3135 15.6914 25.3135 13.7813V12.1875H26.9307H28.5596L30.3291 15.0234C31.7236 17.2617 32.0635 17.8828 31.8994 17.9063C27.8564 18.6094 25.1377 19.9219 22.6064 22.4063L21.6807 23.3203L21.1885 22.7695C20.2041 21.668 20.0635 21.5625 19.7236 21.5625C19.5478 21.5625 19.3252 21.6094 19.2549 21.6563C19.1728 21.7148 16.7588 24.3047 13.8877 27.4336L8.67285 33.1055L9.35254 33.7148C9.71582 34.0547 10.0439 34.3242 10.0791 34.3242C10.1143 34.3242 12.2705 31.9922 14.8838 29.1328L19.6299 23.9297L20.0869 24.375L20.5439 24.8203L20.1221 25.5C19.126 27.1641 18.458 28.8984 18.0947 30.7852C17.8721 31.9102 17.8018 34.5703 17.9658 35.8242L18.0596 36.5625H12.3057H6.56348V23.9063V11.25H5.62598H4.68848V24.5391C4.68848 37.4414 4.7002 37.8281 4.91113 38.0977L5.13379 38.3789L11.8369 38.4375L18.54 38.4961L18.8096 39.1992C18.9502 39.5859 19.1143 39.9961 19.1611 40.1016C19.2432 40.3008 18.8213 40.3125 11.3213 40.3125H3.3877L3.10645 40.0195L2.81348 39.7383V21.5625V3.38672L3.10645 3.10547L3.3877 2.8125H30.001H56.6143L56.8955 3.10547ZM23.1455 6.85547L23.4385 7.13672V11.25V15.3633L23.1455 15.6445L22.8643 15.9375H16.876H10.8877L10.6064 15.6445L10.3135 15.3633V11.25V7.13672L10.6064 6.85547L10.8877 6.5625H16.876H22.8643L23.1455 6.85547ZM36.7978 20.0273C41.6494 21.1289 45.5869 24.7031 47.0986 29.3789C47.6143 30.9961 47.7549 31.8984 47.7549 33.75C47.7549 34.7227 47.6846 35.8008 47.5908 36.2695C46.4541 41.9883 42.3174 46.207 36.54 47.543C35.3564 47.8125 32.1689 47.8125 30.9619 47.543C25.2314 46.2422 21.0361 41.9648 19.9111 36.2695C19.665 35.0625 19.7002 32.1797 19.9697 30.9375C20.8721 26.7539 23.5557 23.2031 27.2705 21.3047C28.8643 20.4844 30.2002 20.0625 32.1689 19.7578C32.9658 19.6406 35.8252 19.8047 36.7978 20.0273ZM47.2861 44.8828L48.3408 45.9375L47.1338 47.1445L45.9385 48.3398L44.8603 47.2617L43.7939 46.1953L44.9541 45.0117C45.5869 44.3672 46.1377 43.8398 46.1728 43.8281C46.208 43.8281 46.7119 44.3086 47.2861 44.8828ZM53.6963 49.418C56.9424 52.6758 57.1768 52.9922 57.1885 54.0938C57.1885 55.8633 55.8643 57.1875 54.0947 57.1875C52.9814 57.1875 52.5947 56.8945 49.3369 53.625L46.3486 50.625L48.458 48.5156C49.6182 47.3555 50.5908 46.4063 50.626 46.4063C50.6611 46.4063 52.0439 47.7656 53.6963 49.418ZM19.3955 48.1055L19.6885 48.3867V52.5V56.6133L19.3955 56.8945L19.1143 57.1875H13.126H7.13769L6.85644 56.8945L6.56348 56.6133V52.5V48.3867L6.85644 48.1055L7.13769 47.8125H13.126H19.1143L19.3955 48.1055Z" fill="#E20613"/>
<path d="M12.1875 9.375V10.3125H16.875H21.5625V9.375V8.4375H16.875H12.1875V9.375Z" fill="#E20613"/>
<path d="M12.1875 13.125V14.0625H16.875H21.5625V13.125V12.1875H16.875H12.1875V13.125Z" fill="#E20613"/>
<path d="M31.736 21.7382C27.4001 22.4648 23.6735 25.6054 22.2556 29.7421C21.3767 32.2734 21.3649 35.1328 22.2087 37.6054C23.5915 41.6718 27.0602 44.7656 31.2321 45.6562C32.4509 45.914 34.1384 45.9843 35.322 45.832C40.7243 45.1054 45.0017 40.8632 45.8102 35.4257C46.2556 32.414 45.3884 28.9687 43.5602 26.5312C42.9274 25.6992 41.4157 24.2343 40.6423 23.6953C38.1345 21.9726 34.7595 21.2343 31.736 21.7382ZM30.2946 26.496L27.2477 29.5429L26.404 28.6289C25.9352 28.1249 25.5485 27.6679 25.5485 27.621C25.5485 27.3984 26.4509 26.4374 27.2829 25.7695C28.197 25.0312 29.5095 24.3164 30.5642 23.9648C31.1735 23.7656 32.6384 23.4726 33.1071 23.4492C33.2595 23.4374 32.3102 24.4687 30.2946 26.496ZM37.4665 24.1406C39.4235 24.8906 41.3688 26.5078 42.4704 28.2773C45.0251 32.3906 44.4392 37.6054 41.0173 41.0156C37.2907 44.7539 31.5017 45.0703 27.3415 41.789C26.404 41.039 25.2556 39.7148 24.8337 38.8828L24.611 38.4374H30.1188H35.6267V37.4999V36.5624H29.7204H23.8024L23.6501 35.8828C23.4274 34.8984 23.4626 32.3437 23.7087 31.4062C23.9665 30.457 24.3767 29.414 24.4938 29.414C24.5524 29.414 25.0563 29.9414 25.6306 30.5859C26.6618 31.7578 26.9548 31.957 27.4587 31.8281C27.5993 31.7929 29.5329 29.9414 31.7595 27.7148C36.3767 23.0859 35.7556 23.4726 37.4665 24.1406Z" fill="#E20613"/>
<path d="M8.4375 50.625V51.5625H13.125H17.8125V50.625V49.6875H13.125H8.4375V50.625Z" fill="#E20613"/>
<path d="M8.4375 54.375V55.3125H13.125H17.8125V54.375V53.4375H13.125H8.4375V54.375Z" fill="#E20613"/>
</svg>
