<svg width="60" height="60" viewBox="0 0 60 60" fill="none" xmlns="http://www.w3.org/2000/svg">
<path d="M19.981 1.23047C19.688 1.51172 19.688 1.53516 19.688 3.75C19.688 5.96484 19.688 5.98828 19.981 6.26953C20.2153 6.51562 20.3794 6.5625 20.9185 6.5625H21.563V13.5938V20.625H18.5161H15.4692L15.7974 20.1797C15.9731 19.9219 16.2192 19.5 16.3364 19.2422L16.5591 18.75H17.3794C18.5513 18.75 19.0669 18.5625 19.7583 17.8711C20.1802 17.4492 20.3911 17.1211 20.4966 16.7227C20.7427 15.8438 20.52 14.7891 19.9224 14.1211C19.7583 13.9336 19.6997 13.5938 19.6528 12.2461C19.606 10.9336 19.5356 10.4297 19.3013 9.70312C18.856 8.32031 18.2466 7.32422 17.1802 6.25781C16.1255 5.20312 15.1294 4.58203 13.7349 4.125C12.9497 3.86719 12.6333 3.82031 11.2505 3.82031C9.86768 3.82031 9.55127 3.86719 8.76612 4.125C7.37159 4.58203 6.37549 5.20312 5.32081 6.25781C4.2544 7.32422 3.64502 8.32031 3.19971 9.70312C2.96534 10.4297 2.89502 10.9336 2.84815 12.2461C2.78956 13.6172 2.7544 13.9219 2.5669 14.1211C2.22706 14.4961 1.87549 15.375 1.87549 15.8672C1.87549 16.6758 2.12159 17.25 2.7544 17.8711C3.43409 18.5625 3.94971 18.75 5.12159 18.75H5.9419L6.16456 19.2422C6.28174 19.5 6.52784 19.9219 6.6919 20.1562L7.0083 20.6016L5.74268 20.6484C4.55909 20.6953 4.39502 20.7305 3.59815 21.1289C2.54346 21.6445 1.87549 22.3359 1.37159 23.4141L0.996586 24.1992L0.96143 30.9961C0.937993 36.1406 0.96143 37.9219 1.0669 38.3203C1.17237 38.6836 1.39502 39.0234 1.80518 39.4336C2.47315 40.1016 3.01221 40.3125 4.03174 40.3125H4.68799V46.9805V53.6484L4.33643 53.7891C3.84424 53.9883 3.11768 54.8438 2.95362 55.4062C2.87159 55.6641 2.81299 56.4609 2.81299 57.1758C2.81299 58.4062 2.82471 58.5 3.10596 58.7695L3.38721 59.0625H11.2505H19.1138L19.395 58.7695C19.6763 58.5 19.688 58.4062 19.688 57.1758C19.688 56.4609 19.6294 55.6641 19.5474 55.4062C19.3833 54.8438 18.6567 53.9883 18.1646 53.7891L17.813 53.6484V40.418V27.1875H19.688H21.563V28.125V29.0625H20.9185C20.3794 29.0625 20.2153 29.1094 19.981 29.3555C19.688 29.6367 19.688 29.6602 19.688 31.875C19.688 34.0898 19.688 34.1133 19.981 34.3945L20.2622 34.6875H29.356H38.438V36.1992V37.7109L38.0864 37.8516C37.2896 38.1797 36.563 39.3633 36.563 40.3359C36.563 41.2852 37.2544 42.3984 38.1216 42.8555C38.6021 43.1016 39.5747 43.1719 40.1841 43.0078C41.2388 42.7266 42.188 41.4609 42.188 40.3359C42.188 39.3633 41.4614 38.1797 40.6646 37.8516L40.313 37.7109V36.1992V34.6875H49.395H58.4888L58.77 34.3945C59.063 34.1133 59.063 34.0898 59.063 31.875C59.063 29.6602 59.063 29.6367 58.77 29.3555C58.5356 29.1094 58.3716 29.0625 57.8325 29.0625H57.188V17.8125V6.5625H57.8325C58.3716 6.5625 58.5356 6.51562 58.77 6.26953C59.063 5.98828 59.063 5.96484 59.063 3.75C59.063 1.53516 59.063 1.51172 58.77 1.23047L58.4888 0.9375H39.3755H20.2622L19.981 1.23047ZM57.188 3.75V4.6875H39.3755H21.563V3.75V2.8125H39.3755H57.188V3.75ZM12.4927 5.75391C12.8677 5.82422 13.6177 6.08203 14.145 6.33984C16.4067 7.42969 17.813 9.73828 17.813 12.3867V13.125H17.3442C17.0044 13.125 16.8755 13.0781 16.8755 12.9492C16.8755 12.6562 16.3364 12.1875 16.0083 12.1875C15.8442 12.1875 15.3169 12.375 14.8481 12.6094L13.981 13.043L12.7036 12.6094C12.0005 12.375 11.3091 12.1875 11.1685 12.1875C11.0161 12.1875 10.6997 12.375 10.4419 12.5977L9.98487 13.0078L8.22705 12.5742C6.2583 12.0938 5.95362 12.1172 5.70752 12.7734C5.59034 13.0781 5.52002 13.125 5.13331 13.125H4.68799V12.3867C4.68799 9.73828 6.05909 7.47656 8.35596 6.33984C9.73877 5.66016 10.9927 5.48438 12.4927 5.75391ZM55.313 17.8125V29.0625H39.3755H23.438V28.125V27.1875H23.8833C25.6646 27.1875 27.188 25.6758 27.188 23.9062C27.188 22.1367 25.6646 20.625 23.8833 20.625H23.438V13.5938V6.5625H39.3755H55.313V17.8125ZM14.0864 15C14.2153 15 14.4731 14.918 14.6724 14.8125L15.0239 14.625L14.9771 16.2539C14.9302 17.8242 14.9185 17.8945 14.5317 18.6094C14.0981 19.4297 13.7231 19.7812 12.8442 20.25C12.3403 20.5078 12.0942 20.5547 11.2505 20.5547C10.3364 20.5664 10.1958 20.5312 9.51612 20.168C8.70752 19.7344 8.22705 19.2305 7.82862 18.3984C7.60596 17.9414 7.5708 17.625 7.52393 16.0898L7.47705 14.3203L8.80127 14.6602C9.53955 14.8477 10.2544 15 10.4067 15C10.5474 15 10.8638 14.8242 11.0981 14.6016L11.5317 14.2148L12.7036 14.6016C13.3481 14.8242 13.9692 15 14.0864 15ZM5.62549 15.9375V16.875H4.98096C4.19581 16.875 3.75049 16.5352 3.75049 15.9375C3.75049 15.3398 4.19581 15 4.98096 15H5.62549V15.9375ZM18.4575 15.293C18.645 15.4688 18.7505 15.7148 18.7505 15.9375C18.7505 16.5352 18.3052 16.875 17.52 16.875H16.8755V15.9375V15H17.52C18.0591 15 18.2231 15.0469 18.4575 15.293ZM7.55909 23.0508C7.73487 24.2578 8.40284 25.1953 9.51612 25.793C10.1958 26.1562 10.3364 26.1914 11.2505 26.1914C12.1646 26.1914 12.3052 26.1562 12.9849 25.793C13.395 25.5703 13.8521 25.2305 14.0161 25.043C14.4614 24.5156 14.8481 23.6719 14.9419 23.0508L15.0239 22.5H17.356H19.688V23.9062V25.3125H18.106C16.5708 25.3125 16.5005 25.3242 16.231 25.6055L15.938 25.8867V30.293V34.6875H11.2505H6.56299V30.4688V26.25H5.62549H4.68799V30.4688V34.6875H3.75049H2.81299V29.8125C2.81299 26.3203 2.84815 24.7969 2.95362 24.4453C3.1294 23.8477 4.11377 22.8398 4.68799 22.6523C4.91065 22.582 5.63721 22.5234 6.28174 22.5117L7.47705 22.5L7.55909 23.0508ZM13.0786 22.875C12.9966 23.332 12.7153 23.7422 12.2583 24.0703C11.8013 24.4102 10.6997 24.4102 10.2427 24.0703C9.78565 23.7422 9.5044 23.332 9.42237 22.875L9.35205 22.5H11.2505H13.1606L13.0786 22.875ZM24.8677 22.9453C25.1958 23.2734 25.2544 23.4023 25.2544 23.9062C25.2544 24.4102 25.1958 24.5391 24.8677 24.8672L24.4927 25.2539L23.0278 25.2891L21.563 25.3359V23.9062V22.4766L23.0278 22.5234L24.4927 22.5586L24.8677 22.9453ZM57.188 31.875V32.8125H39.3755H21.563V31.875V30.9375H39.3755H57.188V31.875ZM4.68799 37.5V38.4375H4.04346C3.1294 38.4375 2.81299 38.1211 2.81299 37.207V36.5625H3.75049H4.68799V37.5ZM15.938 45V53.4375H14.063H12.188V46.875V40.3125H11.2505H10.313V46.875V53.4375H8.43799H6.56299V45V36.5625H11.2505H15.938V45ZM40.02 39.668C40.606 40.2422 40.1958 41.25 39.3755 41.25C38.895 41.25 38.438 40.793 38.438 40.3125C38.438 39.832 38.895 39.375 39.3755 39.375C39.5981 39.375 39.8442 39.4805 40.02 39.668ZM10.313 56.25V57.1875H7.50049H4.68799V56.543C4.68799 56.0039 4.73487 55.8398 4.98096 55.6055C5.26221 55.3125 5.26221 55.3125 7.79346 55.3125H10.313V56.25ZM17.52 55.6055C17.7661 55.8398 17.813 56.0039 17.813 56.543V57.1875H15.0005H12.188V56.25V55.3125H14.7075C17.2388 55.3125 17.2388 55.3125 17.52 55.6055Z" fill="#E20613"/>
<path d="M47.7773 8.41417C47.4727 8.71886 47.2266 9.02355 47.2266 9.08214C47.2266 9.14074 47.4727 9.44542 47.7773 9.75011L48.3281 10.3126H44.1445H39.9492L39.668 10.6056C39.375 10.8868 39.375 10.9103 39.375 13.0431V15.211L39.0234 15.3517C38.2266 15.6798 37.5 16.8634 37.5 17.8126C37.5 18.7618 38.2266 19.9454 39.0234 20.2735L39.375 20.4142V21.9259V23.4376H36.9258C34.5469 23.4376 34.4648 23.4259 34.3945 23.1915C34.2656 22.8048 33.6328 22.1603 33.1172 21.879C32.4492 21.5275 31.3008 21.5275 30.6328 21.8907C30.0117 22.2071 29.3789 22.9454 29.2031 23.5431C28.875 24.5978 29.1211 25.4884 29.9414 26.3087C30.8438 27.2228 31.8867 27.422 32.9883 26.9064C33.5859 26.6368 34.2539 25.9923 34.3945 25.5587C34.4648 25.3126 34.5352 25.3126 37.5703 25.3126H40.6758L40.957 25.0196C41.25 24.7384 41.25 24.715 41.25 22.5821V20.4142L41.6016 20.2735C42.3984 19.9454 43.125 18.7618 43.125 17.8126C43.125 16.8634 42.3984 15.6798 41.6016 15.3517L41.25 15.211V13.6993V12.1876H44.7891H48.3281L47.7539 12.7735L47.168 13.3595L47.8477 14.0392L48.5156 14.7071L50.0391 13.172C52.043 11.1564 52.043 11.3439 50.0742 9.35167C49.2539 8.53136 48.5273 7.85167 48.457 7.85167C48.3867 7.85167 48.082 8.10949 47.7773 8.41417ZM40.957 17.1681C41.1445 17.3439 41.25 17.59 41.25 17.8126C41.25 18.0353 41.1445 18.2814 40.957 18.4571C40.7812 18.6446 40.5352 18.7501 40.3125 18.7501C40.0898 18.7501 39.8438 18.6446 39.668 18.4571C39.4805 18.2814 39.375 18.0353 39.375 17.8126C39.375 17.59 39.4805 17.3439 39.668 17.1681C39.8438 16.9806 40.0898 16.8751 40.3125 16.8751C40.5352 16.8751 40.7812 16.9806 40.957 17.1681ZM32.5195 23.7306C32.707 23.9064 32.8125 24.1525 32.8125 24.3751C32.8125 24.5978 32.707 24.8439 32.5195 25.0196C32.3438 25.2071 32.0977 25.3126 31.875 25.3126C31.6523 25.3126 31.4062 25.2071 31.2305 25.0196C31.043 24.8439 30.9375 24.5978 30.9375 24.3751C30.9375 24.1525 31.043 23.9064 31.2305 23.7306C31.4062 23.5431 31.6523 23.4376 31.875 23.4376C32.0977 23.4376 32.3438 23.5431 32.5195 23.7306Z" fill="#E20613"/>
<path d="M29.9648 10.2891C29.6602 10.5938 29.4141 10.8984 29.4141 10.957C29.4141 11.0156 29.6602 11.3203 29.9648 11.625L30.5156 12.1875L29.9648 12.75C29.6602 13.0547 29.4141 13.3594 29.4258 13.418C29.4375 13.4883 29.7305 13.793 30.0703 14.1094L30.7148 14.6953L31.2891 14.1211L31.875 13.5469L32.4609 14.1211L33.0352 14.6953L33.6797 14.1094C34.0195 13.793 34.3125 13.4883 34.3242 13.418C34.3359 13.3594 34.0898 13.0547 33.7852 12.75L33.2344 12.1875L33.7852 11.625C34.0898 11.3203 34.3359 11.0156 34.3359 10.9453C34.3359 10.8047 33.2578 9.72656 33.1055 9.72656C33.0469 9.72656 32.7422 9.97266 32.4375 10.2773L31.875 10.8281L31.3125 10.2773C31.0078 9.97266 30.7031 9.72656 30.6328 9.72656C30.5742 9.72656 30.2695 9.98438 29.9648 10.2891Z" fill="#E20613"/>
<path d="M46.8398 22.4766C46.5352 22.7812 46.2891 23.0859 46.2891 23.1445C46.2891 23.2031 46.5352 23.5078 46.8398 23.8125L47.3906 24.375L46.8398 24.9375C46.5352 25.2422 46.2891 25.5469 46.3008 25.6055C46.3125 25.6758 46.6055 25.9805 46.9453 26.2969L47.5898 26.8828L48.1641 26.3086L48.75 25.7344L49.3359 26.3086L49.9102 26.8828L50.5547 26.2969C50.8945 25.9805 51.1875 25.6758 51.1992 25.6055C51.2109 25.5469 50.9648 25.2422 50.6602 24.9375L50.1094 24.375L50.6602 23.8125C50.9648 23.5078 51.2109 23.2031 51.2109 23.1328C51.2109 22.9922 50.1328 21.9141 49.9805 21.9141C49.9219 21.9141 49.6172 22.1602 49.3125 22.4648L48.75 23.0156L48.1875 22.4648C47.8828 22.1602 47.5781 21.9141 47.5078 21.9141C47.4492 21.9141 47.1445 22.1719 46.8398 22.4766Z" fill="#E20613"/>
</svg>
