<svg width="60" height="60" viewBox="0 0 60 60" fill="none" xmlns="http://www.w3.org/2000/svg">
<path d="M27.8908 1.11317C24.9377 1.61708 22.0314 3.22255 20.1564 5.39052C15.5744 10.7225 15.8322 18.41 20.7424 23.3202C25.6877 28.2655 33.4103 28.4765 38.7541 23.8241C40.301 22.4765 41.801 20.1796 42.4572 18.1522C44.4377 12.0819 41.7424 5.42567 36.1174 2.48427C33.5393 1.13661 30.5978 0.656143 27.8908 1.11317ZM32.7541 3.16396C34.8752 3.73817 36.3166 4.5702 37.9103 6.15224C39.5041 7.74599 40.3244 9.16395 40.9221 11.3671C41.2971 12.7499 41.2971 15.3046 40.9221 16.7343C40.383 18.8085 39.4221 20.4843 37.9221 21.9843C36.4221 23.4843 34.7463 24.4452 32.6721 24.9843C31.2424 25.3593 28.6877 25.3593 27.3049 24.9843C25.1018 24.3866 23.6838 23.5663 22.09 21.9725C20.4963 20.3671 19.676 18.9374 19.09 16.7577C18.7385 15.4686 18.7033 12.8085 19.0197 11.5546C19.5471 9.45692 20.5197 7.72255 22.0314 6.19911C23.7541 4.4413 25.6408 3.43349 28.0432 2.97646C29.2268 2.7538 31.5353 2.84755 32.7541 3.16396Z" fill="#E20613"/>
<path d="M29.7617 4.76953C29.3516 4.92188 29.082 5.34375 27.875 7.75781L26.5977 10.3125H23.9024H21.1953L20.9141 10.6055C20.5625 10.9453 20.5274 11.4727 20.832 11.8125C20.9375 11.9414 21.9453 12.7617 23.0586 13.6523C24.1602 14.5312 25.0742 15.3164 25.0742 15.3984C25.0742 15.4688 24.7109 16.6406 24.2539 17.9883C23.8086 19.3359 23.4336 20.5664 23.4336 20.7188C23.4336 21.0938 23.9375 21.5625 24.3359 21.5625C24.5586 21.5625 25.4961 21.0117 27.3242 19.7812L29.9961 18.0117L32.668 19.7812C34.4961 21.0117 35.4336 21.5625 35.6563 21.5625C36.0547 21.5625 36.5586 21.0938 36.5586 20.7188C36.5586 20.5664 36.1953 19.3359 35.7383 17.9883C35.293 16.6406 34.918 15.4688 34.918 15.3984C34.918 15.3164 35.832 14.5312 36.9453 13.6523C38.0469 12.7617 39.0547 11.9414 39.1719 11.8125C39.4649 11.4727 39.4297 10.9453 39.0781 10.6055L38.7969 10.3125H36.1016H33.3945L32.0469 7.62891C30.8399 5.21484 30.6641 4.93359 30.3359 4.81641C30.125 4.74609 29.9609 4.6875 29.9492 4.69922C29.9375 4.69922 29.8555 4.73438 29.7617 4.76953ZM31.0508 9.85547C31.6016 10.957 32.1524 11.9297 32.2813 12.0234C32.4453 12.1406 32.9375 12.1875 34.1445 12.1875H35.7734L34.3438 13.3242C33.418 14.0625 32.8906 14.5664 32.8438 14.7539C32.7969 14.9531 32.9492 15.5977 33.3125 16.6758L33.8516 18.293L33.5352 18.0938C33.3594 17.9766 32.5625 17.4492 31.7539 16.9102C30.8867 16.3359 30.1719 15.9375 29.9961 15.9375C29.8203 15.9375 29.1055 16.3359 28.2383 16.9102C27.4297 17.4492 26.6328 17.9766 26.457 18.0938L26.1406 18.293L26.6797 16.6758C27.0547 15.5508 27.1953 14.9531 27.1484 14.7422C27.0899 14.5312 26.6211 14.0742 25.6367 13.3125L24.2188 12.1875H25.8477C27.0547 12.1875 27.5469 12.1406 27.7109 12.0234C27.8399 11.9297 28.3906 10.957 28.9414 9.85547C29.4805 8.75391 29.9609 7.85156 29.9961 7.85156C30.0313 7.85156 30.5117 8.75391 31.0508 9.85547Z" fill="#E20613"/>
<path d="M10.6172 19.957C10.418 20.168 10.3359 20.4141 10.2773 21.0352C10.0664 23.2734 8.27344 25.0664 6.02344 25.2773C5.08594 25.3594 4.6875 25.6523 4.6875 26.25C4.6875 26.8477 5.08594 27.1406 6.02344 27.2227C8.27344 27.4336 10.0664 29.2266 10.2773 31.4648C10.3594 32.4141 10.6523 32.8125 11.25 32.8125C11.8477 32.8125 12.1406 32.4141 12.2227 31.4648C12.4336 29.2266 14.2266 27.4336 16.4766 27.2227C17.4141 27.1406 17.8125 26.8477 17.8125 26.25C17.8125 25.6523 17.4141 25.3594 16.4766 25.2773C14.2266 25.0664 12.4336 23.2734 12.2227 21.0352C12.1406 20.0859 11.8477 19.6875 11.25 19.6875C11.0273 19.6875 10.7813 19.793 10.6172 19.957ZM11.7656 24.7148C12 25.043 12.457 25.5 12.7852 25.7344C13.1016 25.9805 13.3594 26.2148 13.3594 26.25C13.3594 26.2852 13.1016 26.5195 12.7852 26.7656C12.457 27 12 27.457 11.7656 27.7852C11.5195 28.1016 11.2852 28.3594 11.25 28.3594C11.2148 28.3594 10.9805 28.1016 10.7344 27.7852C10.5 27.457 10.043 27 9.71484 26.7656C9.39844 26.5195 9.14063 26.2852 9.14063 26.25C9.14063 26.2148 9.39844 25.9805 9.71484 25.7344C10.043 25.5 10.5 25.043 10.7344 24.7148C10.9805 24.3984 11.2148 24.1406 11.25 24.1406C11.2852 24.1406 11.5195 24.3984 11.7656 24.7148Z" fill="#E20613"/>
<path d="M48.1172 19.957C47.918 20.168 47.8359 20.4141 47.7773 21.0352C47.5664 23.2734 45.7734 25.0664 43.5234 25.2773C42.5859 25.3594 42.1875 25.6523 42.1875 26.25C42.1875 26.8477 42.5859 27.1406 43.5234 27.2227C45.7734 27.4336 47.5664 29.2266 47.7773 31.4648C47.8594 32.4141 48.1523 32.8125 48.75 32.8125C49.3477 32.8125 49.6406 32.4141 49.7227 31.4648C49.9336 29.2266 51.7266 27.4336 53.9766 27.2227C54.9141 27.1406 55.3125 26.8477 55.3125 26.25C55.3125 25.6523 54.9141 25.3594 53.9766 25.2773C51.7266 25.0664 49.9336 23.2734 49.7227 21.0352C49.6406 20.0859 49.3477 19.6875 48.75 19.6875C48.5273 19.6875 48.2813 19.793 48.1172 19.957ZM49.2656 24.7148C49.5 25.043 49.957 25.5 50.2852 25.7344C50.6016 25.9805 50.8594 26.2148 50.8594 26.25C50.8594 26.2852 50.6016 26.5195 50.2852 26.7656C49.957 27 49.5 27.457 49.2656 27.7852C49.0195 28.1016 48.7852 28.3594 48.75 28.3594C48.7148 28.3594 48.4805 28.1016 48.2344 27.7852C48 27.457 47.543 27 47.2148 26.7656C46.8984 26.5195 46.6406 26.2852 46.6406 26.25C46.6406 26.2148 46.8984 25.9805 47.2148 25.7344C47.543 25.5 48 25.043 48.2344 24.7148C48.4805 24.3984 48.7148 24.1406 48.75 24.1406C48.7852 24.1406 49.0195 24.3984 49.2656 24.7148Z" fill="#E20613"/>
<path d="M19.043 29.3555L18.75 29.6367V33.1055V36.5625H11.0742H3.38672L3.10547 36.8555L2.8125 37.1367V44.3555V51.5625H2.16797C1.62891 51.5625 1.46484 51.6094 1.23047 51.8555L0.9375 52.1367V55.3125V58.4883L1.23047 58.7695L1.51172 59.0625H30H58.4883L58.7695 58.7695L59.0625 58.4883V55.3125V52.1367L58.7695 51.8555C58.5352 51.6094 58.3711 51.5625 57.832 51.5625H57.1875V44.3555V37.1367L56.8945 36.8555L56.6133 36.5625H48.9258H41.25V33.1055V29.6367L40.957 29.3555L40.6758 29.0625H30H19.3242L19.043 29.3555ZM39.375 41.25V51.5625H30H20.625V41.25V30.9375H30H39.375V41.25ZM18.75 39.375V40.3125H11.7188H4.6875V39.375V38.4375H11.7188H18.75V39.375ZM55.3125 39.375V40.3125H48.2812H41.25V39.375V38.4375H48.2812H55.3125V39.375ZM18.75 46.875V51.5625H11.7188H4.6875V46.875V42.1875H11.7188H18.75V46.875ZM55.3125 46.875V51.5625H48.2812H41.25V46.875V42.1875H48.2812H55.3125V46.875ZM57.1875 55.3125V57.1875H30H2.8125V55.3125V53.4375H30H57.1875V55.3125Z" fill="#E20613"/>
<path d="M27.1445 35.2734L25.6094 36.7969L26.2773 37.4648L26.957 38.1445L28.2227 36.8789C29.0664 36.0352 29.5703 35.625 29.7461 35.625H30.0039V41.7188V47.8125H30.9414H31.8789V41.0742V34.3242L31.5859 34.043C31.3164 33.7617 31.2344 33.75 29.9922 33.75H28.6797L27.1445 35.2734Z" fill="#E20613"/>
</svg>
