<svg width="60" height="59" viewBox="0 0 60 59" fill="none" xmlns="http://www.w3.org/2000/svg">
<path d="M10.6055 1.23053C10.3242 1.50006 10.3125 1.57038 10.3125 3.10553V4.68756H5.91797H1.51172L1.23047 4.98053L0.9375 5.26178V30.0001V54.7383L1.23047 55.0196L1.51172 55.3126H15.9492H30.3984L31.2188 55.8751C33.3984 57.3751 35.8594 58.3477 38.5312 58.7813C40.125 59.0391 42.7617 59.004 44.3672 58.711C51.6328 57.3985 57.1406 51.9962 58.7344 44.6133C59.0977 42.9024 59.0977 39.504 58.7344 37.7813C58.1953 35.2969 57.0938 32.754 55.6875 30.7618C54.7852 29.5079 52.8984 27.6446 51.5859 26.7188C48.7031 24.6915 45.5508 23.6133 42.0469 23.4727L40.3125 23.4024V14.3321V5.26178L40.0195 4.98053L39.7383 4.68756H35.332H30.9375V3.10553C30.9375 1.57038 30.9258 1.50006 30.6445 1.23053L30.3633 0.937565H20.625H10.8867L10.6055 1.23053ZM29.0625 5.62506V8.43756H20.625H12.1875V5.62506V2.81256H20.625H29.0625V5.62506ZM10.3125 8.1446C10.3125 9.67975 10.3242 9.75006 10.6055 10.0196L10.8867 10.3126H20.625H30.3633L30.6445 10.0196C30.9258 9.75006 30.9375 9.67975 30.9375 8.1446V6.56256H34.6875H38.4375V15.1055V23.6368L37.7695 23.7774C37.3945 23.8477 36.9727 23.9415 36.832 23.9766L36.5625 24.0469V18.4102V12.7618L36.2695 12.4805L35.9883 12.1876H20.625H5.26172L4.98047 12.4805L4.6875 12.7618V30.9376V49.1133L4.98047 49.3946L5.26172 49.6876H15.4336H25.6055L25.9336 50.2735C26.2266 50.8008 27.1758 52.1016 27.9609 53.0508L28.2773 53.4376H15.5391H2.8125V30.0001V6.56256H6.5625H10.3125V8.1446ZM34.6875 19.3594V24.668L33.7969 25.0665C32.6367 25.5938 31.1016 26.5548 30.0352 27.4337L29.1797 28.1251H23.4961H17.8125V29.0626V30.0001H22.6055H27.4102L26.7422 30.9376L26.0742 31.8751H21.9492H17.8125V32.8126V33.7501H21.457C24.3281 33.7501 25.0898 33.7852 25.043 33.8907C24.5508 35.0743 24.3281 35.6602 24.0938 36.4688L23.8125 37.4415L20.8125 37.4766L17.8125 37.5001V38.4376V39.3751H20.6953H23.5898L23.5078 39.7383C23.4727 39.9376 23.4375 40.3594 23.4375 40.6758V41.2501H20.625H17.8125V42.1876V43.1251H20.6602H23.4961L23.7539 44.4376C23.8945 45.1641 24.1641 46.2188 24.3633 46.7813L24.7031 47.8126H15.6328H6.5625V30.9376V14.0626H20.625H34.6875V19.3594ZM43.8047 25.4883C47.7773 26.1329 51.5508 28.4063 53.9766 31.629C54.9023 32.8477 56.1445 35.3204 56.5312 36.7032C58.125 42.3048 56.6836 48.129 52.6641 52.2657C50.8828 54.0938 48.7852 55.4532 46.4531 56.2618C43.1602 57.3985 39.3867 57.4102 36.0938 56.2852C28.0547 53.5313 23.6133 44.9532 25.9688 36.7032C26.3555 35.3204 27.5977 32.8594 28.5234 31.629C30.9258 28.4415 34.6289 26.1915 38.6133 25.5001C39.8789 25.2774 42.457 25.2774 43.8047 25.4883Z" fill="#E20613"/>
<path d="M14.0625 5.625V6.5625H15H15.9375V5.625V4.6875H15H14.0625V5.625Z" fill="#E20613"/>
<path d="M25.3125 5.625V6.5625H26.25H27.1875V5.625V4.6875H26.25H25.3125V5.625Z" fill="#E20613"/>
<path d="M15.3516 17.0508L14.6016 17.8125H11.8008H9.01172L8.73047 18.1055L8.4375 18.3867V21.5625V24.7383L8.73047 25.0195L9.01172 25.3125H12.1875H15.3633L15.6445 25.0195L15.9375 24.7383V21.9492V19.1484L16.6992 18.3984C17.1211 17.9883 17.4609 17.5898 17.4609 17.5195C17.4609 17.3672 16.3828 16.2891 16.2188 16.2891C16.1602 16.2891 15.7617 16.6289 15.3516 17.0508ZM12.1523 20.25C11.8477 20.5547 11.6016 20.8594 11.6133 20.918C11.625 20.9883 11.918 21.293 12.2578 21.6094L12.9023 22.1953L13.4766 21.6211L14.0625 21.0469V22.2422V23.4375H12.1875H10.3125V21.5625V19.6875H11.5078H12.7031L12.1523 20.25Z" fill="#E20613"/>
<path d="M17.8125 19.6875V20.625H25.3125H32.8125V19.6875V18.75H25.3125H17.8125V19.6875Z" fill="#E20613"/>
<path d="M17.8125 23.4375V24.375H23.4375H29.0625V23.4375V22.5H23.4375H17.8125V23.4375Z" fill="#E20613"/>
<path d="M30.9375 23.4375V24.375H31.875H32.8125V23.4375V22.5H31.875H30.9375V23.4375Z" fill="#E20613"/>
<path d="M15.3516 26.4258L14.6016 27.1875H11.8008H9.01172L8.73047 27.4805L8.4375 27.7617V30.9375V34.1133L8.73047 34.3945L9.01172 34.6875H12.1875H15.3633L15.6445 34.3945L15.9375 34.1133V31.3242V28.5234L16.6992 27.7734C17.1211 27.3633 17.4609 26.9648 17.4609 26.8945C17.4609 26.7422 16.3828 25.6641 16.2188 25.6641C16.1602 25.6641 15.7617 26.0039 15.3516 26.4258ZM12.1523 29.625C11.8477 29.9297 11.6016 30.2344 11.6133 30.293C11.625 30.3633 11.918 30.668 12.2578 30.9844L12.9023 31.5703L13.4766 30.9961L14.0625 30.4219V31.6172V32.8125H12.1875H10.3125V30.9375V29.0625H11.5078H12.7031L12.1523 29.625Z" fill="#E20613"/>
<path d="M15.3516 35.8008L14.6016 36.5625H11.8008H9.01172L8.73047 36.8555L8.4375 37.1367V40.3125V43.4883L8.73047 43.7695L9.01172 44.0625H12.1875H15.3633L15.6445 43.7695L15.9375 43.4883V40.6992V37.8984L16.6992 37.1484C17.1211 36.7383 17.4609 36.3398 17.4609 36.2695C17.4609 36.1172 16.3828 35.0391 16.2188 35.0391C16.1602 35.0391 15.7617 35.3789 15.3516 35.8008ZM12.1523 39C11.8477 39.3047 11.6016 39.6094 11.6133 39.668C11.625 39.7383 11.918 40.043 12.2578 40.3594L12.9023 40.9453L13.4766 40.3711L14.0625 39.7969V40.9922V42.1875H12.1875H10.3125V40.3125V38.4375H11.5078H12.7031L12.1523 39Z" fill="#E20613"/>
<path d="M31.7326 31.6056C30.3264 33.0119 29.1428 34.2775 29.1076 34.4181C29.0725 34.5587 29.0725 34.7931 29.1193 34.9455C29.2131 35.2501 33.3146 39.4455 34.0295 39.9728C34.4279 40.2775 34.5803 40.3126 35.3186 40.3126C36.1506 40.3126 36.174 40.3244 36.6193 40.7814L37.0764 41.2501L36.5725 41.7658L36.0803 42.2697L34.9787 42.2111C34.0998 42.1642 33.7365 42.1994 33.092 42.3986C30.2326 43.2775 28.51 46.2423 29.2365 49.0431C29.4709 49.9103 29.7873 50.2736 30.3146 50.2736C30.6662 50.2736 30.8771 50.1212 31.9787 49.0431L33.2443 47.8126H33.9592H34.6857V48.5509V49.2775L33.4553 50.508C32.3537 51.6095 32.2248 51.7736 32.2248 52.1603C32.2248 52.7814 32.5881 53.0509 33.7014 53.2853C37.2404 54.0001 40.5334 51.0587 40.2756 47.3908C40.2053 46.4884 40.217 46.4181 40.4982 46.1603L40.7795 45.8908L44.5061 49.5939C46.8381 51.9259 48.3381 53.3322 48.5373 53.379C48.7014 53.4259 48.9592 53.3908 49.1232 53.3205C49.4748 53.133 52.6623 50.004 53.0959 49.4064C53.2834 49.1603 53.4357 48.8087 53.4357 48.6447C53.4357 48.4103 52.6506 47.5665 49.6623 44.5665L45.8889 40.7814L46.2053 40.4533C46.5217 40.1251 46.5451 40.1251 47.2131 40.2306C48.0686 40.3712 49.4396 40.1134 50.3771 39.6447C52.6389 38.4962 53.8811 35.7892 53.26 33.34C53.1428 32.8947 52.967 32.5431 52.7795 32.3673C52.2287 31.8869 51.9943 31.9923 50.5646 33.3986L49.2639 34.6876H48.5373H47.8107V33.9611V33.2462L49.0412 31.9806C50.1896 30.8087 50.2717 30.6915 50.2717 30.2462C50.2717 29.8947 50.2014 29.7306 49.9787 29.5431C49.3225 29.0275 47.4006 28.9103 46.1467 29.297C43.6037 30.0822 42.0334 32.4142 42.2326 35.1095L42.3029 36.047L41.7756 36.5626L41.2482 37.0783L40.7795 36.6212L40.3107 36.1642V35.2267V34.2775L37.6975 31.6759C35.3186 29.2853 35.0607 29.0626 34.6857 29.0626C34.3225 29.0626 34.0646 29.2853 31.7326 31.6056ZM46.6623 31.6876L45.9357 32.4376V34.1603V35.883L46.2756 36.2228L46.6154 36.5626H48.2443C50.0607 36.5626 50.0373 36.5626 50.9982 35.6486L51.549 35.1095L51.4318 35.5783C51.2209 36.3283 50.9045 36.8322 50.3303 37.3712C49.3459 38.2736 48.174 38.59 46.9553 38.2619C46.5803 38.1681 46.1936 38.0861 46.0998 38.0861C45.9943 38.0861 45.6076 38.379 45.2209 38.7423C44.6232 39.3165 44.4709 39.4103 44.0607 39.422C43.6506 39.4337 43.5217 39.3634 43.0998 38.9415L42.6193 38.4494L43.4631 37.547L44.3186 36.6564L44.2482 36.047C44.0373 34.4181 44.0373 34.2423 44.2248 33.5978C44.3303 33.2345 44.5881 32.7189 44.799 32.4376C45.3732 31.6876 46.4865 30.9962 47.2131 30.9494C47.3068 30.9376 47.049 31.2775 46.6623 31.6876ZM36.5842 33.2462L38.4357 35.0978V35.9181C38.4357 36.4923 38.4943 36.8322 38.6232 37.0314C38.7287 37.1955 39.5842 38.0978 40.5334 39.0587L42.2443 40.7814L41.5178 41.508L40.7795 42.2462L38.8693 40.3361L36.9592 38.4376H36.0217H35.0959L33.2209 36.5626L31.3459 34.6876L32.9865 33.047C33.8889 32.1447 34.6506 31.4064 34.6857 31.4064C34.7209 31.4064 35.5764 32.2384 36.5842 33.2462ZM47.635 45.2345L51.1506 48.7501L49.9436 49.9455L48.7482 51.1525L45.2092 47.6134L41.6584 44.0626L42.8303 42.8908C43.4748 42.2462 44.0256 41.7189 44.0607 41.7189C44.0959 41.7189 45.7014 43.3009 47.635 45.2345ZM39.0217 43.0665C39.3498 43.4064 39.4318 43.5822 39.4318 43.9806C39.4436 44.4259 39.3732 44.5431 38.799 45.1408L38.1662 45.8087L38.26 46.4884C38.5412 48.422 38.2717 49.5001 37.2521 50.4494C36.6662 51.0001 35.8693 51.4337 35.4475 51.4455C35.26 51.4455 35.3068 51.3517 35.6936 50.9415C36.5607 50.0392 36.5607 50.0509 36.5607 48.1876C36.5607 46.5705 36.549 46.5001 36.2678 46.2306C35.9982 45.9494 35.9396 45.9376 34.217 45.9376H32.4357L31.674 46.6642C30.9709 47.3556 30.924 47.379 30.9943 47.0509C31.1467 46.383 31.6506 45.4923 32.1076 45.0705C32.9396 44.3205 33.4436 44.133 34.5686 44.133C35.1193 44.133 35.8107 44.1798 36.1037 44.2267L36.6545 44.3205L37.51 43.4884C37.9904 43.0431 38.4357 42.6564 38.5061 42.6564C38.5646 42.6564 38.799 42.8439 39.0217 43.0665Z" fill="#E20613"/>
</svg>
