<svg width="73" height="40" viewBox="0 0 73 40" fill="none" xmlns="http://www.w3.org/2000/svg">
<path d="M23.6273 0.682594C23.0589 1.43345 21.8004 2.44369 20.7719 2.96246C19.6622 3.53584 18.7149 3.80887 16.4143 4.24573C15.2099 4.46416 14.019 4.7372 13.7619 4.84642C13.0311 5.14676 12.4763 5.70649 12.3139 6.25256C12.138 6.93515 12.138 9.28328 12.3274 9.28328C12.4086 9.28328 12.6793 9.11945 12.9229 8.92833C13.8837 8.19113 14.8039 8.0273 18.0788 7.9727C21.232 7.91809 21.9492 7.80887 22.7883 7.22184C23.316 6.85324 23.7761 6.22526 24.0603 5.43345C24.2904 4.76451 24.4798 0 24.2633 0C24.1957 0 23.9115 0.300342 23.6273 0.682594Z" fill="white"/>
<path d="M8.7963 16.7919H0V38.6349H8.7963V40.0001H15.5627V38.6349H24.359V16.7919H15.5627V9.96594H8.7963V16.7919ZM8.7963 33.8567H4.73647V21.57H8.7963V33.8567ZM19.6225 33.8567H15.5627V21.57H19.6225V33.8567Z" fill="white"/>
<path d="M31.665 19.5236H29.0938V24.9843H31.6514L31.692 25.5577L31.7326 26.1447L32.4499 26.1857L33.1536 26.2266V24.9843H35.8601V19.5236H33.1536V18.4314H31.665V19.5236ZM31.8138 23.4826H30.5824V20.8751L31.1643 20.9161L31.7326 20.957L31.8138 23.4826ZM34.3851 23.4826H33.1536V20.8751L33.7355 20.9161L34.3039 20.957L34.3851 23.4826Z" fill="white"/>
<path d="M37.4311 19.1407C37.3499 19.5776 36.8086 25.3386 36.8086 25.639C36.8086 25.7482 37.0792 25.8028 37.5529 25.8028C38.2837 25.8028 38.2972 25.7892 38.2972 25.4069C38.2972 25.1885 38.3378 24.8199 38.3784 24.5878C38.4596 24.1782 38.4867 24.1646 39.2445 24.1646C40.1106 24.1646 40.1918 24.2465 40.1918 25.284V25.8028H40.9361C41.5451 25.8028 41.6804 25.7619 41.6804 25.5707C41.6804 25.1885 41.1255 19.3455 41.0579 19.0042C41.0037 18.7175 40.9496 18.7038 39.2445 18.7038H37.4988L37.4311 19.1407ZM39.7858 20.5059C39.7858 20.6834 39.8264 21.2294 39.8805 21.7345L39.9617 22.6629H38.5273L38.622 21.8301C38.6626 21.3659 38.7032 20.8062 38.7032 20.6014C38.7032 20.2328 38.7438 20.2055 39.2445 20.2055C39.7181 20.2055 39.7858 20.2465 39.7858 20.5059Z" fill="white"/>
<path d="M43.0352 25.8028H47.6363V21.4342H44.5238V20.2055H47.6363V18.7038H43.0352V25.8028ZM46.1477 24.3011H44.5238V22.9359H46.1477V24.3011Z" fill="white"/>
<path d="M49.2578 25.8028H50.7329L50.8141 23.6868L53.9943 23.6049V18.7038H49.2578V25.8028ZM52.5057 22.1168H50.7464V20.2055H52.5057V22.1168Z" fill="white"/>
<path d="M55.6172 25.8165L57.1329 25.7346L58.0396 23.796C58.5267 22.7312 58.9733 21.8165 59.041 21.7619C59.0951 21.7073 59.1357 22.5946 59.1357 23.7277V25.8028H60.6243V18.7039H59.0545L58.1208 20.7516L57.1735 22.8131L57.0923 18.7039H55.6172V25.8165Z" fill="white"/>
<path d="M62.25 25.8028H63.7386V24.3694C63.7386 22.9632 63.7386 22.9359 64.0499 22.9359C64.3205 22.9359 64.4694 23.1543 65.0378 24.3694L65.7009 25.7892L66.5399 25.8028H67.3924L66.4858 23.9735L65.5791 22.1305L66.4181 20.424L67.2436 18.7038H65.6738L65.0513 20.069C64.4964 21.2704 64.3882 21.4342 64.0769 21.4342H63.7386V18.7038H62.25V25.8028Z" fill="white"/>
<path d="M68.6928 19.1407C68.6116 19.6049 68.0703 25.3386 68.0703 25.6253C68.0703 25.7482 68.3139 25.8028 68.8146 25.8028C69.5454 25.8028 69.5589 25.7892 69.5589 25.4069C69.5589 25.1885 69.5995 24.8199 69.6401 24.5878C69.7213 24.1782 69.7484 24.1646 70.5062 24.1646C71.3723 24.1646 71.4535 24.2465 71.4535 25.284V25.8028H72.1978C72.8068 25.8028 72.9421 25.7619 72.9421 25.5707C72.9421 25.1885 72.3873 19.3455 72.3196 19.0042C72.2655 18.7175 72.2113 18.7038 70.5062 18.7038H68.7605L68.6928 19.1407ZM71.0475 20.5059C71.0475 20.6834 71.0881 21.2294 71.1423 21.7345L71.2234 22.6629H69.789L69.8837 21.8301C69.9243 21.3659 69.9649 20.8062 69.9649 20.6014C69.9649 20.2328 70.0055 20.2055 70.5062 20.2055C70.9799 20.2055 71.0475 20.2465 71.0475 20.5059Z" fill="white"/>
<path d="M30.2576 29.5143C30.217 29.6918 30.0952 30.784 29.9734 31.9444C29.6892 34.8659 29.6757 34.9478 29.3644 34.9478C29.1208 34.9478 29.0938 35.0434 29.0938 35.7669V36.586H30.8395L30.9207 36.1492C31.0019 35.6167 31.5296 31.1935 31.5296 30.9887C31.5296 30.9205 31.7732 30.8522 32.071 30.8522H32.6123V36.586H34.1009V29.214H32.2063C30.3523 29.214 30.3117 29.214 30.2576 29.5143Z" fill="white"/>
<path d="M35.7266 36.5997L37.2693 36.5178L38.2166 34.4017L39.1774 32.2857L39.2586 36.586H40.7337V29.2004L39.2045 29.2823L38.2166 31.4666L37.2152 33.6509V29.214H35.7266V36.5997Z" fill="white"/>
<path d="M42.914 31.6318C42.4944 35.0038 42.508 34.9492 42.2102 34.9492C41.9802 34.9492 41.9531 35.0721 41.9531 36.2461V37.543H43.3064V36.5874H46.013V37.543H47.5016V36.2461C47.5016 35.0447 47.488 34.9492 47.2309 34.9492C46.9738 34.9492 46.9602 34.8536 46.9602 32.0823V29.2154H43.2252L42.914 31.6318ZM45.4716 34.9492H44.7273C43.8477 34.9492 43.8883 35.1403 44.2131 32.6557L44.4432 30.8536H45.4716V34.9492Z" fill="white"/>
<path d="M48.8516 36.586H53.4527V29.214H48.8516V36.586ZM51.9641 34.9478H50.3402V30.8522H51.9641V34.9478Z" fill="white"/>
<path d="M55.0781 36.586H59.8146V33.6509L59.3815 33.2823L58.935 32.9L59.3815 32.5451L59.8146 32.2038V29.214H55.0781V36.586ZM58.326 31.2345C58.326 31.8215 57.8117 32.2447 57.1622 32.1901C56.6344 32.1492 56.6344 32.1492 56.5938 31.4939L56.5532 30.8522H57.4328C58.326 30.8522 58.326 30.8522 58.326 31.2345ZM58.0147 33.8829C58.1907 34.0604 58.326 34.3335 58.326 34.5655C58.326 34.9478 58.326 34.9478 57.4464 34.9478H56.5667V34.3608C56.5667 34.0331 56.6073 33.7191 56.6615 33.6782C56.8644 33.4597 57.7035 33.5962 58.0147 33.8829Z" fill="white"/>
</svg>
