<svg width="100" height="100" viewBox="0 0 100 100" fill="none" xmlns="http://www.w3.org/2000/svg">
<path d="M2.05078 2.05078C1.5625 2.51953 1.5625 2.55859 1.5625 6.25C1.5625 9.94141 1.5625 9.98047 2.05078 10.4492C2.44141 10.8594 2.71484 10.9375 3.61328 10.9375H4.6875V50V89.0625H3.61328C2.71484 89.0625 2.44141 89.1406 2.05078 89.5508C1.5625 90.0195 1.5625 90.0586 1.5625 93.75C1.5625 97.4414 1.5625 97.4805 2.05078 97.9492L2.51953 98.4375H50H97.4805L97.9492 97.9492C98.4375 97.4805 98.4375 97.4414 98.4375 93.75C98.4375 90.0586 98.4375 90.0195 97.9492 89.5508C97.5586 89.1406 97.2852 89.0625 96.3867 89.0625H95.3125V78.6133V68.1445L95.8984 68.457C96.7188 68.8867 97.4023 68.8281 97.9492 68.2617C98.4375 67.793 98.4375 67.7539 98.4375 64.1602C98.4375 61.9922 98.3594 60.3711 98.2422 60.1367C98.1055 59.9023 92.6953 57.0898 84.1797 52.832L70.3125 45.8984V28.418V10.9375H71.3867C72.2852 10.9375 72.5586 10.8594 72.9492 10.4492C73.4375 9.98047 73.4375 9.94141 73.4375 6.25C73.4375 2.55859 73.4375 2.51953 72.9492 2.05078L72.4805 1.5625H37.5H2.51953L2.05078 2.05078ZM70.3125 6.25V7.8125H37.5H4.6875V6.25V4.6875H37.5H70.3125V6.25ZM67.1875 12.5V14.0625H37.5H7.8125V12.5V10.9375H37.5H67.1875V12.5ZM67.1875 26.5625V35.9375H37.5H7.8125V26.5625V17.1875H37.5H67.1875V26.5625ZM20.3125 45.3125V51.5625H14.0625H7.8125V45.3125V39.0625H14.0625H20.3125V45.3125ZM35.9375 45.3125V51.5625H29.6875H23.4375V45.3125V39.0625H29.6875H35.9375V45.3125ZM51.5625 45.3125V51.5625H45.3125H39.0625V45.3125V39.0625H45.3125H51.5625V45.3125ZM67.1875 45.3125V51.5625H60.9375H54.6875V45.3125V39.0625H60.9375H67.1875V45.3125ZM95.3125 63.2812V64.6484L82.8125 58.3984L70.3125 52.1484V50.7812V49.4141L82.8125 55.6641L95.3125 61.9141V63.2812ZM67.1875 64.0625V73.4375H60.1562H53.125V71.875V70.3125H54.1992C55.0977 70.3125 55.3711 70.2344 55.7617 69.8242C56.25 69.3555 56.25 69.3164 56.25 65.625C56.25 61.9336 56.25 61.8945 55.7617 61.4258L55.293 60.9375H37.5H19.707L19.2383 61.4258C18.75 61.8945 18.75 61.9336 18.75 65.625C18.75 69.3164 18.75 69.3555 19.2383 69.8242C19.6289 70.2344 19.9023 70.3125 20.8008 70.3125H21.875V71.875V73.4375H14.8438H7.8125V64.0625V54.6875H37.5H67.1875V64.0625ZM92.1875 77.832V89.0625H81.25H70.3125V72.3633V55.6641L81.25 61.1328L92.1875 66.6016V77.832ZM53.125 65.625V67.1875H37.5H21.875V65.625V64.0625H37.5H53.125V65.625ZM35.9375 79.6875V89.0625H30.4688H25V79.6875V70.3125H30.4688H35.9375V79.6875ZM50 79.6875V89.0625H44.5312H39.0625V79.6875V70.3125H44.5312H50V79.6875ZM21.875 79.6875V82.8125H14.8438H7.8125V79.6875V76.5625H14.8438H21.875V79.6875ZM67.1875 79.6875V82.8125H60.1562H53.125V79.6875V76.5625H60.1562H67.1875V79.6875ZM21.875 87.5V89.0625H14.8438H7.8125V87.5V85.9375H14.8438H21.875V87.5ZM67.1875 87.5V89.0625H60.1562H53.125V87.5V85.9375H60.1562H67.1875V87.5ZM95.3125 93.75V95.3125H50H4.6875V93.75V92.1875H50H95.3125V93.75Z" fill="#ECEDF2"/>
<path d="M18.7534 19.0039C17.7964 19.3164 16.1558 20.9961 15.8628 21.9922C15.3159 23.8281 15.7066 25.293 17.0933 26.6602C18.0894 27.6758 19.0855 28.125 20.2964 28.125C21.1167 28.125 21.8784 28.8672 21.8784 29.6875C21.8784 30.4883 21.1167 31.25 20.3159 31.25C19.6714 31.25 18.7534 30.5078 18.7534 29.9805C18.7534 29.7461 18.4605 29.6875 17.1909 29.6875C15.8824 29.6875 15.6284 29.7461 15.6284 30C15.6284 32.1094 18.0699 34.375 20.3159 34.375C22.7378 34.375 25.0034 32.1094 25.0034 29.6875C25.0034 27.2852 22.7378 25 20.3355 25C19.5152 25 18.7534 24.2578 18.7534 23.4375C18.7534 22.6367 19.5152 21.875 20.3159 21.875C20.9605 21.875 21.8784 22.6172 21.8784 23.1445C21.8784 23.3789 22.1714 23.4375 23.4409 23.4375C25.1988 23.4375 25.1988 23.4375 24.7691 21.9922C24.6128 21.4844 24.1636 20.8203 23.5386 20.2148C22.1714 18.8281 20.5699 18.4375 18.7534 19.0039Z" fill="#ECEDF2"/>
<path d="M26.5625 26.5625V34.375H28.125H29.6875V31.25V28.125H31.25H32.8125V31.25V34.375H34.375H35.9375V26.5625V18.75H34.375H32.8125V21.875V25H31.25H29.6875V21.875V18.75H28.125H26.5625V26.5625Z" fill="#ECEDF2"/>
<path d="M41.1348 19.0625C39.7676 19.4922 38.2246 21.0742 37.8145 22.4609C37.3848 23.9258 37.3848 29.1992 37.8145 30.6641C38.4199 32.7148 40.7246 34.375 42.9707 34.375C44.416 34.375 45.7051 33.8281 46.7988 32.7344C48.2246 31.3086 48.4395 30.4688 48.4395 26.5625C48.4395 22.6562 48.2246 21.8164 46.7988 20.3906C45.2363 18.8477 43.3223 18.3984 41.1348 19.0625ZM44.6113 22.6367L45.2168 23.2422V26.5625V29.8828L44.5723 30.5078C44.0254 31.0547 43.8105 31.1523 42.9707 31.1523C42.1309 31.1523 41.916 31.0547 41.3691 30.5078L40.7246 29.8828V26.582C40.7246 23.3203 40.7246 23.2617 41.2129 22.7539C41.8574 22.0508 42.3262 21.8555 43.2441 21.9531C43.7715 22.0117 44.2012 22.2266 44.6113 22.6367Z" fill="#ECEDF2"/>
<path d="M50.4883 19.2383L50 19.707V27.0508V34.375H51.5625H53.125V32.0312V29.6875H53.8672C56.8359 29.6875 59.375 27.168 59.375 24.2188C59.375 22.7734 58.8281 21.4844 57.7344 20.3906C56.4453 19.1016 55.3711 18.75 52.793 18.75C51.1133 18.75 50.918 18.7891 50.4883 19.2383ZM55.5469 22.6367C56.0547 23.1641 56.1523 23.3984 56.1523 24.2188C56.1523 25.5078 55.3711 26.3672 54.0234 26.5039L53.125 26.6211V24.2188V21.8164L54.0234 21.9336C54.6875 21.9922 55.0977 22.1875 55.5469 22.6367Z" fill="#ECEDF2"/>
<path d="M73.9258 61.4258L73.4375 61.8945V73.4375V84.9805L73.9258 85.4492L74.3945 85.9375H81.25H88.1055L88.5742 85.4492L89.0625 84.9805V76.6602C89.0625 71.2305 88.9844 68.2031 88.8672 67.9492C88.5938 67.4805 75.5859 60.9375 74.9023 60.9375C74.6289 60.9375 74.1797 61.1523 73.9258 61.4258ZM79.6875 74.707V82.8125H78.125H76.5625V73.9258V65.0391L78.125 65.8203L79.6875 66.6016V74.707ZM85.9375 76.2695V82.8125H84.375H82.8125V75.4883V68.1641L84.375 68.9453L85.9375 69.7266V76.2695Z" fill="#ECEDF2"/>
</svg>
