<svg width="100" height="100" viewBox="0 0 100 100" fill="none" xmlns="http://www.w3.org/2000/svg">
<path d="M47.8125 1.75781C46.6211 1.97266 45.0391 2.48047 44.043 2.98828C41.6797 4.16016 20.9375 15.918 20.6641 16.25C20.3711 16.582 20.3125 17.0703 20.3125 19.5703C20.3125 22.4023 20.332 22.5 20.8008 22.9492C21.25 23.418 21.3672 23.4375 23.9258 23.4375H26.5625V31.25V39.0625H14.5508H2.51953L2.05078 39.5508L1.5625 40.0195V68.75V97.4805L2.05078 97.9492L2.51953 98.4375H50H97.4805L97.9492 97.9492L98.4375 97.4805V68.75V40.0195L97.9492 39.5508L97.4805 39.0625H85.4492H73.4375V31.25V23.4375H76.0742C78.6328 23.4375 78.75 23.418 79.1992 22.9492C79.668 22.5 79.6875 22.4023 79.6875 19.5703C79.6875 17.0703 79.6289 16.582 79.3555 16.25C79.0625 15.918 58.9258 4.47266 56.1133 3.06641C53.7891 1.89453 50.1758 1.30859 47.8125 1.75781ZM52.168 4.96094C53.8086 5.3125 54.375 5.60547 66.4648 12.4023L76.543 18.0664L76.5625 19.1797V20.3125H50H23.4375V19.1797L23.457 18.0664L33.7305 12.3047C39.375 9.14062 44.5703 6.25 45.2734 5.89844C47.4805 4.76562 49.7461 4.45312 52.168 4.96094ZM70.3125 46.875V70.3125H67.6758C65.1172 70.3125 65 70.332 64.5508 70.8008L64.0625 71.2695V78.6133V85.9375H62.5H60.9375V73.9258V61.8945L60.4492 61.4258L59.9805 60.9375H50H40.0195L39.5508 61.4258L39.0625 61.8945V73.9258V85.9375H37.5H35.9375V78.6133V71.2695L35.4492 70.8008C35 70.332 34.8828 70.3125 32.3242 70.3125H29.6875V46.875V23.4375H50H70.3125V46.875ZM26.5625 45.3125V48.4375H15.625H4.6875V45.3125V42.1875H15.625H26.5625V45.3125ZM95.3125 45.3125V48.4375H84.375H73.4375V45.3125V42.1875H84.375H95.3125V45.3125ZM26.5625 60.9375V70.3125H15.625H4.6875V60.9375V51.5625H15.625H26.5625V60.9375ZM95.3125 60.9375V70.3125H84.375H73.4375V60.9375V51.5625H84.375H95.3125V60.9375ZM57.8125 75V85.9375H50H42.1875V75V64.0625H50H57.8125V75ZM32.8125 79.6875V85.9375H18.75H4.6875V79.6875V73.4375H18.75H32.8125V79.6875ZM95.3125 79.6875V85.9375H81.25H67.1875V79.6875V73.4375H81.25H95.3125V79.6875ZM95.3125 92.1875V95.3125H50H4.6875V92.1875V89.0625H50H95.3125V92.1875Z" fill="#ECEDF2"/>
<path d="M33.3008 27.0508L32.8125 27.5195V32.8125V38.1055L33.3008 38.5742C33.7695 39.0625 33.8086 39.0625 37.5 39.0625C41.1914 39.0625 41.2305 39.0625 41.6992 38.5742L42.1875 38.1055V32.8125V27.5195L41.6992 27.0508C41.2305 26.5625 41.1914 26.5625 37.5 26.5625C33.8086 26.5625 33.7695 26.5625 33.3008 27.0508ZM39.0625 32.8125V35.9375H37.5H35.9375V32.8125V29.6875H37.5H39.0625V32.8125Z" fill="#ECEDF2"/>
<path d="M45.8008 27.0508L45.3125 27.5195V32.8125V38.1055L45.8008 38.5742C46.2695 39.0625 46.3086 39.0625 50 39.0625C53.6914 39.0625 53.7305 39.0625 54.1992 38.5742L54.6875 38.1055V32.8125V27.5195L54.1992 27.0508C53.7305 26.5625 53.6914 26.5625 50 26.5625C46.3086 26.5625 46.2695 26.5625 45.8008 27.0508ZM51.5625 32.8125V35.9375H50H48.4375V32.8125V29.6875H50H51.5625V32.8125Z" fill="#ECEDF2"/>
<path d="M58.3008 27.0508L57.8125 27.5195V32.8125V38.1055L58.3008 38.5742C58.7695 39.0625 58.8086 39.0625 62.5 39.0625C66.1914 39.0625 66.2305 39.0625 66.6992 38.5742L67.1875 38.1055V32.8125V27.5195L66.6992 27.0508C66.2305 26.5625 66.1914 26.5625 62.5 26.5625C58.8086 26.5625 58.7695 26.5625 58.3008 27.0508ZM64.0625 32.8125V35.9375H62.5H60.9375V32.8125V29.6875H62.5H64.0625V32.8125Z" fill="#ECEDF2"/>
<path d="M33.3008 42.6758L32.8125 43.1445V48.4375V53.7305L33.3008 54.1992C33.7695 54.6875 33.8086 54.6875 37.5 54.6875C41.1914 54.6875 41.2305 54.6875 41.6992 54.1992L42.1875 53.7305V48.4375V43.1445L41.6992 42.6758C41.2305 42.1875 41.1914 42.1875 37.5 42.1875C33.8086 42.1875 33.7695 42.1875 33.3008 42.6758ZM39.0625 48.4375V51.5625H37.5H35.9375V48.4375V45.3125H37.5H39.0625V48.4375Z" fill="#ECEDF2"/>
<path d="M45.8008 42.6758L45.3125 43.1445V48.4375V53.7305L45.8008 54.1992C46.2695 54.6875 46.3086 54.6875 50 54.6875C53.6914 54.6875 53.7305 54.6875 54.1992 54.1992L54.6875 53.7305V48.4375V43.1445L54.1992 42.6758C53.7305 42.1875 53.6914 42.1875 50 42.1875C46.3086 42.1875 46.2695 42.1875 45.8008 42.6758ZM51.5625 48.4375V51.5625H50H48.4375V48.4375V45.3125H50H51.5625V48.4375Z" fill="#ECEDF2"/>
<path d="M58.3008 42.6758L57.8125 43.1445V48.4375V53.7305L58.3008 54.1992C58.7695 54.6875 58.8086 54.6875 62.5 54.6875C66.1914 54.6875 66.2305 54.6875 66.6992 54.1992L67.1875 53.7305V48.4375V43.1445L66.6992 42.6758C66.2305 42.1875 66.1914 42.1875 62.5 42.1875C58.8086 42.1875 58.7695 42.1875 58.3008 42.6758ZM64.0625 48.4375V51.5625H62.5H60.9375V48.4375V45.3125H62.5H64.0625V48.4375Z" fill="#ECEDF2"/>
<path d="M11.4258 55.1758L10.9375 55.6445V60.9375V66.2305L11.4258 66.6992C11.8945 67.1875 11.9336 67.1875 15.625 67.1875C19.3164 67.1875 19.3555 67.1875 19.8242 66.6992L20.3125 66.2305V60.9375V55.6445L19.8242 55.1758C19.3555 54.6875 19.3164 54.6875 15.625 54.6875C11.9336 54.6875 11.8945 54.6875 11.4258 55.1758ZM17.1875 60.9375V64.0625H15.625H14.0625V60.9375V57.8125H15.625H17.1875V60.9375Z" fill="#ECEDF2"/>
<path d="M80.1758 55.1758L79.6875 55.6445V60.9375V66.2305L80.1758 66.6992C80.6445 67.1875 80.6836 67.1875 84.375 67.1875C88.0664 67.1875 88.1055 67.1875 88.5742 66.6992L89.0625 66.2305V60.9375V55.6445L88.5742 55.1758C88.1055 54.6875 88.0664 54.6875 84.375 54.6875C80.6836 54.6875 80.6445 54.6875 80.1758 55.1758ZM85.9375 60.9375V64.0625H84.375H82.8125V60.9375V57.8125H84.375H85.9375V60.9375Z" fill="#ECEDF2"/>
</svg>
