<svg width="100" height="100" viewBox="0 0 100 100" fill="none" xmlns="http://www.w3.org/2000/svg">
<path d="M23.043 1.875C21.7539 2.34375 20.6211 3.20312 19.9766 4.17969C19.5859 4.78516 19.0781 5.19531 18.2188 5.64453C15.1133 7.26562 13.4141 11.0938 14.3125 14.4531C14.6055 15.5078 14.6055 15.5078 14.0586 16.2109C12.8867 17.6953 12.5938 18.5352 12.5938 20.3125C12.5938 21.6797 12.6914 22.1484 13.082 22.9492C13.6875 24.1992 14.8594 25.3711 16.1094 25.9766C17.4961 26.6602 19.957 26.6602 21.3828 25.9766C23.3945 25 24.7227 23.0664 24.9375 20.8203C25.0352 19.6094 25.0547 19.5898 25.8945 19.1406C27.0469 18.5352 28.2188 17.2266 28.9219 15.7617C29.2344 15.0977 29.4883 14.4531 29.4883 14.3359C29.4883 14.2188 29.918 14.0625 30.4258 13.9844C32.5938 13.7109 34.8008 11.9141 35.4648 9.90234C36.207 7.65625 35.7383 5.35156 34.1562 3.63281C32.7891 2.12891 31.6172 1.66016 29.4883 1.71875C26.8516 1.79688 26.7344 1.79688 25.2891 1.67969C24.2734 1.58203 23.6875 1.64062 23.043 1.875ZM26.4219 5.01953C27.3008 5.33203 27.3984 5.33203 28.3359 5C29.9766 4.39453 31.3047 4.78516 32.3008 6.13281C32.8672 6.89453 32.8672 8.73047 32.3008 9.49219C31.4414 10.6445 30.9727 10.8398 29.1367 10.8008C27.6523 10.7617 27.3984 10.8008 27.0078 11.1719C26.6953 11.4648 26.5586 11.8164 26.5586 12.3633C26.5586 13.7305 26.1484 14.6875 25.0938 15.7422C24.4102 16.4258 23.8438 16.7969 23.1992 16.9727C22.0078 17.3047 21.5781 17.793 21.6562 18.7109C21.8711 21.4648 21.7148 21.9727 20.4258 22.9297C19.6641 23.4961 17.8281 23.4961 17.0664 22.9297C16.207 22.3047 15.7773 21.6016 15.6797 20.6641C15.543 19.4531 16.0312 18.4766 17.2227 17.6367C18.4531 16.7578 18.5703 16.2695 17.8672 14.8828C16.7734 12.7148 17.0273 10.8789 18.6289 9.27734C19.293 8.61328 19.957 8.18359 20.6602 7.94922C21.5586 7.63672 21.7344 7.48047 22.1641 6.64062C23.082 4.84375 24.4492 4.31641 26.4219 5.01953Z" fill="#ECEDF2"/>
<path d="M54.293 1.875C53.0039 2.34375 51.8711 3.20312 51.2266 4.17969C50.8359 4.78516 50.3281 5.19531 49.4688 5.64453C46.3633 7.26562 44.6641 11.0938 45.5625 14.4531C45.8555 15.5078 45.8555 15.5078 45.3086 16.2109C44.1367 17.6953 43.8438 18.5352 43.8438 20.3125C43.8438 21.6797 43.9414 22.1484 44.332 22.9492C44.9375 24.1992 46.1094 25.3711 47.3594 25.9766C48.7461 26.6602 51.207 26.6602 52.6328 25.9766C54.6445 25 55.9727 23.0664 56.1875 20.8203C56.2852 19.6094 56.3047 19.5898 57.1445 19.1406C58.2969 18.5352 59.4688 17.2266 60.1719 15.7617C60.4844 15.0977 60.7383 14.4531 60.7383 14.3359C60.7383 14.2188 61.168 14.0625 61.6758 13.9844C63.8438 13.7109 66.0508 11.9141 66.7148 9.90234C67.457 7.65625 66.9883 5.35156 65.4062 3.63281C64.0391 2.12891 62.8672 1.66016 60.7383 1.71875C58.1016 1.79688 57.9844 1.79688 56.5391 1.67969C55.5234 1.58203 54.9375 1.64062 54.293 1.875ZM57.6719 5.01953C58.5508 5.33203 58.6484 5.33203 59.5859 5C61.2266 4.39453 62.5547 4.78516 63.5508 6.13281C64.1172 6.89453 64.1172 8.73047 63.5508 9.49219C62.6914 10.6445 62.2227 10.8398 60.3867 10.8008C58.9023 10.7617 58.6484 10.8008 58.2578 11.1719C57.9453 11.4648 57.8086 11.8164 57.8086 12.3633C57.8086 13.7305 57.3984 14.6875 56.3438 15.7422C55.6602 16.4258 55.0938 16.7969 54.4492 16.9727C53.2578 17.3047 52.8281 17.793 52.9062 18.7109C53.1211 21.4648 52.9648 21.9727 51.6758 22.9297C50.9141 23.4961 49.0781 23.4961 48.3164 22.9297C47.457 22.3047 47.0273 21.6016 46.9297 20.6641C46.793 19.4531 47.2812 18.4766 48.4727 17.6367C49.7031 16.7578 49.8203 16.2695 49.1172 14.8828C48.0234 12.7148 48.2773 10.8789 49.8789 9.27734C50.543 8.61328 51.207 8.18359 51.9102 7.94922C52.8086 7.63672 52.9844 7.48047 53.4141 6.64062C54.332 4.84375 55.6992 4.31641 57.6719 5.01953Z" fill="#ECEDF2"/>
<path d="M85.543 1.875C84.2539 2.34375 83.1211 3.20312 82.4766 4.17969C82.0859 4.78516 81.5781 5.19531 80.7188 5.64453C77.6133 7.26562 75.9141 11.0938 76.8125 14.4531C77.1055 15.5078 77.1055 15.5078 76.5586 16.2109C75.3867 17.6953 75.0938 18.5352 75.0938 20.3125C75.0938 21.6797 75.1914 22.1484 75.582 22.9492C76.1875 24.1992 77.3594 25.3711 78.6094 25.9766C79.9961 26.6602 82.457 26.6602 83.8828 25.9766C85.8945 25 87.2227 23.0664 87.4375 20.8203C87.5352 19.6094 87.5547 19.5898 88.3945 19.1406C89.5469 18.5352 90.7188 17.2266 91.4219 15.7617C91.7344 15.0977 91.9883 14.4531 91.9883 14.3359C91.9883 14.2188 92.4375 14.0625 92.9844 13.9844C94.0977 13.8281 95.5039 13.1836 96.4219 12.4219C96.7344 12.1484 97.3008 11.3867 97.6719 10.7031C98.2773 9.57031 98.3359 9.33594 98.3359 7.8125C98.3359 6.28906 98.2773 6.05469 97.6719 4.92188C96.9492 3.57422 96.1094 2.79297 94.7227 2.10938C94 1.75781 93.5508 1.67969 92.1445 1.71875C91.1875 1.73828 90.1328 1.77734 89.8008 1.77734C89.4492 1.79688 88.5508 1.73828 87.7891 1.67969C86.7734 1.58203 86.1875 1.64062 85.543 1.875ZM88.9219 5.01953C89.8008 5.33203 89.8984 5.33203 90.8359 5C92.4766 4.39453 93.8047 4.78516 94.8008 6.13281C95.3672 6.89453 95.3672 8.73047 94.8008 9.49219C93.9414 10.6445 93.4727 10.8398 91.6367 10.8008C90.1523 10.7617 89.8984 10.8008 89.5078 11.1719C89.1953 11.4648 89.0586 11.8164 89.0586 12.3633C89.0586 13.7305 88.6484 14.6875 87.5938 15.7422C86.9102 16.4258 86.3438 16.7969 85.6992 16.9727C84.5078 17.3047 84.0781 17.793 84.1562 18.7109C84.3711 21.4648 84.2148 21.9727 82.9258 22.9297C82.1641 23.4961 80.3281 23.4961 79.5664 22.9297C78.707 22.3047 78.2773 21.6016 78.1797 20.6641C78.043 19.4531 78.5312 18.4766 79.7227 17.6367C80.9531 16.7578 81.0703 16.2695 80.3672 14.8828C79.2734 12.7148 79.5273 10.8789 81.1289 9.27734C81.793 8.61328 82.457 8.18359 83.1602 7.94922C84.0586 7.63672 84.2344 7.48047 84.6641 6.64062C85.582 4.84375 86.9492 4.31641 88.9219 5.01953Z" fill="#ECEDF2"/>
<path d="M13.0664 28.4961L12.5977 28.8672L12.5 45.8203L12.4023 62.7734L7.32422 64.2969C3.65234 65.4102 2.14844 65.9375 1.91406 66.2305C1.58203 66.6211 1.5625 67.6562 1.5625 82.0703V97.4805L2.05078 97.9492L2.51953 98.4375H50H97.4805L97.9492 97.9492L98.4375 97.4805V77.3438V57.207L97.9492 56.7383C97.6953 56.4648 97.2852 56.25 97.0508 56.25C96.7188 56.25 92.5 57.4609 87.8516 58.9062C87.5195 59.0039 87.5 58.2031 87.5 44.043V29.082L87.0117 28.6133L86.543 28.125H81.2891C76.3867 28.125 75.9961 28.1445 75.5664 28.4961L75.0977 28.8672L75 45.8203L74.9023 62.7734L71.1914 63.9062C69.1602 64.5312 67.4219 65.0391 67.3438 65.0391C67.2461 65.0391 67.1875 63.2812 67.1875 61.1328C67.1875 57.2266 67.1875 57.207 66.6992 56.7383C66.4453 56.4648 66.0352 56.25 65.8008 56.25C65.4688 56.25 61.25 57.4609 56.6016 58.9062C56.2695 59.0039 56.25 58.2031 56.25 44.043V29.082L55.7617 28.6133L55.293 28.125H50.0391C45.1367 28.125 44.7461 28.1445 44.3164 28.4961L43.8477 28.8672L43.75 45.8203L43.6523 62.7734L39.9414 63.9062C37.9102 64.5312 36.1719 65.0391 36.0938 65.0391C35.9961 65.0391 35.9375 63.2812 35.9375 61.1328C35.9375 57.2266 35.9375 57.207 35.4492 56.7383C35.1953 56.4648 34.7852 56.25 34.5508 56.25C34.2188 56.25 30 57.4609 25.3516 58.9062C25.0195 59.0039 25 58.2031 25 44.043V29.082L24.5117 28.6133L24.043 28.125H18.7891C13.8867 28.125 13.4961 28.1445 13.0664 28.4961ZM21.875 32.8125V34.375H18.75H15.625V32.8125V31.25H18.75H21.875V32.8125ZM53.125 32.8125V34.375H50H46.875V32.8125V31.25H50H53.125V32.8125ZM84.375 32.8125V34.375H81.25H78.125V32.8125V31.25H81.25H84.375V32.8125ZM21.875 48.7109V59.9414L20.1758 60.4492C19.2188 60.7422 17.8906 61.1328 17.207 61.3477C16.5234 61.543 15.8984 61.7188 15.8008 61.7188C15.7031 61.7188 15.625 56.6016 15.625 49.6094V37.5H18.75H21.875V48.7109ZM53.125 48.7109V59.9414L51.4258 60.4492C50.4688 60.7422 49.1406 61.1328 48.457 61.3477C47.7734 61.543 47.1484 61.7188 47.0508 61.7188C46.9531 61.7188 46.875 56.6016 46.875 49.6094V37.5H50H53.125V48.7109ZM84.375 48.7109V59.9414L82.6758 60.4492C81.7188 60.7422 80.3906 61.1328 79.707 61.3477C79.0234 61.543 78.3984 61.7188 78.3008 61.7188C78.2031 61.7188 78.125 56.6016 78.125 49.6094V37.5H81.25H84.375V48.7109ZM32.8125 77.6367V95.3125H18.75H4.6875V81.8359V68.3789L6.09375 67.9492C12.5781 65.9766 32.5586 59.9805 32.6758 59.9805C32.7539 59.9609 32.8125 67.9102 32.8125 77.6367ZM64.0625 77.6367V95.3125H50H35.9375V81.8359V68.3789L37.3633 67.9492C43.8281 65.9766 63.8086 59.9805 63.9258 59.9805C64.0039 59.9609 64.0625 67.9102 64.0625 77.6367ZM95.3125 77.6367V95.3125H81.25H67.1875V81.8359V68.3789L68.6133 67.9492C75.0781 65.9766 95.0586 59.9805 95.1758 59.9805C95.2539 59.9609 95.3125 67.9102 95.3125 77.6367Z" fill="#ECEDF2"/>
<path d="M8.30078 70.8008L7.8125 71.2695V79.6875V88.1055L8.30078 88.5742C8.76953 89.0625 8.80859 89.0625 12.5 89.0625C16.1914 89.0625 16.2305 89.0625 16.6992 88.5742L17.1875 88.1055V79.6875V71.2695L16.6992 70.8008C16.2305 70.3125 16.1914 70.3125 12.5 70.3125C8.80859 70.3125 8.76953 70.3125 8.30078 70.8008ZM14.0625 79.6875V85.9375H12.5H10.9375V79.6875V73.4375H12.5H14.0625V79.6875Z" fill="#ECEDF2"/>
<path d="M20.8008 70.8008L20.3125 71.2695V79.6875V88.1055L20.8008 88.5742C21.2695 89.0625 21.3086 89.0625 25 89.0625C28.6914 89.0625 28.7305 89.0625 29.1992 88.5742L29.6875 88.1055V79.6875V71.2695L29.1992 70.8008C28.7305 70.3125 28.6914 70.3125 25 70.3125C21.3086 70.3125 21.2695 70.3125 20.8008 70.8008ZM26.5625 79.6875V85.9375H25H23.4375V79.6875V73.4375H25H26.5625V79.6875Z" fill="#ECEDF2"/>
<path d="M39.5508 70.8008L39.0625 71.2695V79.6875V88.1055L39.5508 88.5742C40.0195 89.0625 40.0586 89.0625 43.75 89.0625C47.4414 89.0625 47.4805 89.0625 47.9492 88.5742L48.4375 88.1055V79.6875V71.2695L47.9492 70.8008C47.4805 70.3125 47.4414 70.3125 43.75 70.3125C40.0586 70.3125 40.0195 70.3125 39.5508 70.8008ZM45.3125 79.6875V85.9375H43.75H42.1875V79.6875V73.4375H43.75H45.3125V79.6875Z" fill="#ECEDF2"/>
<path d="M52.0508 70.8008L51.5625 71.2695V79.6875V88.1055L52.0508 88.5742C52.5195 89.0625 52.5586 89.0625 56.25 89.0625C59.9414 89.0625 59.9805 89.0625 60.4492 88.5742L60.9375 88.1055V79.6875V71.2695L60.4492 70.8008C59.9805 70.3125 59.9414 70.3125 56.25 70.3125C52.5586 70.3125 52.5195 70.3125 52.0508 70.8008ZM57.8125 79.6875V85.9375H56.25H54.6875V79.6875V73.4375H56.25H57.8125V79.6875Z" fill="#ECEDF2"/>
<path d="M70.8008 70.8008L70.3125 71.2695V79.6875V88.1055L70.8008 88.5742C71.2695 89.0625 71.3086 89.0625 75 89.0625C78.6914 89.0625 78.7305 89.0625 79.1992 88.5742L79.6875 88.1055V79.6875V71.2695L79.1992 70.8008C78.7305 70.3125 78.6914 70.3125 75 70.3125C71.3086 70.3125 71.2695 70.3125 70.8008 70.8008ZM76.5625 79.6875V85.9375H75H73.4375V79.6875V73.4375H75H76.5625V79.6875Z" fill="#ECEDF2"/>
<path d="M83.3008 70.8008L82.8125 71.2695V79.6875V88.1055L83.3008 88.5742C83.7695 89.0625 83.8086 89.0625 87.5 89.0625C91.1914 89.0625 91.2305 89.0625 91.6992 88.5742L92.1875 88.1055V79.6875V71.2695L91.6992 70.8008C91.2305 70.3125 91.1914 70.3125 87.5 70.3125C83.8086 70.3125 83.7695 70.3125 83.3008 70.8008ZM89.0625 79.6875V85.9375H87.5H85.9375V79.6875V73.4375H87.5H89.0625V79.6875Z" fill="#ECEDF2"/>
</svg>
