<svg width="100" height="100" viewBox="0 0 100 100" fill="none" xmlns="http://www.w3.org/2000/svg">
<path d="M21.4844 8.125C20.7617 8.39844 19.5508 9.49219 14.7852 14.2383C11.582 17.4219 8.73047 20.3906 8.47656 20.8398C7.12891 23.0859 7.96875 26.1133 10.293 27.4805C11.5039 28.1836 13.5156 28.2617 14.7852 27.6172L15.6055 27.207L18.0664 29.6875L20.5469 32.168L19.8828 32.4414C18.5156 32.9883 15.2539 35.3906 13.6328 37.0117C5.09766 45.5469 3.84766 58.6719 10.6055 68.75C11.1523 69.5508 12.5195 71.1523 13.6523 72.2852C16.3672 75 19.3164 76.9336 22.5781 78.125L23.7695 78.5547L23.0273 79.9805C22.6172 80.7812 22.2266 81.7383 22.1484 82.1094L22.0312 82.8125H12.2656H2.51953L2.05078 83.3008C1.5625 83.7695 1.5625 83.8086 1.5625 87.5C1.5625 91.1914 1.5625 91.2305 2.05078 91.6992L2.51953 92.1875H31.25H59.9805L60.4492 91.6992C60.9375 91.2305 60.9375 91.1914 60.9375 87.5C60.9375 83.8086 60.9375 83.7695 60.4492 83.3008L59.9805 82.8125H50.2344H40.4688L40.3516 82.1094C40.2734 81.7383 39.8828 80.7812 39.4727 79.9805L38.7305 78.5547L39.9219 78.125C43.0469 76.9922 45.8008 75.2344 48.3789 72.793C50.4102 70.8398 51.582 69.375 52.8906 67.1289L53.7695 65.625H56.875C61.1719 65.625 60.9375 65.8984 60.9375 60.9375C60.9375 57.2461 60.9375 57.207 60.4492 56.7383L59.9805 56.25H46.875H33.7695L33.3008 56.7383C32.8125 57.207 32.8125 57.2461 32.8125 60.9375C32.8125 65.8984 32.5781 65.625 36.9336 65.625H40.1172L39.4336 66.1328C38.418 66.875 36.1914 67.9297 34.7656 68.3008C33.0469 68.7695 29.4531 68.7695 27.7344 68.3008C27.0312 68.125 25.7227 67.5977 24.8047 67.1484C22.4414 65.9766 19.9609 63.4766 18.7891 61.1328C16.9141 57.3438 16.6992 53.4375 18.1836 49.5898C19.2188 46.8945 21.6992 43.9648 23.9844 42.7148L24.9219 42.207L26.2305 42.8711C27.7148 43.6328 29.2773 43.8867 30.7227 43.6133L31.7383 43.4375L34.2969 45.9375C37.3047 48.8867 37.5195 48.9648 38.9844 47.6172L39.8633 46.8164L42.2656 49.1797C45.4883 52.3828 45.1367 52.4023 48.7695 48.7695C52.4023 45.1367 52.3828 45.4883 49.1797 42.2656L46.8164 39.8633L47.6172 38.9844C49.1406 37.3242 49.8438 38.2227 37.8125 26.1719L27.1875 15.5273L27.5586 14.8242C28.7305 12.6367 27.8711 9.76562 25.6641 8.47656C24.5508 7.8125 22.7734 7.67578 21.4844 8.125ZM24.4336 11.5039C24.8242 11.9141 25 12.2656 25 12.7344C25 13.3203 24.4727 13.9062 19.1797 19.1797C13.9062 24.4727 13.3203 25 12.7344 25C11.8359 25 10.9375 24.1016 10.9375 23.2031C10.9375 22.6172 11.4648 22.0312 16.7578 16.7578C22.0312 11.4648 22.6172 10.9375 23.2031 10.9375C23.6719 10.9375 24.0234 11.1133 24.4336 11.5039ZM34.8633 27.7344L44.6289 37.5L41.0742 41.0547L37.5 44.6289L36.1523 43.2812L34.7852 41.9336L35.5469 41.0352C37.6758 38.4766 38.0664 35.4102 36.6211 32.5C34.3555 27.8906 28.6133 26.7383 24.5898 30.0781L23.6914 30.8203L20.7812 27.9102L17.8711 25L21.3867 21.4844C23.3203 19.5508 24.9414 17.9688 25 17.9688C25.0586 17.9688 29.4922 22.3633 34.8633 27.7344ZM31.1328 31.4844C32.207 31.7969 33.8281 33.418 34.1406 34.4922C34.6875 36.3281 34.2969 37.793 32.9102 39.1602C31.9141 40.1758 30.918 40.625 29.6875 40.625C27.2656 40.625 25 38.3594 25 35.9375C25 34.707 25.4492 33.7109 26.4648 32.7148C27.832 31.3281 29.2969 30.957 31.1328 31.4844ZM22.4414 38.7695C22.6758 39.2773 22.832 39.7266 22.8125 39.7266C21.9336 40.1758 20.1172 41.582 19.1211 42.5586C16.9141 44.7852 15.5078 47.207 14.6094 50.332C13.9844 52.5195 13.9844 56.8555 14.6094 59.043C15.8203 63.3008 18.1836 66.582 21.6797 68.9258C27.8906 73.0859 35.7617 72.8125 41.7578 68.2227C42.5391 67.6172 43.4766 66.7969 43.8281 66.3672L44.4727 65.6055L47.3242 65.6641L50.1758 65.7227L49.375 66.8945C46.5234 71.0742 42.0508 74.3359 37.3438 75.6445L35.7031 76.1133L34.5117 75.6055C33.4766 75.1758 33.0078 75.0977 31.25 75.0977C29.4922 75.0977 29.0234 75.1758 27.9883 75.6055L26.7969 76.1133L25.1562 75.6445C16.9141 73.3008 10.8203 66.2109 9.57031 57.5195C8.35938 48.9062 12.9492 39.707 20.5273 35.6445L21.7773 34.9805L21.8945 36.3867C21.9727 37.168 22.207 38.2422 22.4414 38.7695ZM46.1914 43.75L47.7539 45.3125L46.5234 46.5234L45.3125 47.7539L43.7109 46.1523L42.0898 44.5312L43.2617 43.3594C43.9062 42.7148 44.4727 42.1875 44.5312 42.1875C44.5898 42.1875 45.332 42.8906 46.1914 43.75ZM57.8125 60.9375V62.5H46.875H35.9375V60.9375V59.375H46.875H57.8125V60.9375ZM33.9258 78.7695C35.2539 79.4531 36.25 80.4688 36.8359 81.7188L37.3047 82.7148L34.2773 82.7734C32.6172 82.793 29.8828 82.793 28.2227 82.7734L25.1953 82.7148L25.6641 81.7188C26.3867 80.1367 27.8516 78.9062 29.6875 78.3008C30.6641 77.9688 32.8516 78.2227 33.9258 78.7695ZM57.8125 87.5V89.0625H31.25H4.6875V87.5V85.9375H31.25H57.8125V87.5Z" fill="#ECEDF2"/>
<path d="M64.5508 55.1758C64.0625 55.6445 64.0625 55.6836 64.0625 59.375C64.0625 63.0664 64.0625 63.1055 64.5508 63.5742C64.8047 63.8477 65.1562 64.0625 65.3125 64.0625C65.5664 64.0625 65.625 65.4883 65.6641 75.8203L65.7227 87.5977L66.1719 88.4766C66.8555 89.8828 67.6367 90.7031 68.9844 91.4258C70.1172 92.0312 70.3516 92.0898 71.875 92.0898C73.3984 92.0898 73.6328 92.0312 74.7656 91.4258C76.1328 90.6836 76.7188 90.0781 77.5 88.5938L78.0273 87.5977L78.0859 82.0703L78.1445 76.5625H81.25H84.3555L84.4141 82.0703C84.4727 87.3438 84.4922 87.6367 84.9219 88.4766C85.6055 89.8828 86.3867 90.7031 87.7344 91.4258C88.8672 92.0312 89.1016 92.0898 90.625 92.0898C92.1484 92.0898 92.3828 92.0312 93.5156 91.4258C94.8828 90.6836 95.4688 90.0781 96.25 88.5938L96.7773 87.5977L96.8359 75.8203C96.875 65.4883 96.9336 64.0625 97.1875 64.0625C97.3438 64.0625 97.6953 63.8477 97.9492 63.5742C98.4375 63.1055 98.4375 63.0664 98.4375 59.375C98.4375 55.6836 98.4375 55.6445 97.9492 55.1758L97.4805 54.6875H90.625H83.7695L83.3008 55.1758C82.8125 55.6445 82.8125 55.6836 82.8125 59.375C82.8125 63.0664 82.8125 63.1055 83.3008 63.5742C83.5547 63.8477 83.9062 64.0625 84.082 64.0625C84.3164 64.0625 84.375 64.3555 84.375 65.625V67.1875H81.25H78.125V65.625C78.125 64.3555 78.1836 64.0625 78.418 64.0625C78.5938 64.0625 78.9453 63.8477 79.1992 63.5742C79.6875 63.1055 79.6875 63.0664 79.6875 59.375C79.6875 55.6836 79.6875 55.6445 79.1992 55.1758L78.7305 54.6875H71.875H65.0195L64.5508 55.1758ZM76.5625 59.375V60.9375H71.875H67.1875V59.375V57.8125H71.875H76.5625V59.375ZM95.3125 59.375V60.9375H90.625H85.9375V59.375V57.8125H90.625H95.3125V59.375ZM74.9609 75.5664C74.9023 86.8555 74.9023 87.0898 74.4922 87.6172C73.7305 88.6523 73.1055 88.9648 71.875 88.9648C70.6445 88.9648 70.0195 88.6523 69.2578 87.6172C68.8477 87.0898 68.8477 86.8555 68.7891 75.5664L68.75 64.0625H71.875H75L74.9609 75.5664ZM93.7109 75.5664C93.6523 86.8555 93.6523 87.0898 93.2422 87.6172C92.4805 88.6523 91.8555 88.9648 90.625 88.9648C89.3945 88.9648 88.7695 88.6523 88.0078 87.6172C87.5977 87.0898 87.5977 86.8555 87.5391 75.5664L87.5 64.0625H90.625H93.75L93.7109 75.5664ZM84.375 71.875V73.4375H81.25H78.125V71.875V70.3125H81.25H84.375V71.875Z" fill="#ECEDF2"/>
</svg>
