<svg width="100" height="100" viewBox="0 0 100 100" fill="none" xmlns="http://www.w3.org/2000/svg">
<path d="M19.2383 2.05078C18.75 2.51953 18.75 2.55859 18.75 6.25C18.75 11.2305 18.4766 10.9375 23.1445 10.9375H26.5625V12.5V14.0625H14.5508H2.51953L2.05078 14.5508C1.5625 15.0195 1.5625 15.0586 1.5625 18.75C1.5625 22.4414 1.5625 22.4805 2.05078 22.9492C2.44141 23.3594 2.71484 23.4375 3.61328 23.4375H4.6875V56.25V89.0625H3.61328C2.71484 89.0625 2.44141 89.1406 2.05078 89.5508C1.5625 90.0195 1.5625 90.0586 1.5625 93.75C1.5625 97.4414 1.5625 97.4805 2.05078 97.9492L2.51953 98.4375H50H97.4805L97.9492 97.9492C98.4375 97.4805 98.4375 97.4414 98.4375 93.75C98.4375 90.0586 98.4375 90.0195 97.9492 89.5508C97.5586 89.1406 97.2852 89.0625 96.3867 89.0625H95.3125V56.25V23.4375H96.3867C97.2852 23.4375 97.5586 23.3594 97.9492 22.9492C98.4375 22.4805 98.4375 22.4414 98.4375 18.75C98.4375 15.0586 98.4375 15.0195 97.9492 14.5508L97.4805 14.0625H85.4492H73.4375V12.5V10.9375H76.8555C81.5234 10.9375 81.25 11.2305 81.25 6.25C81.25 2.55859 81.25 2.51953 80.7617 2.05078L80.293 1.5625H50H19.707L19.2383 2.05078ZM78.125 6.25V7.8125H50H21.875V6.25V4.6875H50H78.125V6.25ZM70.3125 50V89.0625H68.75H67.1875V70.8008V52.5195L66.6992 52.0508L66.2305 51.5625H50H33.7695L33.3008 52.0508L32.8125 52.5195V70.8008V89.0625H31.25H29.6875V50V10.9375H50H70.3125V50ZM26.5625 18.75V20.3125H15.625H4.6875V18.75V17.1875H15.625H26.5625V18.75ZM95.3125 18.75V20.3125H84.375H73.4375V18.75V17.1875H84.375H95.3125V18.75ZM26.5625 56.25V89.0625H17.1875H7.8125V56.25V23.4375H17.1875H26.5625V56.25ZM92.1875 56.25V89.0625H82.8125H73.4375V56.25V23.4375H82.8125H92.1875V56.25ZM48.4375 71.875V89.0625H42.1875H35.9375V71.875V54.6875H42.1875H48.4375V71.875ZM64.0625 71.875V89.0625H57.8125H51.5625V71.875V54.6875H57.8125H64.0625V71.875ZM95.3125 93.75V95.3125H50H4.6875V93.75V92.1875H50H95.3125V93.75Z" fill="#ECEDF2"/>
<path d="M45.8008 14.5508C45.3516 14.9805 45.3125 15.1758 45.3125 16.8945V18.75H43.457C41.7383 18.75 41.543 18.7891 41.1133 19.2383C40.625 19.707 40.625 19.7461 40.625 23.4375C40.625 27.1289 40.625 27.168 41.1133 27.6367C41.543 28.0859 41.7383 28.125 43.457 28.125H45.3125V29.9805C45.3125 31.6992 45.3516 31.8945 45.8008 32.3242C46.2695 32.8125 46.3086 32.8125 50 32.8125C53.6914 32.8125 53.7305 32.8125 54.1992 32.3242C54.6484 31.8945 54.6875 31.6992 54.6875 29.9805V28.125H56.543C58.2617 28.125 58.457 28.0859 58.8867 27.6367C59.375 27.168 59.375 27.1289 59.375 23.4375C59.375 19.7461 59.375 19.707 58.8867 19.2383C58.457 18.7891 58.2617 18.75 56.543 18.75H54.6875V16.8945C54.6875 15.1758 54.6484 14.9805 54.1992 14.5508C53.7305 14.0625 53.6914 14.0625 50 14.0625C46.3086 14.0625 46.2695 14.0625 45.8008 14.5508ZM51.5625 19.043C51.5625 20.7617 51.6016 20.957 52.0508 21.3867C52.4805 21.8359 52.6758 21.875 54.3945 21.875H56.25V23.4375V25H54.3945C52.6758 25 52.4805 25.0391 52.0508 25.4883C51.6016 25.918 51.5625 26.1133 51.5625 27.832V29.6875H50H48.4375V27.832C48.4375 26.1133 48.3984 25.918 47.9492 25.4883C47.5195 25.0391 47.3242 25 45.6055 25H43.75V23.4375V21.875H45.6055C47.3242 21.875 47.5195 21.8359 47.9492 21.3867C48.3984 20.957 48.4375 20.7617 48.4375 19.043V17.1875H50H51.5625V19.043Z" fill="#ECEDF2"/>
<path d="M33.3008 36.4258L32.8125 36.8945V42.1875V47.4805L33.3008 47.9492L33.7695 48.4375H40.625H47.4805L47.9492 47.9492L48.4375 47.4805V42.1875V36.8945L47.9492 36.4258L47.4805 35.9375H40.625H33.7695L33.3008 36.4258ZM45.3125 42.1875V45.3125H40.625H35.9375V42.1875V39.0625H40.625H45.3125V42.1875Z" fill="#ECEDF2"/>
<path d="M52.0508 36.4258L51.5625 36.8945V42.1875V47.4805L52.0508 47.9492L52.5195 48.4375H59.375H66.2305L66.6992 47.9492L67.1875 47.4805V42.1875V36.8945L66.6992 36.4258L66.2305 35.9375H59.375H52.5195L52.0508 36.4258ZM64.0625 42.1875V45.3125H59.375H54.6875V42.1875V39.0625H59.375H64.0625V42.1875Z" fill="#ECEDF2"/>
<path d="M11.4258 31.7383L10.9375 32.207V37.5V42.793L11.4258 43.2617L11.8945 43.75H17.1875H22.4805L22.9492 43.2617L23.4375 42.793V37.5V32.207L22.9492 31.7383L22.4805 31.25H17.1875H11.8945L11.4258 31.7383ZM20.3125 37.5V40.625H17.1875H14.0625V37.5V34.375H17.1875H20.3125V37.5Z" fill="#ECEDF2"/>
<path d="M11.4258 50.4883L10.9375 50.957V56.25V61.543L11.4258 62.0117L11.8945 62.5H17.1875H22.4805L22.9492 62.0117L23.4375 61.543V56.25V50.957L22.9492 50.4883L22.4805 50H17.1875H11.8945L11.4258 50.4883ZM20.3125 56.25V59.375H17.1875H14.0625V56.25V53.125H17.1875H20.3125V56.25Z" fill="#ECEDF2"/>
<path d="M11.4258 69.2383L10.9375 69.707V75V80.293L11.4258 80.7617L11.8945 81.25H17.1875H22.4805L22.9492 80.7617L23.4375 80.293V75V69.707L22.9492 69.2383L22.4805 68.75H17.1875H11.8945L11.4258 69.2383ZM20.3125 75V78.125H17.1875H14.0625V75V71.875H17.1875H20.3125V75Z" fill="#ECEDF2"/>
<path d="M77.0508 31.7383L76.5625 32.207V37.5V42.793L77.0508 43.2617L77.5195 43.75H82.8125H88.1055L88.5742 43.2617L89.0625 42.793V37.5V32.207L88.5742 31.7383L88.1055 31.25H82.8125H77.5195L77.0508 31.7383ZM85.9375 37.5V40.625H82.8125H79.6875V37.5V34.375H82.8125H85.9375V37.5Z" fill="#ECEDF2"/>
<path d="M77.0508 50.4883L76.5625 50.957V56.25V61.543L77.0508 62.0117L77.5195 62.5H82.8125H88.1055L88.5742 62.0117L89.0625 61.543V56.25V50.957L88.5742 50.4883L88.1055 50H82.8125H77.5195L77.0508 50.4883ZM85.9375 56.25V59.375H82.8125H79.6875V56.25V53.125H82.8125H85.9375V56.25Z" fill="#ECEDF2"/>
<path d="M77.0508 69.2383L76.5625 69.707V75V80.293L77.0508 80.7617L77.5195 81.25H82.8125H88.1055L88.5742 80.7617L89.0625 80.293V75V69.707L88.5742 69.2383L88.1055 68.75H82.8125H77.5195L77.0508 69.2383ZM85.9375 75V78.125H82.8125H79.6875V75V71.875H82.8125H85.9375V75Z" fill="#ECEDF2"/>
</svg>
