<svg width="100" height="100" viewBox="0 0 100 100" fill="none" xmlns="http://www.w3.org/2000/svg">
<path d="M5.17578 2.05078C4.70703 2.5 4.6875 2.61719 4.6875 5.17578V7.8125H3.61328C2.71484 7.8125 2.44141 7.89062 2.05078 8.30078L1.5625 8.76953V21.875V34.9805L2.05078 35.4492C2.44141 35.8594 2.71484 35.9375 3.61328 35.9375H4.6875V62.5V89.0625H3.61328C2.71484 89.0625 2.44141 89.1406 2.05078 89.5508C1.5625 90.0195 1.5625 90.0586 1.5625 93.75C1.5625 97.4414 1.5625 97.4805 2.05078 97.9492L2.51953 98.4375H50H97.4805L97.9492 97.9492C98.4375 97.4805 98.4375 97.4414 98.4375 93.75C98.4375 90.0586 98.4375 90.0195 97.9492 89.5508C97.5586 89.1406 97.2852 89.0625 96.3867 89.0625H95.3125V62.5V35.9375H96.3867C97.2852 35.9375 97.5586 35.8594 97.9492 35.4492L98.4375 34.9805V21.875V8.76953L97.9492 8.30078C97.5586 7.89062 97.2852 7.8125 96.3867 7.8125H95.3125V5.17578C95.3125 2.61719 95.293 2.5 94.8242 2.05078L94.3555 1.5625H50H5.64453L5.17578 2.05078ZM92.1875 6.25V7.8125H50H7.8125V6.25V4.6875H50H92.1875V6.25ZM95.3125 21.875V32.8125H50H4.6875V21.875V10.9375H50H95.3125V21.875ZM92.1875 37.5V39.0625H50H7.8125V37.5V35.9375H50H92.1875V37.5ZM26.5625 46.875V51.5625H17.1875H7.8125V46.875V42.1875H17.1875H26.5625V46.875ZM48.4375 46.875V51.5625H39.0625H29.6875V46.875V42.1875H39.0625H48.4375V46.875ZM70.3125 46.875V51.5625H60.9375H51.5625V46.875V42.1875H60.9375H70.3125V46.875ZM92.1875 46.875V51.5625H82.8125H73.4375V46.875V42.1875H82.8125H92.1875V46.875ZM92.1875 71.875V89.0625H90.625H89.0625V73.9258V58.7695L88.5742 58.3008L88.1055 57.8125H76.5625H65.0195L64.5508 58.3008L64.0625 58.7695V73.9258V89.0625H60.9375H57.8125V73.9258V58.7695L57.3242 58.3008L56.8555 57.8125H34.375H11.8945L11.4258 58.3008L10.9375 58.7695V73.9258V89.0625H9.375H7.8125V71.875V54.6875H50H92.1875V71.875ZM54.6875 75V89.0625H53.125H51.5625V77.0508V65.0195L51.0742 64.5508L50.6055 64.0625H34.375H18.1445L17.6758 64.5508L17.1875 65.0195V77.0508V89.0625H15.625H14.0625V75V60.9375H34.375H54.6875V75ZM85.9375 75V89.0625H76.5625H67.1875V75V60.9375H76.5625H85.9375V75ZM32.8125 78.125V89.0625H26.5625H20.3125V78.125V67.1875H26.5625H32.8125V78.125ZM48.4375 78.125V89.0625H42.1875H35.9375V78.125V67.1875H42.1875H48.4375V78.125ZM95.3125 93.75V95.3125H50H4.6875V93.75V92.1875H50H95.3125V93.75Z" fill="#ECEDF2"/>
<path d="M22.3633 14.5508L21.875 15.0195V21.875V28.7305L22.3633 29.1992C22.832 29.6875 22.8711 29.6875 26.582 29.6875C31.0742 29.6875 31.582 29.5703 32.9102 28.2227C34.6094 26.5234 34.8633 24.2969 33.5547 22.4023C33.1836 21.875 33.1836 21.875 33.5547 21.3281C34.8633 19.4531 34.6094 17.2266 32.9102 15.5273C31.582 14.1797 31.0742 14.0625 26.582 14.0625C22.8711 14.0625 22.832 14.0625 22.3633 14.5508ZM30.7617 17.6758C31.0742 17.9688 31.25 18.3789 31.25 18.75C31.25 19.1211 31.0742 19.5312 30.7617 19.8242C30.3125 20.293 30.1953 20.3125 27.6367 20.3125H25V18.75V17.1875H27.6367C30.1953 17.1875 30.3125 17.207 30.7617 17.6758ZM30.7617 23.9258C31.0742 24.2188 31.25 24.6289 31.25 25C31.25 25.3711 31.0742 25.7812 30.7617 26.0742C30.3125 26.543 30.1953 26.5625 27.6367 26.5625H25V25V23.4375H27.6367C30.1953 23.4375 30.3125 23.457 30.7617 23.9258Z" fill="#ECEDF2"/>
<path d="M42.2891 14.2383C40.4922 14.707 38.9102 15.9961 38.0898 17.6758C37.6016 18.6328 37.6016 18.75 37.543 24.1602L37.4844 29.6875H39.0469H40.6289V27.3438V25H43.7539H46.8789V27.3438V29.6875H48.4609H50.0234L49.9648 24.1602L49.9062 18.6523L49.3789 17.6562C48.5977 16.1914 48.0117 15.5664 46.7031 14.8633C45.4336 14.1992 43.5 13.9062 42.2891 14.2383ZM45.4727 17.7148C46.4687 18.457 46.7617 19.0625 46.8398 20.5078L46.918 21.875H43.7734H40.6289V20.8203C40.6289 19.1211 41.2148 18.0273 42.4844 17.4609C43.2656 17.0898 44.8086 17.2266 45.4727 17.7148Z" fill="#ECEDF2"/>
<path d="M53.6133 14.5508L53.125 15.0195V22.3633V29.6875H54.6875H56.25L56.2891 25.0586L56.3477 20.4297L59.7266 24.9414C61.582 27.4219 63.2422 29.5117 63.3984 29.5703C64.0234 29.8047 64.6875 29.668 65.1367 29.1992L65.625 28.7305V21.3867V14.0625H64.0625H62.5L62.4609 18.6914L62.4023 23.3203L59.0234 18.8086C57.168 16.3281 55.5078 14.2383 55.3516 14.1797C54.7266 13.9453 54.0625 14.082 53.6133 14.5508Z" fill="#ECEDF2"/>
<path d="M68.75 21.875V29.6875H70.3125H71.8555L71.9141 27.0312L71.9727 24.375L72.8906 25.1758C73.8867 26.0742 74.7266 27.5586 74.9219 28.8477L75.0586 29.6875H76.6211H78.1836L78.0469 28.6133C77.793 26.3477 76.3086 23.7305 74.6289 22.5391C74.1992 22.2266 73.8281 21.9336 73.8281 21.875C73.8281 21.8164 74.1992 21.5234 74.6289 21.2109C76.3086 20.0195 77.793 17.4023 78.0469 15.1367L78.1836 14.0625H76.6211H75.0586L74.9219 14.8828C74.7266 16.1914 73.8867 17.6758 72.8906 18.5742L71.9727 19.375L71.9141 16.7188L71.8555 14.0625H70.3125H68.75V21.875Z" fill="#ECEDF2"/>
<path d="M70.8008 64.5508L70.3125 65.0195V70.3125V75.6055L70.8008 76.0742L71.2695 76.5625H76.5625H81.8555L82.3242 76.0742L82.8125 75.6055V70.3125V65.0195L82.3242 64.5508L81.8555 64.0625H76.5625H71.2695L70.8008 64.5508ZM79.6875 70.3125V73.4375H76.5625H73.4375V70.3125V67.1875H76.5625H79.6875V70.3125Z" fill="#ECEDF2"/>
</svg>
