<svg width="40" height="40" viewBox="0 0 40 40" fill="none" xmlns="http://www.w3.org/2000/svg">
<rect width="40" height="40" rx="10" fill="white"/>
<g clip-path="url(#clip0_237_638)">
<path fill-rule="evenodd" clip-rule="evenodd" d="M12.9844 25.3501C13.0505 25.2877 13.1178 25.2265 13.1817 25.1642L22.8295 15.5656L23.0524 15.344H15.4216L15.4657 13.0347L15.4982 13.0012C15.5859 13.0142 15.6742 13.0227 15.7628 13.0266H26.7685C26.8433 13.0237 26.9178 13.0152 26.9913 13.0012V24.5025H24.7607V16.9974C24.6574 17.0805 24.6168 17.1048 24.582 17.1394C20.1997 21.497 19.1006 22.5916 14.7171 26.9538C14.6958 26.9755 14.6756 26.9982 14.6568 27.022C14.0985 26.462 13.5391 25.9077 12.9844 25.3501Z" fill="#271291"/>
</g>
<defs>
<clipPath id="clip0_237_638">
<rect width="14" height="14" fill="white" transform="matrix(1 0 0 -1 13 27)"/>
</clipPath>
</defs>
</svg>
