<svg width="100" height="100" viewBox="0 0 100 100" fill="none" xmlns="http://www.w3.org/2000/svg">
<path d="M25.7812 16.6016C12.7344 24.8828 1.93359 31.7969 1.81641 31.9727C1.25 32.7148 1.52344 33.2812 4.10156 36.7383C5.50781 38.6133 6.79688 40.2539 6.97266 40.3711C7.42188 40.7031 8.24219 40.6836 8.71094 40.332C8.90625 40.1758 9.14062 40.0391 9.23828 40.0391C9.31641 40.0391 9.375 52.4805 9.375 67.6758V95.3125H5.46875H1.5625V96.875V98.4375H50H98.4375V96.875V95.3125H94.4922H90.5273V93.75V92.1875H92.1484H93.75V90.625V89.0625H92.1875H90.625V84.8633C90.625 80.6445 90.625 80.6445 90.1367 80.1758C89.6875 79.707 89.5703 79.6875 87.0117 79.6875H84.375V75.4883C84.375 71.2695 84.375 71.2695 83.8867 70.8008C83.4961 70.3906 83.2227 70.3125 82.3242 70.3125H81.25V59.8633V49.3945L80.7617 48.9258L80.293 48.4375H50H19.707L19.2383 48.9258L18.75 49.3945V72.3633V95.3125H15.625H12.5V66.6406V37.9688L31.0938 26.25C41.3281 19.8242 49.8438 14.5508 50.0195 14.5508C50.1953 14.5508 58.6914 19.8242 68.9258 26.25L87.5 37.9492V57.2656V76.5625H89.0625H90.625V58.3008C90.625 48.2617 90.6836 40.0391 90.7812 40.0391C90.8594 40.0391 91.0938 40.1758 91.2891 40.332C91.7578 40.6836 92.5781 40.7031 93.0273 40.3711C93.2031 40.2539 94.4922 38.6133 95.8984 36.7383C98.5547 33.1641 98.7891 32.6758 98.0859 31.875C97.9102 31.6602 91.1133 27.2852 83.0078 22.1484C69.4727 13.5938 61.4844 8.55469 53.5156 3.47656C51.7188 2.34375 50.293 1.5625 50 1.5625C49.6875 1.58203 40.6445 7.1875 25.7812 16.6016ZM72.1094 18.9648C84.1797 26.6016 94.1602 32.9492 94.2969 33.0859C94.4922 33.2812 94.2578 33.6914 93.2227 35.1172C92.4805 36.0938 91.7969 36.875 91.6797 36.8164C91.5625 36.7773 82.2852 30.9766 71.0742 23.9062C59.8633 16.8359 50.4492 11.0156 50.1562 10.9766C49.707 10.918 45.9375 13.2031 29.1016 23.8086C17.8125 30.918 8.47656 36.7773 8.33984 36.8164C8.02734 36.9336 5.41016 33.3789 5.64453 33.1445C5.99609 32.793 49.707 5.11719 49.9414 5.09766C50.0586 5.07812 60.0391 11.3281 72.1094 18.9648ZM78.125 53.125V54.6875H50H21.875V53.125V51.5625H50H78.125V53.125ZM78.125 59.375V60.9375H50H21.875V59.375V57.8125H50H78.125V59.375ZM78.125 67.1875V70.3125H73.9258C68.3008 70.3125 68.75 69.8633 68.75 75.4883V79.6875H67.1875H65.625V73.9258V68.1445L65.1367 67.6758C64.668 67.1875 64.6094 67.1875 61.2305 67.1875H57.8125V68.75V70.3125H60.1562H62.5V80.7617V91.2305L62.9883 91.6992C63.3789 92.1094 63.6523 92.1875 64.5898 92.1875H65.7227V93.75V95.3125H62.5586H59.375V91.1133C59.375 86.8945 59.375 86.8945 58.8867 86.4258L58.418 85.9375H52.6367H46.875V81.7383C46.875 77.5195 46.875 77.5195 46.3867 77.0508L45.918 76.5625H40.1367H34.375V72.3633C34.375 68.1445 34.375 68.1445 33.8867 67.6758L33.418 67.1875H27.6367H21.875V65.625V64.0625H50H78.125V67.1875ZM25 71.875V73.4375H26.5625H28.125V71.875V70.3125H29.6875H31.25V73.4375V76.5625H26.5625H21.875V73.4375V70.3125H23.4375H25V71.875ZM75 75V76.5625H76.5625H78.125V75V73.4375H79.6875H81.25V76.5625V79.6875H76.5625H71.875V76.5625V73.4375H73.4375H75V75ZM25 81.25V82.8125H26.5625H28.125V81.25V79.6875H29.6875H31.25V82.8125V85.9375H26.5625H21.875V82.8125V79.6875H23.4375H25V81.25ZM37.5 81.25V82.8125H39.0625H40.625V81.25V79.6875H42.1875H43.75V82.8125V85.9375H39.0625H34.375V82.8125V79.6875H35.9375H37.5V81.25ZM68.75 84.375V85.9375H70.3125H71.875V84.375V82.8125H73.4375H75V85.9375V89.0625H70.3125H65.625V85.9375V82.8125H67.1875H68.75V84.375ZM81.25 84.375V85.9375H82.8125H84.375V84.375V82.8125H85.9375H87.5V85.9375V89.0625H82.8125H78.125V85.9375V82.8125H79.6875H81.25V84.375ZM25 90.625V92.1875H26.5625H28.125V90.625V89.0625H29.6875H31.25V92.1875V95.3125H26.5625H21.875V92.1875V89.0625H23.4375H25V90.625ZM37.5 90.625V92.1875H39.0625H40.625V90.625V89.0625H42.1875H43.75V92.1875V95.3125H39.0625H34.375V92.1875V89.0625H35.9375H37.5V90.625ZM50 90.625V92.1875H51.5625H53.125V90.625V89.0625H54.6875H56.25V92.1875V95.3125H51.5625H46.875V92.1875V89.0625H48.4375H50V90.625ZM71.3867 92.6758C72.3633 93.6328 71.6797 95.3125 70.3125 95.3125C69.5117 95.3125 68.75 94.5508 68.75 93.75C68.75 92.9492 69.5117 92.1875 70.3125 92.1875C70.6836 92.1875 71.0938 92.3633 71.3867 92.6758ZM81.3477 93.75V95.3125H78.125H74.9023V93.75V92.1875H78.125H81.3477V93.75ZM87.0117 92.6758C87.9883 93.6328 87.3047 95.3125 85.9375 95.3125C85.1367 95.3125 84.375 94.5508 84.375 93.75C84.375 92.9492 85.1367 92.1875 85.9375 92.1875C86.3086 92.1875 86.7188 92.3633 87.0117 92.6758Z" fill="#ECEDF2"/>
<path d="M30.1758 33.3008L29.6875 33.7695V39.0625V44.3555L30.1758 44.8242L30.6445 45.3125H50H69.3555L69.8242 44.8242L70.3125 44.3555V39.0625V33.7695L69.8242 33.3008L69.3555 32.8125H50H30.6445L30.1758 33.3008ZM67.1875 39.0625V42.1875H50H32.8125V39.0625V35.9375H50H67.1875V39.0625Z" fill="#ECEDF2"/>
</svg>
