<svg width="60" height="60" viewBox="0 0 60 60" fill="none" xmlns="http://www.w3.org/2000/svg">
<path d="M21.1484 1.06641C20.832 1.13672 20.1406 1.39454 19.6133 1.64063C17.3516 2.73047 15.9336 5.05079 15.9336 7.69922V8.4375H15.2891C14.75 8.4375 14.5859 8.48438 14.3516 8.73047C14.0703 9 14.0586 9.07032 14.0586 10.6055V12.1875H13.1211H12.1836V11.5313C12.1836 10.5117 11.9727 9.97266 11.3047 9.31641C10.5664 8.56641 10.1328 8.4375 8.43359 8.4375C6.73438 8.4375 6.30078 8.56641 5.5625 9.31641C4.89453 9.97266 4.68359 10.5117 4.68359 11.5195V12.1641L4.13281 12.2461C2.92578 12.4219 1.83594 13.2305 1.28516 14.3555L0.992188 14.9414V30.9375V46.9336L1.26172 47.4609C1.67188 48.3047 2.14062 48.7969 2.92578 49.207C3.53516 49.5352 3.81641 49.6055 4.63672 49.6641L5.62109 49.7227V51.293C5.62109 52.8047 5.63281 52.875 5.91406 53.1445L6.19531 53.4375H11.2461H16.2969L16.5781 53.1445C16.8594 52.875 16.8711 52.8047 16.8711 51.2695V49.6875H20.1406H23.4219L23.457 53.0039C23.4922 56.1563 23.5039 56.332 23.7617 56.8359C24.1719 57.6797 24.6406 58.1719 25.4492 58.6055L26.1875 59.0039H41.2461H56.3047L57.043 58.6055C57.8633 58.1602 58.2148 57.7969 58.6836 56.9063L59 56.3086V47.8125V39.3164L58.6016 38.5781C57.8984 37.2891 56.9141 36.6914 55.3438 36.5859L54.3711 36.5273L54.3477 25.7344L54.3125 14.9414L53.9141 14.2031C53.3164 13.0898 52.3789 12.4219 51.1719 12.2461L50.6211 12.1641V11.5195C50.6211 10.5117 50.4102 9.97266 49.7422 9.31641C49.0039 8.56641 48.5703 8.4375 46.8711 8.4375C45.1719 8.4375 44.7383 8.56641 44 9.31641C43.332 9.97266 43.1211 10.5117 43.1211 11.5313V12.1875H42.1836H41.2461V10.6055C41.2461 9.07032 41.2344 9 40.9531 8.73047C40.7188 8.4961 40.5547 8.4375 40.0391 8.4375H39.4062L39.3359 7.28907C39.2422 5.48438 38.6445 4.11329 37.4492 2.89454C36.7227 2.15625 36.0547 1.73438 34.9297 1.30079L34.1562 0.996098L27.9453 0.97266C24.3477 0.960941 21.4883 1.00782 21.1484 1.06641ZM34.707 3.2461C35.7852 3.75 36.4766 4.42969 36.9805 5.46094C37.3438 6.19922 37.4141 6.45704 37.4727 7.3711L37.5312 8.4375H36.5703H35.6211V7.78125C35.6211 6.83204 35.4102 6.26954 34.8359 5.625C33.9805 4.67579 34.0625 4.6875 27.6758 4.6875C23.6562 4.6875 21.9805 4.72266 21.6289 4.82813C20.9844 5.01563 20.0117 5.98829 19.8242 6.63282C19.7422 6.90235 19.6836 7.41797 19.6836 7.78125V8.4375H18.7344H17.7734L17.832 7.39454C17.9023 6.15235 18.3125 5.13282 19.0859 4.30079C19.6016 3.73829 20.668 3.11719 21.3945 2.94141C21.6523 2.88282 24.4766 2.83594 27.8867 2.84766L33.9219 2.8711L34.707 3.2461ZM33.4531 6.85547C33.6992 7.08985 33.7461 7.25391 33.7461 7.79297V8.4375H33.1016C32.5625 8.4375 32.3984 8.48438 32.1641 8.73047C31.8828 9 31.8711 9.07032 31.8711 10.6055V12.1875H27.6523H23.4336V10.6055C23.4336 9.07032 23.4219 9 23.1406 8.73047C22.9062 8.48438 22.7422 8.4375 22.2031 8.4375H21.5586V7.79297C21.5586 7.25391 21.6055 7.08985 21.8516 6.85547L22.1328 6.5625H27.6523H33.1719L33.4531 6.85547ZM10.0156 10.6055C10.2617 10.8398 10.3086 11.0039 10.3086 11.543V12.1875H8.43359H6.55859V11.543C6.55859 11.0039 6.60547 10.8398 6.85156 10.6055C7.12109 10.3242 7.21484 10.3125 8.43359 10.3125C9.65234 10.3125 9.74609 10.3242 10.0156 10.6055ZM21.5586 11.25V12.1875H18.7461H15.9336V11.25V10.3125H18.7461H21.5586V11.25ZM39.3711 11.25V12.1875H36.5586H33.7461V11.25V10.3125H36.5586H39.3711V11.25ZM48.4531 10.6055C48.6992 10.8398 48.7461 11.0039 48.7461 11.543V12.1875H46.8711H44.9961V11.543C44.9961 11.0039 45.043 10.8398 45.2891 10.6055C45.5586 10.3242 45.6523 10.3125 46.8711 10.3125C48.0898 10.3125 48.1836 10.3242 48.4531 10.6055ZM41.2461 15.2578V16.4531L39.8398 17.8711L38.4336 19.3008V22.957V26.6133L38.7266 26.8945L39.0078 27.1875H42.1836H45.3594L45.6406 26.8945L45.9336 26.6133V22.957V19.3008L44.5273 17.8711L43.1211 16.4531V15.2578V14.0508L47.2109 14.0859C51.1367 14.1211 51.3242 14.1328 51.6289 14.3672C51.8047 14.4961 52.0625 14.7539 52.1914 14.9297C52.4375 15.2461 52.4375 15.3516 52.4727 25.9102L52.4961 36.5625H47.5508H42.6055L40.25 34.2188C38.1523 32.1328 37.8477 31.875 37.5078 31.875C37.2617 31.875 37.0391 31.9805 36.8516 32.168C36.5586 32.4492 36.5586 32.4844 36.5586 34.5V36.5508L31.4375 36.5859L26.3047 36.6211L25.6602 36.9258C25.0742 37.207 24.0195 38.1094 24.0195 38.3438C24.0195 38.3906 19.25 38.4375 13.4141 38.4375H2.80859V27.0234C2.80859 19.2188 2.84375 15.4922 2.9375 15.2695C3.10156 14.8359 3.48828 14.4141 3.92188 14.2266C4.21484 14.0977 7.61328 14.0742 22.7656 14.0625H41.2461V15.2578ZM43.1445 19.1836L44.0586 20.0977V20.8242V21.5625H42.1836H40.3086V20.8359V20.0977L41.2109 19.1953C41.7148 18.6914 42.1484 18.2813 42.1836 18.2813C42.207 18.2813 42.6523 18.6914 43.1445 19.1836ZM44.0586 24.375V25.3125H42.1836H40.3086V24.375V23.4375H42.1836H44.0586V24.375ZM48.8516 38.4375C55.8359 38.4961 56 38.4961 56.3164 38.7422C56.4922 38.8711 56.75 39.1289 56.8789 39.3047C57.125 39.6211 57.125 39.7266 57.125 47.8125C57.125 55.8984 57.125 56.0039 56.8789 56.3203C56.75 56.4961 56.4922 56.7539 56.3164 56.8828C56 57.1289 55.9648 57.1289 41.2461 57.1289C26.5273 57.1289 26.4922 57.1289 26.1758 56.8828C26 56.7539 25.7422 56.4961 25.6133 56.3203C25.3672 56.0039 25.3672 55.8984 25.3672 47.8125C25.3672 39.7266 25.3672 39.6211 25.6133 39.3047C25.7422 39.1289 26 38.8711 26.1758 38.7422C26.4922 38.5078 26.668 38.4961 32.2461 38.4375L37.9883 38.3789L38.2109 38.0977C38.3984 37.8633 38.4336 37.6289 38.4336 36.4688V35.0977L40.0742 36.7383L41.7148 38.3789L48.8516 38.4375ZM23.4336 41.25V42.1875H13.1211H2.80859V41.25V40.3125H13.1211H23.4336V41.25ZM23.4336 45.9375V47.8125L13.7188 47.7891C4.10938 47.7539 3.99219 47.7539 3.67578 47.5078C2.97266 46.9922 2.86719 46.7227 2.83203 45.3398L2.78516 44.0625H13.1094H23.4336V45.9375ZM14.9961 50.625V51.5625H11.2461H7.49609V50.625V49.6875H11.2461H14.9961V50.625Z" fill="#271291"/>
<path d="M29.0353 44.6133C28.215 45.4336 27.5353 46.1602 27.547 46.2305C27.5587 46.2891 27.8517 46.6055 28.1916 46.9219L28.8361 47.5078L29.4103 46.9336L29.9962 46.3594V48.4922V50.625H29.0587H28.1212V51.5625V52.5H30.9337H33.7462V51.5625V50.625H32.8087H31.8712V47.168V43.6992L31.5783 43.418C31.4025 43.2305 31.1681 43.125 30.922 43.125C30.5939 43.125 30.3361 43.3242 29.0353 44.6133Z" fill="#271291"/>
<path d="M36.5625 43.2774C35.9883 43.4649 35.0039 44.4727 34.8281 45.0704C34.7344 45.3751 34.6875 46.3829 34.6875 47.8126C34.6875 50.5196 34.7578 50.8243 35.5664 51.6212C36.4219 52.4883 37.3359 52.6993 38.4727 52.3126C39.1406 52.0899 39.9727 51.2227 40.1719 50.5313C40.2656 50.2501 40.3125 49.2188 40.3125 47.8126C40.3125 46.4063 40.2656 45.3751 40.1719 45.0938C39.9727 44.4024 39.1406 43.5352 38.4727 43.3126C37.8516 43.1016 37.1602 43.0899 36.5625 43.2774ZM38.1445 45.293C38.4375 45.5743 38.4375 45.5977 38.4375 47.8126C38.4375 50.0274 38.4375 50.0508 38.1445 50.3321C37.9688 50.5196 37.7227 50.6251 37.5 50.6251C37.2773 50.6251 37.0312 50.5196 36.8555 50.3321C36.5625 50.0508 36.5625 50.0274 36.5625 47.8126C36.5625 45.5977 36.5625 45.5743 36.8555 45.293C37.0312 45.1055 37.2773 45.0001 37.5 45.0001C37.7227 45.0001 37.9688 45.1055 38.1445 45.293Z" fill="#271291"/>
<path d="M42.1797 47.8125V52.5H43.1172H44.0547V50.7422C44.0547 49.7695 44.0781 48.9844 44.1133 48.9844C44.3359 48.9844 44.9102 49.3945 45.25 49.8047C45.7305 50.3672 45.9297 50.9531 45.9297 51.8438V52.5H46.8789H47.8398L47.7812 51.457C47.7109 50.1914 47.2891 49.1953 46.4922 48.3516L45.9648 47.8125L46.4922 47.2734C47.2891 46.4297 47.7109 45.4336 47.7812 44.168L47.8398 43.125H46.8789H45.9297V43.8516C45.9297 44.6836 45.6367 45.4453 45.1328 45.9727C44.8516 46.2773 44.2891 46.6406 44.1133 46.6406C44.0781 46.6406 44.0547 45.8438 44.0547 44.8828V43.125H43.1172H42.1797V47.8125Z" fill="#271291"/>
<path d="M51.5625 43.2773C50.9883 43.4648 50.0039 44.4726 49.8281 45.0703C49.7344 45.375 49.6875 46.3828 49.6875 47.8125C49.6875 50.5195 49.7578 50.8242 50.5664 51.6211C51.7617 52.8281 53.4141 52.8047 54.5273 51.5625C55.1836 50.8359 55.3125 50.3672 55.3125 48.7617C55.3125 47.5312 55.3008 47.4375 55.0195 47.168C54.7617 46.8984 54.6445 46.875 53.6133 46.875H52.5V47.8125V48.75H52.9688H53.4375V49.3945C53.4375 49.9336 53.3906 50.0976 53.1445 50.332C52.7695 50.7187 52.2305 50.7187 51.8555 50.332C51.5625 50.0508 51.5625 50.0273 51.5625 47.8125C51.5625 45.5976 51.5625 45.5742 51.8555 45.293C52.0312 45.1055 52.2773 45 52.5 45C52.8867 45 53.4375 45.4453 53.4375 45.7617C53.4375 45.9023 53.6133 45.9375 54.375 45.9375C55.1602 45.9375 55.3125 45.9023 55.3125 45.75C55.3125 44.8594 54.375 43.6172 53.4727 43.3125C52.8516 43.1015 52.1602 43.0898 51.5625 43.2773Z" fill="#271291"/>
</svg>
