<svg width="14" height="14" viewBox="0 0 14 14" fill="none" xmlns="http://www.w3.org/2000/svg">
<path fill-rule="evenodd" clip-rule="evenodd" d="M0.835131 6.16829C0.899319 6.17019 0.96351 6.17324 1.02654 6.17398L10.6402 6.19862L10.8622 6.19919L7.05063 2.38758L8.22615 1.25612L8.25911 1.25562C8.29641 1.30594 8.33629 1.35429 8.37859 1.40049L13.876 6.8979C13.9148 6.93381 13.9563 6.96677 14 6.99652L8.25501 12.7415L7.14081 11.6273L10.8897 7.87843C10.7965 7.86836 10.7641 7.86019 10.7295 7.8601C6.36381 7.84775 5.26807 7.84552 0.899539 7.8349C0.878088 7.83504 0.856665 7.83634 0.835366 7.83878C0.836247 7.28022 0.833664 6.72396 0.835131 6.16829Z" fill="#271291"/>
</svg>
