<svg width="60" height="60" viewBox="0 0 60 60" fill="none" xmlns="http://www.w3.org/2000/svg">
<path d="M8.15234 4.04297L7.85938 4.32422V16.875V29.4258L8.15234 29.707C8.52734 30.0938 9.06641 30.0938 9.44141 29.707L9.73438 29.4258V23.6133V17.8125H18.5117C23.3398 17.8125 27.3828 17.7773 27.4883 17.7422C27.7227 17.6484 28.0156 17.0977 28.0156 16.7344C28.0156 16.5469 27.1953 15.6562 25.1797 13.6289L22.3438 10.7812L25.1797 7.93359C27.1953 5.90625 28.0156 5.01562 28.0156 4.82812C28.0156 4.46484 27.7227 3.91406 27.4883 3.82031C27.3828 3.78515 23.0469 3.75 17.8672 3.75H8.43359L8.15234 4.04297ZM22.4141 8.0039C20.2695 10.1602 20.0469 10.418 20.0469 10.7812C20.0469 11.1445 20.2695 11.4023 22.4141 13.5586L24.7812 15.9375H17.2578H9.73438V10.7812V5.625H17.2578H24.7812L22.4141 8.0039Z" fill="#271291"/>
<path d="M40.4907 30.164C36.1547 31.0311 32.9672 34.3593 32.3344 38.6952C31.9477 41.3671 33.0024 44.2499 36.0141 48.7499C37.9008 51.5507 41.5571 56.0858 42.0376 56.203C42.5883 56.3437 42.8579 56.1327 44.2055 54.5272C49.1157 48.6679 52.0922 43.5468 52.3501 40.4999C52.6196 37.3124 50.8149 33.6796 48.0141 31.7694C47.229 31.2304 45.6821 30.539 44.768 30.3046C43.7133 30.0351 41.5219 29.9647 40.4907 30.164ZM43.8657 32.039C45.5649 32.3671 46.9946 33.164 48.2602 34.4999C49.6196 35.9296 50.5102 38.1093 50.5102 39.9843C50.5102 42.3632 47.9086 47.0038 43.561 52.3593C42.9282 53.1444 42.354 53.789 42.3071 53.789C42.2602 53.789 41.686 53.1444 41.0532 52.3476C37.8071 48.3515 35.4282 44.6132 34.5141 42.0702C33.8696 40.2655 34.0336 38.414 34.9946 36.4452C35.4516 35.5194 35.7211 35.1562 36.5532 34.3241C37.3852 33.4921 37.7485 33.2226 38.6743 32.7655C40.3852 31.9218 42.0376 31.6991 43.8657 32.039Z" fill="#271291"/>
<path d="M40.7721 34.0312C37.069 35.0625 35.6276 39.7852 38.0885 42.8906C38.9674 43.9922 40.7018 44.7656 42.2955 44.7656C45.7408 44.7656 48.1197 42 47.6862 38.4961C47.4166 36.3398 45.8815 34.5938 43.7721 34.0312C43.0455 33.832 41.4869 33.8438 40.7721 34.0312ZM43.8893 36.0586C46.0807 37.1953 46.5494 40.1602 44.8151 41.8711C44.1237 42.5508 43.5494 42.8086 42.5416 42.8672C41.4166 42.9258 40.5729 42.6328 39.858 41.9297C38.358 40.4648 38.358 38.168 39.858 36.7031C40.5846 35.9883 41.3229 35.7305 42.483 35.7773C43.1393 35.8125 43.5612 35.8945 43.8893 36.0586Z" fill="#271291"/>
<path d="M8.11291 31.957C7.86682 32.0508 7.59729 32.6953 7.6676 33C7.71448 33.1523 7.8551 33.3867 7.99573 33.5156C8.24182 33.75 8.38244 33.75 15.2965 33.75C22.8199 33.75 23.0192 33.7617 24.1559 34.3477C24.859 34.6992 25.6442 35.4727 25.9957 36.1523C26.3004 36.7148 26.3121 36.8086 26.3473 39.0234C26.3824 41.1211 26.3707 41.3672 26.1363 41.9766C25.5153 43.6523 23.5934 44.7656 21.3199 44.7656C20.6168 44.7656 19.1754 45.1406 18.3434 45.5391C17.3473 46.0078 16.2574 47.0859 15.7653 48.0938C14.1012 51.5156 16.1637 55.2422 20.1832 56.0625C20.9567 56.2266 22.3512 56.25 29.9801 56.25C38.7457 56.25 38.8746 56.25 39.1207 56.0156C39.5895 55.5703 39.5543 54.9258 39.0387 54.5273C38.8981 54.4102 36.7887 54.3867 30.0504 54.375C24.7067 54.375 21.0035 54.3281 20.6285 54.2578C18.5074 53.8594 17.0778 52.3359 17.066 50.4961C17.066 49.8516 17.1364 49.582 17.4528 48.9375C18.1559 47.4961 19.3629 46.8281 21.6129 46.6289C22.3278 46.5703 23.2184 46.4414 23.6051 46.3477C25.7613 45.7969 27.6598 43.9453 28.1168 41.9414C28.316 41.0977 28.2809 37.1953 28.0699 36.3867C27.5192 34.2773 25.5973 32.543 23.2535 32.0508C22.5973 31.9102 21.1324 31.875 15.3551 31.8867C11.4528 31.8867 8.19494 31.9219 8.11291 31.957Z" fill="#271291"/>
</svg>
