<svg width="60" height="60" viewBox="0 0 60 60" fill="none" xmlns="http://www.w3.org/2000/svg">
<path d="M21.9727 5.74219C17.6133 6.23438 13.4648 7.89844 10.0195 10.5352C8.96484 11.332 6.86719 13.418 6.03516 14.4727C-0.761719 23.1797 -0.761719 34.9688 6.03516 43.6523C6.87891 44.7305 8.98828 46.8164 10.0195 47.6016C14.1797 50.7539 19.2539 52.5 24.293 52.5C32.4258 52.5 40.0078 48.293 44.2852 41.3906C44.9297 40.3594 45.6797 38.8828 45.9961 38.0625L46.207 37.5H50.4492C54.3281 37.5 54.7266 37.4766 54.9492 37.2891C55.1484 37.1367 55.6289 35.5898 57.1289 30.3281C58.1953 26.6016 59.0625 23.4609 59.0625 23.332C59.0625 23.2148 58.957 22.9922 58.8398 22.8398L58.6172 22.5586L52.7344 22.5L46.8516 22.4414L46.3945 21.1523C43.582 13.1602 36.5508 7.33594 28.0078 5.91797C26.6719 5.69531 23.2734 5.60156 21.9727 5.74219ZM27.7734 7.76953C30.9727 8.32031 33.8086 9.45703 36.457 11.2383C40.0898 13.6758 42.8906 17.2031 44.4844 21.3516C44.707 21.9141 44.8828 22.4062 44.8828 22.4414C44.8828 22.4766 44.4375 22.5 43.8984 22.5H42.9258L42.7148 21.9375C42.3516 20.9883 41.3672 19.0898 40.7461 18.1641C34.9688 9.53906 23.6367 6.85547 14.6133 11.9766C9.62109 14.8125 6.17578 19.6523 5.01562 25.4531C4.62891 27.375 4.62891 30.7734 5.01562 32.6719C5.85938 36.8672 7.80469 40.4414 10.7578 43.2656C18.3984 50.5664 30.3633 50.5547 38.0039 43.2539C39.4219 41.8945 41.1562 39.5742 41.8242 38.1094L42.1055 37.5H43.1484C43.7109 37.5 44.1797 37.5234 44.1797 37.5586C44.1797 37.5938 43.9219 38.1445 43.6055 38.7773C40.3359 45.2695 33.9258 49.6875 26.5781 50.4961C21.4102 51.0703 15.9023 49.5703 11.6484 46.4531C7.125 43.1367 4.125 38.2852 3.09375 32.6367C2.78906 30.9844 2.78906 27.1406 3.09375 25.4883C4.34766 18.5625 8.55469 12.8906 14.7305 9.79688C16.9453 8.68359 19.4766 7.93359 22.0312 7.61719C23.2266 7.47656 26.5547 7.57031 27.7734 7.76953ZM23.3906 14.9648C23.3555 15.0469 23.1445 15.1172 22.9102 15.1172C21.8555 15.1172 19.5234 15.7852 18.1055 16.5C15.457 17.8242 13.1602 20.1094 11.8359 22.7344C9.98438 26.4023 9.83203 30.7852 11.4258 34.5C11.8945 35.5781 12.7852 37.0898 13.3359 37.7344C13.5352 37.9805 13.7109 38.2266 13.7109 38.2852C13.7109 38.332 13.1367 38.9648 12.4219 39.668L11.1328 40.9453L10.7812 40.5469C9.53906 39.0938 8.13281 36.6094 7.51172 34.7344C6.83203 32.707 6.63281 31.4531 6.63281 29.1211C6.63281 26.0859 7.06641 24.0586 8.27344 21.457C9.70312 18.3984 12.4336 15.4219 15.3867 13.6875C17.3672 12.5273 20.2266 11.5898 22.3477 11.4023L23.3789 11.3086L23.4141 13.0664C23.4258 14.0273 23.4141 14.8828 23.3906 14.9648ZM27.5391 11.5664C28.8867 11.7891 30.7031 12.3633 32.0742 13.0078C33.1641 13.5117 35.0273 14.707 35.8008 15.3867L36.2695 15.8086L35.1914 16.8984C34.5938 17.4961 34.1016 18.0469 34.1016 18.1055C34.1016 18.2344 34.9688 19.1016 35.2617 19.2773C35.3672 19.3359 35.7422 19.0312 36.5039 18.2812C37.1016 17.6836 37.6406 17.2266 37.7109 17.2734C38.1914 17.5664 40.0547 20.4258 40.6055 21.7266L40.9336 22.5L40.6758 22.6992C40.4766 22.8633 40.0078 24.3633 38.4961 29.6719C37.4297 33.3984 36.5625 36.5508 36.5625 36.6797C36.5625 36.8203 36.6914 37.0547 36.8555 37.207C37.125 37.4883 37.207 37.5 38.6016 37.5H40.0664L39.7148 38.1211C39.293 38.8242 37.7461 40.8984 37.6289 40.8984C37.5938 40.8984 37.0781 40.418 36.5039 39.8438C35.9297 39.2578 35.4023 38.7891 35.3438 38.7891C35.1797 38.7891 34.1016 39.8555 34.1016 40.0078C34.1016 40.0781 34.5938 40.6289 35.1914 41.2266L36.2695 42.3164L35.8008 42.7266C35.0156 43.3945 33.3164 44.4961 32.1797 45.0469C30.3633 45.9375 27.9727 46.6172 25.9922 46.793L25.3125 46.8633V44.9883V43.125H24.375H23.4375V44.9766V46.8281L22.5703 46.7461C19.0078 46.4062 15.4688 44.8594 12.5977 42.3984C12.5391 42.3398 15.0938 39.6914 18.9023 35.8828L25.3125 29.4727V20.3555V11.25L25.875 11.3203C26.1797 11.3555 26.9297 11.4609 27.5391 11.5664ZM19.3125 32.7773C17.0391 35.0508 15.1523 36.9141 15.1172 36.9141C14.9766 36.9141 14.1211 35.6484 13.6289 34.7344C12.082 31.8164 11.7773 28.4414 12.7969 25.3125C13.1016 24.3633 13.9102 22.7344 14.4609 21.9844C15.0117 21.1992 16.3125 19.8984 17.168 19.2422C18.5391 18.2109 20.9414 17.2383 22.6875 17.0156L23.3789 16.9336L23.4141 22.793L23.4375 28.6523L19.3125 32.7773ZM50.9414 26.543C48.9023 27.7383 47.1797 28.7109 47.1211 28.7109C47.0391 28.7109 44.2266 25.5117 43.4883 24.5742C43.3359 24.3867 43.6289 24.375 48.9961 24.375H54.6562L50.9414 26.543ZM43.8398 27.9141C46.3008 30.7969 46.4297 30.9375 46.8281 30.9375C47.0625 30.9375 52.7227 27.75 56.2148 25.6406C56.4727 25.4883 56.5781 25.4648 56.543 25.5703C56.5195 25.6523 55.957 27.5977 55.3125 29.8828C54.6562 32.168 54.0234 34.3945 53.8945 34.8281L53.6602 35.625H46.2305C42.1406 35.625 38.7891 35.5898 38.7891 35.543C38.7891 35.4141 41.6484 25.4297 41.6836 25.4297C41.6953 25.4297 42.668 26.5547 43.8398 27.9141Z" fill="#271291"/>
<path d="M29.0625 26.25V27.1875H33.2812H37.5V26.25V25.3125H33.2812H29.0625V26.25Z" fill="#271291"/>
<path d="M27.1875 30V30.9375H30.4688H33.75V30V29.0625H30.4688H27.1875V30Z" fill="#271291"/>
<path d="M35.625 30V30.9375H36.5625H37.5V30V29.0625H36.5625H35.625V30Z" fill="#271291"/>
<path d="M29.0625 33.75V34.6875H32.3438H35.625V33.75V32.8125H32.3438H29.0625V33.75Z" fill="#271291"/>
</svg>
