<svg width="20" height="20" viewBox="0 0 20 20" fill="none" xmlns="http://www.w3.org/2000/svg">
<g clip-path="url(#clip0_415_5891)">
<path d="M2.47654 0.0916214C1.32099 0.339638 0.323457 1.35154 0.0814815 2.51722C-0.0271605 3.03805 -0.0271605 16.0341 0.0814815 16.5549C0.269136 17.4577 0.916049 18.296 1.74074 18.7027C2.4963 19.0797 2.06667 19.0599 9.48889 19.0599C16.9062 19.0599 16.4914 19.0748 17.242 18.7077C18.0519 18.3059 18.7136 17.4428 18.8963 16.5549C19.0099 16.0192 19.0049 9.41702 18.8914 9.14916C18.7284 8.7573 18.3481 8.4944 17.9333 8.4944C17.4988 8.4944 17.1827 8.68289 16.9802 9.06484C16.8716 9.26325 16.8716 9.29797 16.8469 12.7652L16.8222 16.2672L16.6889 16.4607C16.6148 16.5648 16.4716 16.7087 16.3679 16.7781L16.1852 16.9021H9.48889H2.79259L2.60988 16.7781C2.50617 16.7087 2.36296 16.5648 2.28889 16.4607L2.15556 16.2672V9.53111V2.79996L2.3037 2.58666C2.38765 2.47257 2.55062 2.32376 2.66914 2.25928L2.88642 2.14519H8.31358C12.3086 2.14519 13.8 2.13031 13.9728 2.08567C14.2988 2.0063 14.6395 1.65412 14.7185 1.32178C14.837 0.835669 14.6198 0.364439 14.1753 0.141226L13.9136 0.0122566L8.35802 0.0172176C3.79506 0.0172176 2.73827 0.0320988 2.47654 0.0916214Z" fill="#271291"/>
<path d="M18.6543 1.12841C18.5456 1.16809 18.4469 1.20281 18.4321 1.20281C18.4173 1.20281 16.4024 3.2167 13.9531 5.67702L9.49379 10.1562L8.21972 8.88139C7.52342 8.18198 6.87157 7.57186 6.77775 7.52226C6.41725 7.33377 5.84935 7.44289 5.55799 7.76035C5.29133 8.04309 5.21725 8.58873 5.39009 8.93099C5.44441 9.0302 6.2691 9.89825 7.23207 10.8606C9.04935 12.676 9.08886 12.7108 9.49379 12.7108C9.91849 12.7108 9.73577 12.8844 14.9407 7.66115C18.916 3.66809 19.879 2.67603 19.9432 2.50738C20.0617 2.19488 20.0173 1.79805 19.8345 1.53516C19.5679 1.15321 19.0543 0.97464 18.6543 1.12841Z" fill="#271291"/>
</g>
<defs>
<clipPath id="clip0_415_5891">
<rect width="20" height="20" fill="white"/>
</clipPath>
</defs>
</svg>
