<svg width="17" height="17" viewBox="0 0 17 17" fill="none" xmlns="http://www.w3.org/2000/svg">
<g clip-path="url(#clip0_412_5665)">
<path d="M2.10506 0.026473C1.12284 0.234807 0.274938 1.08481 0.0692593 2.06397C-0.0230864 2.50147 -0.0230864 13.4181 0.0692593 13.8556C0.228765 14.614 0.778642 15.3181 1.47963 15.6598C2.12185 15.9765 1.75667 15.9598 8.06556 15.9598C14.3702 15.9598 14.0177 15.9723 14.6557 15.664C15.3441 15.3265 15.9065 14.6015 16.0619 13.8556C16.1584 13.4056 16.1542 7.85981 16.0577 7.63481C15.9191 7.30564 15.5959 7.08481 15.2433 7.08481C14.874 7.08481 14.6053 7.24314 14.4332 7.56398C14.3409 7.73064 14.3409 7.75981 14.3199 10.6723L14.2989 13.614L14.1856 13.7765C14.1226 13.864 14.0009 13.9848 13.9127 14.0431L13.7574 14.1473H8.06556H2.3737L2.21839 14.0431C2.13025 13.9848 2.00852 13.864 1.94556 13.7765L1.83222 13.614V7.95564V2.30147L1.95815 2.12231C2.02951 2.02647 2.16802 1.90147 2.26877 1.84731L2.45346 1.75147H7.06654C10.4623 1.75147 11.73 1.73897 11.8769 1.70147C12.154 1.63481 12.4436 1.33897 12.5107 1.05981C12.6115 0.651474 12.4268 0.25564 12.049 0.06814L11.8265 -0.0401936L7.10432 -0.036027C3.2258 -0.036027 2.32753 -0.0235262 2.10506 0.026473Z" fill="#E20613"/>
<path d="M15.8538 0.89722C15.7615 0.930552 15.6775 0.95972 15.6649 0.95972C15.6523 0.95972 13.9397 2.65139 11.8578 4.71805L8.06738 8.48055L6.98442 7.40972C6.39257 6.82222 5.83849 6.30972 5.75874 6.26805C5.45232 6.10972 4.9696 6.20139 4.72195 6.46805C4.49528 6.70555 4.43232 7.16389 4.57923 7.45139C4.62541 7.53472 5.32639 8.26389 6.14491 9.07222C7.6896 10.5972 7.72318 10.6264 8.06738 10.6264C8.42837 10.6264 8.27306 10.7722 12.6973 6.38472C16.0763 3.03055 16.8948 2.19722 16.9494 2.05555C17.0501 1.79305 17.0123 1.45972 16.857 1.23889C16.6303 0.918053 16.1938 0.768053 15.8538 0.89722Z" fill="#E20613"/>
</g>
<defs>
<clipPath id="clip0_412_5665">
<rect width="17" height="17" fill="white"/>
</clipPath>
</defs>
</svg>
