<svg width="20" height="20" viewBox="0 0 20 20" fill="none" xmlns="http://www.w3.org/2000/svg">
<path fill-rule="evenodd" clip-rule="evenodd" d="M1.18222 8.73208C1.27309 8.73477 1.36396 8.7391 1.45318 8.74014L15.0624 8.77503L15.3767 8.77583L9.98097 3.38006L11.6451 1.77834L11.6917 1.77764C11.7445 1.84887 11.801 1.91732 11.8609 1.98271L19.6431 9.76493C19.6981 9.81576 19.7567 9.86243 19.8186 9.90454L11.6859 18.0372L10.1086 16.4599L15.4156 11.153C15.2838 11.1387 15.2379 11.1272 15.1888 11.127C9.00871 11.1096 7.45755 11.1064 1.2734 11.0914C1.24303 11.0916 1.21271 11.0934 1.18256 11.0969C1.1838 10.3062 1.18015 9.5187 1.18222 8.73208Z" fill="#271291"/>
</svg>
