<svg width="63" height="34" viewBox="0 0 63 34" fill="none" xmlns="http://www.w3.org/2000/svg">
<g clip-path="url(#clip0_218_923)">
<path d="M54.0436 33.8597C54.2289 33.7254 54.2295 33.6959 54.056 33.1786C53.9563 32.8813 53.7899 32.5342 53.6863 32.4074C53.5222 32.2067 53.5162 32.1419 53.6396 31.9062C53.7176 31.7573 53.8298 31.6296 53.8889 31.6223C53.9481 31.6151 54.0864 31.6033 54.1963 31.5961C54.4378 31.5802 54.557 31.2044 54.408 30.9287C54.3314 30.7869 54.3377 30.6839 54.4295 30.5743C54.5609 30.4174 54.5571 30.4023 54.2069 29.6686C54.1028 29.4507 54.0998 29.3484 54.194 29.2359C54.2894 29.122 54.281 29.0588 54.1569 28.9568C54.0687 28.8842 53.9965 28.7124 53.9965 28.575C53.9965 28.4376 53.9602 28.3252 53.9159 28.3252C53.8234 28.3252 53.5184 28.766 53.5446 28.8618C53.5542 28.8969 53.4437 28.9883 53.299 29.065C53.1544 29.1417 53.0082 29.314 52.9743 29.4479C52.9404 29.5818 52.8735 29.6913 52.8256 29.6913C52.7778 29.6913 52.6699 29.7595 52.5858 29.8427C52.363 30.0634 52.0313 29.9328 51.8179 29.5403C51.6853 29.2964 51.552 29.1942 51.3554 29.1858C51.2035 29.1793 50.898 29.1564 50.6765 29.1351C50.4551 29.1137 50.2512 29.1326 50.2234 29.1771C50.1491 29.2963 49.7651 29.1999 49.4598 28.9855C49.0818 28.7201 48.9852 28.6653 48.7453 28.581C48.5438 28.5102 48.5456 28.5031 48.7813 28.4413L49.0295 28.3762L48.7548 28.0825C48.6037 27.921 48.4801 27.744 48.4801 27.6892C48.4801 27.6344 48.4302 27.5895 48.3693 27.5895C48.3084 27.5895 48.1294 27.469 47.9715 27.3217C47.7028 27.071 47.6334 27.0573 46.8888 27.1085C45.7478 27.1868 45.6159 27.2094 45.6144 27.3268C45.6137 27.3846 45.4466 27.5387 45.2431 27.6693C44.8225 27.9392 44.7794 28.1115 45.0853 28.3008C45.3226 28.4475 45.3738 28.9432 45.1723 29.1427C45.1033 29.2111 45.0425 29.5856 45.0368 29.9782C45.0276 30.6047 44.9911 30.7269 44.7305 31.0016L44.4346 31.3135L43.9659 31.1465C43.5814 31.0096 43.4638 31.0037 43.3119 31.1137C43.1607 31.2233 43.0738 31.2208 42.8387 31.1004C42.5798 30.9677 42.5125 30.9751 42.173 31.1736C41.9652 31.295 41.7677 31.5032 41.734 31.6362C41.6907 31.8069 41.5702 31.8972 41.3249 31.9428C41.1336 31.9783 40.8926 32.0999 40.7893 32.2131C40.6859 32.3262 40.5524 32.3887 40.4924 32.352C40.4325 32.3153 40.1088 32.2951 39.773 32.3071C39.2653 32.3253 39.1263 32.2904 38.9471 32.0998C38.8069 31.9507 38.6551 31.8906 38.5124 31.9275C38.3648 31.9658 38.2576 31.9187 38.1847 31.7836C38.049 31.5325 37.2983 31.508 36.8493 31.7399C36.6822 31.8263 36.4572 31.8972 36.3493 31.8976C36.127 31.8983 35.5376 31.3203 35.5376 31.1016C35.5376 30.9454 35.0129 30.6371 34.7469 30.6371C34.4842 30.6371 33.7969 30.234 33.7165 30.0327C33.6568 29.8834 33.6416 29.8953 33.6356 30.0965C33.6315 30.2327 33.5088 30.4846 33.3629 30.6563C33.087 30.9811 33.0147 31.4587 33.212 31.6541C33.2936 31.735 33.2477 31.8452 33.051 32.04C32.8277 32.2612 32.7111 32.3005 32.4328 32.2482C32.2442 32.2129 32.0323 32.1392 31.9619 32.0846C31.8915 32.0299 31.7905 32.0118 31.7374 32.0443C31.6279 32.1113 31.3606 31.8357 31.258 31.55C31.2071 31.4081 31.1011 31.3678 30.8441 31.3923C30.6541 31.4105 30.4508 31.3686 30.3925 31.2992C30.3112 31.2025 30.1501 31.2244 29.7029 31.3929C29.382 31.5138 28.9837 31.6075 28.8177 31.6013C28.6015 31.5931 28.5319 31.6311 28.5723 31.7353C28.6354 31.898 28.4693 31.9817 27.9086 32.0695C27.6994 32.1023 27.4953 32.1492 27.4551 32.1736C27.4148 32.198 27.2716 32.1019 27.1368 31.9599C26.9893 31.8046 26.7451 31.6886 26.5237 31.6686C26.211 31.6405 26.141 31.5843 26.0575 31.2939C26.0035 31.1061 25.8946 30.9524 25.8155 30.9524C25.7263 30.9524 25.6717 30.8321 25.6717 30.6354C25.6717 30.3765 25.6035 30.2863 25.2993 30.1426C25.0339 30.0172 24.8942 29.9991 24.813 30.0796C24.6333 30.2576 24.2988 30.113 24.1265 29.7831C23.9603 29.4646 23.6561 29.3713 23.6561 29.6388C23.6561 29.7255 23.5845 29.7964 23.497 29.7964C23.3723 29.7964 23.3378 29.6526 23.3378 29.1324C23.3378 28.7672 23.263 28.2187 23.1715 27.9135C23.08 27.6083 23.0272 27.3367 23.0543 27.31C23.0813 27.2832 22.9891 27.1391 22.8493 26.9897C22.5347 26.6534 22.5326 26.5831 22.8339 26.4873C23.0414 26.4214 23.0179 26.4009 22.6539 26.3306C22.3523 26.2723 22.1949 26.2897 22.0909 26.3926C21.9459 26.5363 21.5424 26.5308 21.1807 26.3802C21.0288 26.317 21.017 26.2803 21.1271 26.2129C21.2378 26.1451 21.2226 26.0925 21.0565 25.9681C20.9401 25.881 20.7866 25.8082 20.7155 25.8064C20.6444 25.8045 20.6137 25.7321 20.6473 25.6454C20.692 25.5301 20.6341 25.4877 20.4318 25.4877C20.1676 25.4877 20.0621 25.2998 20.232 25.1315C20.2741 25.0897 20.3192 24.8927 20.332 24.6937C20.3511 24.3974 20.318 24.3318 20.1492 24.3318C20.0359 24.3318 19.8502 24.2397 19.7367 24.1273C19.5715 23.9637 19.4663 23.941 19.2101 24.0138C18.8606 24.1131 17.91 23.9456 16.8136 23.5915C16.4635 23.4784 16.1092 23.3859 16.0263 23.3859C15.9434 23.3859 15.7912 23.3104 15.6882 23.218C15.5852 23.1257 15.4558 23.0777 15.4008 23.1114C15.2375 23.2113 15.1782 23.7412 15.3113 23.9114C15.4176 24.0474 15.4098 24.0499 15.2547 23.9296C14.9721 23.7105 14.5806 23.8115 14.6111 24.0956C14.6396 24.3625 14.3533 24.4234 14.1187 24.2004C14.0059 24.0931 13.9913 24.146 14.039 24.4894C14.1666 25.4086 14.1655 25.4278 13.981 25.4649C13.8817 25.4849 13.6972 25.3835 13.571 25.2397C13.4447 25.0958 13.283 25.0004 13.2115 25.0275C13.0426 25.0918 12.8653 24.8729 12.819 24.543C12.7965 24.3824 12.7008 24.2659 12.5713 24.2415C12.4552 24.2195 12.2951 24.1095 12.2155 23.9969C12.1342 23.8819 12.0021 23.8183 11.9142 23.8517C11.8281 23.8844 11.6421 23.8825 11.5009 23.8474C11.3048 23.7986 11.2441 23.7131 11.2441 23.4858C11.2441 23.1219 11.0836 23.0002 10.9362 23.2524C10.8534 23.394 10.8358 23.3184 10.8626 22.9356C10.8912 22.5271 10.8599 22.4126 10.6963 22.3258C10.5854 22.2671 10.5019 22.1623 10.5107 22.0931C10.5499 21.7839 10.4888 21.6931 10.2628 21.7242C10.0845 21.7487 10.0157 21.6983 9.99074 21.5246C9.96107 21.3179 9.9112 21.2986 9.53988 21.3501C9.29477 21.384 9.12238 21.3648 9.12238 21.3035C9.12238 21.246 8.9195 21.2091 8.67152 21.2215C8.30306 21.2399 8.21468 21.2845 8.18793 21.4654C8.16994 21.5871 8.08459 21.7136 7.99827 21.7464C7.82494 21.8123 7.68968 21.5741 7.77515 21.3534C7.87816 21.0875 7.69742 20.9809 7.24559 21.0409C6.90233 21.0865 6.79177 21.1519 6.7449 21.3369C6.68312 21.5807 6.25808 21.7809 6.25808 21.5662C6.25808 21.501 6.18233 21.5547 6.08974 21.6856C5.9614 21.8672 5.9502 21.9581 6.04258 22.0684C6.13644 22.1804 6.12058 22.2371 5.97223 22.3197C5.79226 22.42 5.79566 22.4404 6.02847 22.656C6.19758 22.8126 6.25698 22.9566 6.21557 23.1094C6.18219 23.2326 6.15424 23.3925 6.15344 23.4648C6.15265 23.537 6.08039 23.5961 5.99287 23.5961C5.80115 23.5961 5.77997 23.9712 5.96528 24.0846C6.26088 24.2656 5.55392 24.2888 5.12977 24.112C4.7458 23.952 4.65547 23.9474 4.40631 24.0755C4.24972 24.1559 4.08912 24.2173 4.04942 24.2118C3.71033 24.1648 3.60399 24.2451 3.62602 24.5315C3.63891 24.6991 3.58885 24.9086 3.51477 24.997C3.40304 25.1304 3.41504 25.1764 3.58515 25.2665C3.69794 25.3263 3.82037 25.3454 3.85721 25.3089C3.89406 25.2724 3.9242 25.2977 3.9242 25.3651C3.9242 25.4377 3.75445 25.4877 3.50829 25.4877C3.0575 25.4877 3.08481 25.4435 2.90821 26.4598C2.85646 26.7576 2.78909 26.8539 2.6324 26.8539C2.19055 26.8539 2.01466 26.6601 2.01466 26.1733C2.01466 25.9187 1.96382 25.6792 1.90169 25.6412C1.83955 25.6031 1.79687 25.4466 1.80684 25.2934C1.8542 24.5659 1.80262 24.3851 1.49891 24.214C1.2497 24.0736 1.1865 23.9544 1.13872 23.5344C1.10684 23.2542 1.02733 23.0074 0.962013 22.9858C0.802574 22.9332 0.529469 22.3966 0.529469 22.1361C0.529469 22.0209 0.439127 21.8639 0.328708 21.7873C0.157064 21.6682 0.118668 21.4609 0.0639733 20.3577L0 19.0675L0.256169 19.3413C0.481972 19.5826 0.538504 19.5989 0.733074 19.4785C0.910429 19.3688 0.995509 19.3678 1.16598 19.4732C1.35647 19.5911 1.37815 19.5782 1.37815 19.3471C1.37815 19.2055 1.42589 19.0605 1.48424 19.0247C1.54258 18.989 1.5907 18.998 1.59115 19.0448C1.59198 19.1299 2.08805 19.3925 2.24798 19.3925C2.40819 19.3925 2.33296 19.0877 2.14727 18.9845C1.98321 18.8932 1.98108 18.8738 2.12898 18.8173C2.33765 18.7376 2.86335 18.9269 2.86335 19.0818C2.86335 19.2351 3.31466 19.094 3.42557 18.9059C3.47223 18.8267 3.57964 18.762 3.66426 18.762C3.74888 18.762 3.81812 18.7202 3.81812 18.6692C3.81812 18.6181 3.91359 18.5516 4.03029 18.5214C4.29226 18.4535 4.31942 17.9123 4.08336 17.464C3.99658 17.2991 3.95314 17.0555 3.98683 16.9225C4.03819 16.7198 3.99735 16.6698 3.7337 16.6124C3.46268 16.5534 3.42277 16.5007 3.44426 16.23C3.45798 16.0573 3.57158 15.8215 3.6967 15.706C3.96831 15.4553 3.97303 15.4099 3.75887 15.107C3.60273 14.8862 3.60846 14.8675 3.86199 14.7721C4.02111 14.7121 4.15976 14.5552 4.20242 14.3869C4.26293 14.148 4.21112 14.0453 3.87729 13.7423L3.48018 13.3817L3.77508 13.0768C4.12393 12.7161 4.19921 12.7018 4.2732 12.9821C4.31388 13.1362 4.4179 13.1923 4.66313 13.1923C4.88055 13.1923 4.97219 13.1516 4.92502 13.076C4.82328 12.9129 5.08648 12.1354 5.33867 11.8542C5.45437 11.7251 5.63697 11.5919 5.74443 11.5581C5.94798 11.4941 6.01971 11.0467 5.8437 10.9389C5.79083 10.9066 5.77112 10.7909 5.7999 10.6819C5.82868 10.5728 5.80032 10.4519 5.73689 10.413C5.56467 10.3076 5.59773 10.0396 5.78297 10.0396C5.87174 10.0396 5.99875 9.92134 6.06521 9.77685C6.13167 9.63235 6.25 9.51412 6.32815 9.51412C6.4063 9.51412 6.47025 9.4685 6.47025 9.41273C6.47025 9.35696 6.57297 9.25688 6.69851 9.19033C6.89293 9.08725 6.91701 9.09449 6.86096 9.23917C6.77322 9.46568 6.9531 9.45619 7.12727 9.22512C7.20351 9.12398 7.4949 8.93435 7.7748 8.80373C8.32788 8.54562 8.59057 8.59338 8.80543 8.99108C8.99573 9.34332 9.12991 9.22994 9.05704 8.77849C9.00989 8.48644 9.02761 8.35814 9.11509 8.35814C9.18433 8.35814 9.20833 8.30578 9.1684 8.24179C9.12104 8.16587 9.16495 8.147 9.29475 8.18747C9.7165 8.31897 10.6566 8.46323 11.0919 8.46323C11.5469 8.46323 11.944 8.22943 11.8217 8.03346C11.7085 7.85211 11.8891 7.53096 12.1243 7.49531C12.2528 7.47583 12.3461 7.4019 12.3315 7.33102C12.3169 7.26014 12.4004 7.20215 12.5171 7.20215C12.6481 7.20215 12.7296 7.13182 12.7301 7.01825C12.7309 6.84108 13.1577 6.57161 13.4375 6.57161C13.5121 6.57161 13.6571 6.44157 13.7597 6.28262C14.0171 5.88412 14.2218 5.73843 14.5327 5.73263C14.9043 5.72569 15.0257 5.62281 15.1085 5.24457C15.1691 4.96755 15.2404 4.90624 15.562 4.85454C15.8425 4.80945 16.0199 4.847 16.2314 4.99622C16.3897 5.10788 16.5429 5.17585 16.5717 5.14726C16.6006 5.11867 16.6876 5.17096 16.7651 5.26346C16.8573 5.37354 16.8685 5.45611 16.7974 5.50246C16.6549 5.59542 16.5415 6.04617 16.6606 6.04617C16.7115 6.04617 16.8104 6.1522 16.8804 6.2818C17.0368 6.57142 17.0091 8.76601 16.8466 8.96006C16.7854 9.03307 16.5568 9.14578 16.3386 9.21055C16.0119 9.30753 15.8963 9.2987 15.6833 9.16047C15.2955 8.90872 14.9514 7.84448 14.9548 6.90739C14.9559 6.60742 14.7749 6.69982 14.6146 7.081C14.4627 7.4426 14.4556 7.47058 14.4399 7.77306C14.4312 7.94027 14.3441 8.05351 14.188 8.10041C13.7773 8.22378 13.4719 8.57904 13.4719 8.93343C13.4719 9.11409 13.4146 9.31866 13.3446 9.38801C13.2608 9.47101 13.2566 9.51412 13.3322 9.51412C13.3954 9.51412 13.4721 9.6087 13.5026 9.7243C13.5646 9.95897 13.8376 10.0051 13.9695 9.80312C14.0167 9.73087 14.0554 9.55456 14.0554 9.41132C14.0554 9.24876 14.124 9.13746 14.238 9.11518C14.3839 9.08668 14.418 9.15107 14.4073 9.43467C14.3802 10.1487 14.8791 10.5027 15.0856 9.91602C15.1966 9.6004 15.2009 9.59891 15.7892 9.67173C16.147 9.71601 16.4322 9.81364 16.5104 9.91855C16.5827 10.0157 16.5959 10.1076 16.5403 10.1274C16.3738 10.1865 16.547 10.3548 16.7744 10.3548C17.0298 10.3548 17.2535 10.1531 17.3071 9.87451C17.329 9.76101 17.4498 9.65709 17.5817 9.63845C17.7112 9.62013 17.9088 9.48975 18.0208 9.3487C18.1495 9.18654 18.2868 9.11599 18.3942 9.1568C18.5931 9.23241 18.601 9.29885 18.4561 9.67634C18.3745 9.88904 18.3152 9.93008 18.2119 9.84521C17.9728 9.64863 17.6347 9.81995 17.5838 10.1635C17.5229 10.5745 17.7587 10.8171 18.1299 10.7254C18.7928 10.5616 19.6536 10.6357 19.9175 10.8792C20.0497 11.0012 20.1711 11.045 20.209 10.9843C20.2447 10.9271 20.3739 10.8803 20.4962 10.8803C20.7112 10.8803 20.7122 10.8872 20.5284 11.0885C20.369 11.263 20.3607 11.3237 20.4775 11.4631C20.5625 11.5645 20.7073 11.607 20.8486 11.5718C20.9951 11.5354 21.1435 11.5835 21.2523 11.7026C21.3594 11.8198 21.5487 11.8824 21.7536 11.8684C22.0497 11.8481 22.0766 11.8705 22.0206 12.0915C21.9678 12.2999 21.9953 12.3333 22.2017 12.3115C22.5522 12.2745 22.7013 12.1582 22.7013 11.9217C22.7013 11.545 22.9959 11.5787 23.3874 12.0002C23.7587 12.3998 23.9381 12.7378 23.8337 12.8411C23.8041 12.8705 23.8728 12.9866 23.9865 13.0992C24.1001 13.2118 24.2215 13.4443 24.2561 13.6159C24.2908 13.7875 24.3789 13.9279 24.452 13.9279C24.6704 13.9279 24.8456 13.6384 24.77 13.4024C24.731 13.2807 24.7566 13.1139 24.8272 13.0296C24.9174 12.9219 24.92 12.877 24.836 12.877C24.6487 12.877 24.6965 12.568 24.9291 12.2751C25.0458 12.1282 25.1413 11.8961 25.1413 11.7594C25.1413 11.583 25.2014 11.5108 25.3481 11.5108C25.4618 11.5108 25.7823 11.298 26.0602 11.0379C26.3382 10.7778 26.5762 10.565 26.5891 10.565C26.6021 10.565 26.7351 10.6111 26.8848 10.6675C27.2523 10.8059 27.2386 11.1598 26.848 11.6199C26.6239 11.8839 26.5538 12.0583 26.5926 12.2555C26.6257 12.424 26.5818 12.5909 26.4771 12.6946C26.3842 12.7867 26.3082 12.9038 26.3082 12.9548C26.3082 13.0059 26.2118 13.2455 26.0939 13.4872C25.9586 13.7646 25.904 14.0234 25.946 14.189C25.994 14.3786 25.9635 14.47 25.836 14.5185C25.7389 14.5554 25.6852 14.6519 25.7166 14.733C25.7518 14.8239 25.6728 14.9184 25.5105 14.9795C25.3658 15.0341 25.2474 15.1237 25.2474 15.1787C25.2474 15.2337 25.093 15.355 24.9043 15.4482C24.585 15.606 24.5518 15.6051 24.4269 15.4358C24.353 15.3358 24.2926 15.2924 24.2926 15.3394C24.2926 15.3864 24.221 15.366 24.1335 15.2941C24.0371 15.2148 23.9743 15.2064 23.9743 15.2726C23.9743 15.5403 24.1322 15.733 24.4639 15.8703C24.7866 16.0039 24.8687 15.9978 25.2996 15.809C25.923 15.5358 26.3559 15.1306 26.3827 14.7952C26.4108 14.4418 26.5252 14.3417 26.8151 14.4168C27.0863 14.4871 27.2459 14.9327 27.0643 15.1126C26.9163 15.2592 26.9061 15.7144 27.0508 15.7144C27.1092 15.7144 27.2571 15.8137 27.3795 15.935L27.6022 16.1555L27.5232 15.9091C27.4798 15.7736 27.3683 15.6076 27.2755 15.5404C27.122 15.4292 27.1234 15.3998 27.2909 15.2165C27.3922 15.1055 27.4752 14.9125 27.4752 14.7874C27.4752 14.5122 27.0768 14.0336 26.846 14.0314C26.7544 14.0305 26.618 13.9911 26.5428 13.9438C26.3718 13.8363 26.5344 13.3571 26.8581 13.0148C27.0142 12.8497 27.0637 12.6839 27.0334 12.4271C26.9914 12.0707 27.1336 11.8261 27.3828 11.8261C27.4536 11.8261 27.6107 11.7433 27.732 11.6422C27.9468 11.463 27.9483 11.4637 27.7877 11.6685C27.697 11.7841 27.61 12.0317 27.5942 12.2189C27.5708 12.4965 27.6158 12.5818 27.8386 12.6824C27.9888 12.7502 28.1117 12.8453 28.1117 12.8939C28.1117 12.9424 28.1818 12.9821 28.2675 12.9821C28.4674 12.9821 28.3578 12.6664 28.0921 12.4769C27.8591 12.3108 27.8382 12.0363 28.0586 12.0363C28.1461 12.0363 28.2178 12.0836 28.2178 12.1414C28.2178 12.1992 28.2949 12.2465 28.3893 12.2465C28.5064 12.2465 28.5438 12.1822 28.5072 12.0437C28.4681 11.8954 28.5056 11.8448 28.6466 11.8553C28.7527 11.8632 28.8162 11.9072 28.7876 11.953C28.759 11.9988 28.8092 12.0363 28.899 12.0363C28.9889 12.0363 29.0925 12.1549 29.1292 12.2999C29.1697 12.4597 29.2958 12.5884 29.4495 12.6266C29.7584 12.7034 29.7774 12.8332 29.4908 12.9074C29.3459 12.945 29.2786 13.0508 29.2786 13.2412C29.2786 13.4171 29.3216 13.4936 29.3953 13.4485C29.4645 13.4061 29.4554 13.4783 29.3727 13.6262C29.2962 13.7632 29.2487 13.9226 29.2672 13.9804C29.3075 14.106 29.3653 14.3698 29.3766 14.4796C29.3885 14.5953 29.7029 14.576 29.7029 14.4595C29.7029 14.4051 29.657 14.3325 29.6009 14.2982C29.5356 14.2582 29.5356 14.1401 29.6009 13.9699C29.657 13.8237 29.7029 13.5621 29.7029 13.3887C29.7029 13.2153 29.7551 12.9768 29.8189 12.8588C29.9027 12.7036 29.9027 12.6125 29.8189 12.5294C29.7551 12.4663 29.7029 12.3465 29.7029 12.2633C29.7029 12.1801 29.6319 12.0595 29.545 11.9953C29.4317 11.9116 29.4053 11.7699 29.4514 11.4932L29.5157 11.1078L30.2458 11.1254C30.7605 11.1378 30.9759 11.1828 30.9759 11.2781C30.976 11.3774 31.0284 11.3853 31.1743 11.308C31.3245 11.2284 31.3668 11.1012 31.3488 10.7842C31.3327 10.5027 31.3742 10.3469 31.4754 10.3084C31.5582 10.277 31.5995 10.2088 31.5671 10.1569C31.483 10.0222 32.1667 9.7243 32.5601 9.7243C32.7574 9.7243 32.9169 9.66033 32.9532 9.56667C33.0211 9.39144 33.3098 9.3489 33.3098 9.51412C33.3098 9.57192 33.3958 9.61921 33.5009 9.61921C33.7379 9.61921 34.2627 9.3843 34.2638 9.27767C34.2642 9.23432 34.3757 9.19885 34.5115 9.19885C34.7229 9.19885 34.7519 9.15561 34.7136 8.89706C34.6568 8.51381 35.1681 7.97501 35.4044 8.1692C35.5211 8.26519 35.5222 8.30338 35.4101 8.37513C35.2999 8.44566 35.3042 8.48386 35.4316 8.56671C35.5191 8.62362 35.6504 8.67091 35.7233 8.6718C35.7962 8.67268 35.8559 8.76799 35.8559 8.88359C35.8559 9.1293 36.0471 9.16519 36.1358 8.93613C36.2303 8.69205 36.6992 8.74952 37.1031 9.0547C37.3839 9.26687 37.4355 9.35261 37.3253 9.42451C37.2087 9.50063 37.2167 9.54445 37.3676 9.65907C37.6343 9.86152 37.6006 10.0042 37.1829 10.4407C36.9792 10.6536 36.8121 10.8768 36.8116 10.9367C36.8111 10.9966 36.5958 11.2709 36.3333 11.5463C36.0707 11.8216 35.8574 12.1036 35.8593 12.173C35.8612 12.2436 35.9245 12.2182 36.0036 12.1151C36.0811 12.0139 36.2434 11.9312 36.3643 11.9312C36.4936 11.9312 36.613 11.8414 36.654 11.7134C36.6951 11.585 36.7839 11.5185 36.8702 11.5513C36.9508 11.5819 37.0863 11.5381 37.1713 11.4538C37.3722 11.2548 37.7259 11.2573 37.8038 11.4583C37.8374 11.545 37.9169 11.6159 37.9805 11.6159C38.0442 11.6159 38.0699 11.5738 38.0378 11.5223C37.9521 11.385 38.4563 11.0905 38.7771 11.0905C38.9292 11.0905 39.1252 11.1614 39.2127 11.2481C39.4178 11.4512 39.9182 11.4496 40.3185 11.2445C40.5869 11.107 40.6167 11.0525 40.5205 10.8745C40.3646 10.5859 40.4778 10.4561 40.8254 10.525C41.0206 10.5636 41.1655 10.5277 41.2576 10.4177C41.3826 10.2685 41.427 10.274 41.7093 10.4731C41.8901 10.6006 41.9985 10.7555 41.9659 10.8396C41.9335 10.9231 41.976 10.9854 42.0652 10.9854C42.2435 10.9854 42.2737 11.1509 42.1132 11.2492C41.9581 11.3441 42.108 11.5359 42.2848 11.4687C42.3814 11.432 42.4332 11.4855 42.4332 11.6218C42.4332 11.7516 42.5442 11.8764 42.7249 11.9497C43.1384 12.1175 43.449 12.1056 43.4029 11.9238C43.3819 11.8411 43.3485 11.6188 43.3286 11.4297C43.2982 11.141 43.3195 11.1009 43.4613 11.1795C43.705 11.3146 44.0245 11.2025 44.0245 10.9819C44.0245 10.7403 44.2235 10.6726 44.5313 10.8093C44.8364 10.9449 45.1345 10.7275 44.8723 10.5606C44.7407 10.4769 44.7531 10.4493 44.9456 10.397C45.1528 10.3406 45.1642 10.3045 45.0539 10.0554C44.986 9.9022 44.8868 9.74615 44.8333 9.70864C44.7799 9.67112 44.7746 9.55289 44.8215 9.44591C44.8684 9.33893 44.9018 9.2236 44.8957 9.18963C44.8896 9.15566 45.0849 9.02666 45.3298 8.90297C45.7002 8.71583 45.7806 8.70415 45.8092 8.83338C45.8509 9.02211 46.0359 9.04045 46.0507 8.85731C46.0565 8.78506 46.0944 8.84418 46.135 8.98868C46.2494 9.39602 46.4079 9.29919 46.4443 8.79978C46.4712 8.42951 46.525 8.33012 46.7429 8.24806C47.133 8.10112 47.2289 8.12421 47.1573 8.34782C47.0981 8.53252 47.1271 8.54015 47.5392 8.44843C47.7845 8.39383 48.0562 8.37617 48.143 8.40917C48.317 8.47531 48.7983 8.08297 48.7983 7.87498C48.7983 7.80279 48.9219 7.59823 49.073 7.42039C49.3013 7.15157 49.4246 7.09706 49.8042 7.09706C50.1122 7.09706 50.2807 7.14836 50.3219 7.2547C50.4533 7.59406 51.2777 7.33441 51.232 6.96806C51.1961 6.68072 51.3856 6.34072 51.6337 6.24727C51.7769 6.19334 51.9488 6.00526 52.0159 5.8293C52.1026 5.6018 52.1917 5.52334 52.3244 5.55773C52.4271 5.58432 52.5404 5.55911 52.5762 5.5017C52.612 5.44429 52.7297 5.4202 52.8376 5.44817C52.9456 5.47614 53.0893 5.43297 53.1569 5.35223C53.3325 5.14268 53.0947 4.89018 52.7218 4.89018C52.3038 4.89018 52.2598 4.63887 52.6123 4.26502C52.7786 4.08866 52.8928 3.94437 52.8661 3.94437C52.8394 3.94437 52.9038 3.79264 53.0092 3.60719C53.2999 3.09568 53.7104 2.77224 54.6861 2.28577C54.8611 2.19849 55.0848 2.05844 55.1833 1.97454C55.2817 1.89064 55.408 1.85 55.4639 1.88423C55.5198 1.91846 55.5948 1.87089 55.6306 1.77853C55.6701 1.67649 55.7624 1.63596 55.8657 1.67524C55.9917 1.72315 56.0183 1.69493 55.9685 1.56624C55.9091 1.413 55.9763 1.39934 56.5401 1.44999C57.0457 1.4954 57.1791 1.47655 57.1791 1.35971C57.1791 1.27226 57.0709 1.21204 56.9138 1.21204C56.6059 1.21204 56.5856 1.15438 56.8139 0.928263C56.9047 0.838241 56.9549 0.702169 56.9254 0.625881C56.8945 0.546132 56.9708 0.456696 57.1049 0.415465C57.2332 0.376023 57.4695 0.252156 57.6299 0.140205C57.9367 -0.0738333 57.9253 -0.0825992 57.9641 0.397599C57.9699 0.469849 58.0224 0.56443 58.0808 0.60778C58.1474 0.657304 58.1289 0.723529 58.0308 0.785972C57.945 0.840628 57.9001 0.910495 57.9312 0.94123C57.9875 0.997066 58.3817 1.0844 58.644 1.09914C58.7223 1.10355 58.7494 1.16061 58.7062 1.2299C58.6546 1.31257 58.6873 1.33087 58.806 1.28575C58.9212 1.24193 58.9825 1.2722 58.9825 1.37298C58.9825 1.45786 58.9348 1.52731 58.8764 1.52731C58.8181 1.52731 58.7802 1.56278 58.7923 1.60613C58.8044 1.64948 58.6725 1.83161 58.4993 2.01086C58.2447 2.27429 58.1495 2.31503 58.0028 2.22336C57.8602 2.13424 57.7873 2.15448 57.6627 2.31781C57.5754 2.43213 57.5025 2.63207 57.5007 2.76212C57.4981 2.94183 57.4352 2.99857 57.2384 2.99857C57.0959 2.99857 56.9499 2.95128 56.9138 2.89348C56.8163 2.73706 56.6799 2.76615 56.6051 2.95937C56.5231 3.17107 56.8437 3.43127 57.0945 3.3566C57.2248 3.3178 57.3365 3.42192 57.4952 3.73018C57.7361 4.19793 57.6757 4.47295 57.2867 4.6792C57.156 4.74849 57.105 4.85061 57.147 4.95907C57.208 5.11635 57.2232 5.11623 57.3404 4.95747C57.4104 4.86266 57.5698 4.78509 57.6947 4.78509C57.8195 4.78509 57.9217 4.73461 57.9217 4.67292C57.9217 4.54213 58.3638 4.65398 58.4653 4.81047C58.507 4.87471 58.5578 4.8707 58.6021 4.79967C58.6923 4.65517 59.4359 4.67619 59.5346 4.82602C59.6223 4.95924 59.2217 5.41563 59.0171 5.41563C58.8422 5.41563 58.8313 5.59339 59.0027 5.64999C59.0813 5.67593 59.1397 5.98134 59.1574 6.45829C59.173 6.87992 59.2369 7.37836 59.2994 7.56594C59.3619 7.75352 59.4316 8.0026 59.4544 8.11946C59.4771 8.23632 59.5434 8.50335 59.6018 8.71285C59.7025 9.07388 59.6947 9.09376 59.4541 9.09376C59.138 9.09376 58.8821 9.54297 58.8585 10.1392C58.8441 10.5019 58.8191 10.5437 58.6828 10.4323C58.5446 10.3193 58.5317 10.3607 58.584 10.7489C58.6277 11.0741 58.6069 11.1956 58.5074 11.1956C58.2794 11.1956 58.2308 11.6413 58.4292 11.9135C58.5293 12.0508 58.7306 12.3825 58.8764 12.6505C59.1406 13.136 59.5129 13.3652 59.5129 13.0423C59.5129 12.9514 59.5901 12.877 59.6844 12.877C59.8013 12.877 59.839 12.9412 59.8027 13.0788C59.763 13.2291 59.8207 13.3005 60.029 13.3588C60.1828 13.4017 60.3493 13.4275 60.3991 13.416C60.4489 13.4046 60.5802 13.4236 60.6909 13.4584C60.929 13.5333 60.9624 13.8228 60.7329 13.8228C60.6454 13.8228 60.5738 13.911 60.5738 14.0188C60.5738 14.301 60.9776 14.7686 61.2213 14.7686C61.4701 14.7686 61.6052 15.05 61.4366 15.217C61.3705 15.2825 61.3164 15.5092 61.3164 15.7207C61.3164 16.004 61.3834 16.1552 61.5709 16.2946C61.8128 16.4746 61.8182 16.5038 61.6816 16.8873C61.5673 17.2084 61.5654 17.2908 61.6725 17.2908C61.8488 17.2908 62.2712 18.2554 62.2712 18.6579C62.2712 19.0711 61.9977 19.0756 61.61 18.6687C61.4509 18.5017 61.1177 18.2603 60.8694 18.1321C59.9849 17.6754 58.346 16.1764 58.346 15.8241C58.346 15.544 58.1244 15.0839 57.9895 15.0839C57.9226 15.0839 57.9294 15.0342 58.0065 14.9578C58.1948 14.7713 58.1706 13.6686 57.9747 13.5075C57.8872 13.4356 57.8156 13.2907 57.8156 13.1856C57.8156 13.0805 57.7655 12.9638 57.7043 12.9264C57.6268 12.8789 57.627 12.8179 57.7048 12.7249C57.7845 12.6298 57.764 12.451 57.6331 12.1011C57.4804 11.6929 57.4724 11.5745 57.5856 11.3949C57.74 11.1499 57.6756 11.0268 57.1438 10.5506C56.9522 10.3791 56.8343 10.1689 56.8343 9.99891C56.8343 9.68198 56.6813 9.64302 56.4781 9.90821C56.2814 10.1649 56.2968 10.3279 56.5425 10.5892C56.6627 10.717 56.7547 10.9601 56.7547 11.1497C56.7547 11.3339 56.7839 11.6289 56.8195 11.8054C56.8716 12.0637 56.8505 12.1213 56.7108 12.101C56.6154 12.0871 56.4642 11.9723 56.3748 11.8458C56.187 11.5801 56.0121 11.5453 56.0121 11.7735C56.0121 11.8602 55.936 11.9312 55.8431 11.9312C55.7501 11.9312 55.649 12.0258 55.6185 12.1414C55.588 12.257 55.5247 12.3515 55.4777 12.3515C55.3274 12.3515 55.2434 12.9819 55.3731 13.1368C55.4404 13.2171 55.5229 13.558 55.5563 13.8944C55.5897 14.2307 55.6855 14.6402 55.7692 14.8043C55.9154 15.091 55.9293 15.0956 56.1259 14.9194C56.2457 14.812 56.3304 14.7866 56.3304 14.8581C56.3304 14.9252 56.211 15.083 56.0652 15.2086C55.9193 15.3342 55.7999 15.5026 55.7999 15.5828C55.7999 15.6786 55.7303 15.7067 55.5967 15.6647C55.4849 15.6295 55.3655 15.6455 55.3314 15.7003C55.2972 15.755 55.1739 15.775 55.0572 15.7448C54.9098 15.7066 54.8452 15.7417 54.8452 15.8598C54.8452 15.9532 54.8094 16.0241 54.7656 16.0172C54.4502 15.9679 54.3033 16.0599 54.2463 16.3426C54.1813 16.6645 54.0359 16.8294 53.6404 17.0301C53.5153 17.0935 53.4199 17.2271 53.4284 17.3269C53.439 17.4524 53.4061 17.4774 53.3218 17.4081C53.239 17.34 53.0737 17.4224 52.8063 17.6651C52.2112 18.2054 52.0526 18.4948 52.1294 18.9004C52.1658 19.0927 52.1596 19.2856 52.1156 19.3291C52.0717 19.3727 52.0271 19.6437 52.0166 19.9314C52.0061 20.2191 51.9465 20.5155 51.8841 20.5899C51.8218 20.6644 51.7754 21.0338 51.7811 21.4109C51.7868 21.788 51.7386 22.1944 51.674 22.314C51.6094 22.4336 51.5565 22.65 51.5565 22.7948C51.5565 22.9397 51.5088 23.0875 51.4504 23.1232C51.3921 23.1589 51.3444 23.28 51.3444 23.3922C51.3444 23.5478 51.4182 23.5961 51.6564 23.5961C51.828 23.5961 51.9976 23.5492 52.0334 23.4918C52.0694 23.4342 52.2131 23.5165 52.3546 23.6757C52.5599 23.9068 52.6113 23.9275 52.614 23.78C52.6181 23.5566 52.8296 23.5308 52.8296 23.7538C52.8296 23.8405 52.9012 23.9114 52.9887 23.9114C53.0762 23.9114 53.1478 23.8405 53.1478 23.7538C53.1478 23.6671 53.2194 23.5961 53.3069 23.5961C53.4882 23.5961 53.5228 23.328 53.3548 23.2252C53.1487 23.099 53.4851 22.8382 53.7783 22.8969C54.4213 23.0255 54.7494 23.1284 54.7461 23.2003C54.7442 23.2427 54.9131 23.4462 55.1213 23.6525C55.3596 23.8885 55.4766 24.0882 55.4369 24.1907C55.3531 24.407 55.5737 25.1179 55.7989 25.3573C55.8975 25.4622 56.1059 25.7999 56.262 26.1077C56.5449 26.6656 56.5456 26.6733 56.4982 28.5734C56.4479 30.5871 56.4193 30.935 56.2867 31.1476C56.2414 31.2202 56.2323 31.39 56.2665 31.525C56.3468 31.8419 55.9688 32.6922 55.6027 33.0183C55.3693 33.2261 55.2477 33.2576 54.8739 33.2074L54.4253 33.1471L54.3565 33.5735C54.3018 33.9123 54.2426 34 54.0687 34C53.8602 34 53.859 33.9934 54.0436 33.8597ZM59.151 28.6322C58.991 28.4543 58.8861 28.2415 58.918 28.1593C58.9498 28.0771 58.9331 28.0099 58.8809 28.0099C58.7726 28.0099 58.4521 27.415 58.4521 27.2141C58.4521 27.141 58.2906 26.9824 58.0933 26.8616C57.8959 26.7407 57.672 26.4886 57.5956 26.3013C57.5193 26.1139 57.2947 25.7478 57.0965 25.4877C56.8984 25.2276 56.6713 24.8611 56.5918 24.6733C56.4954 24.4455 56.3748 24.3318 56.2297 24.3318C56.012 24.3318 55.5878 23.993 55.5878 23.8192C55.5878 23.7685 55.5162 23.6681 55.4286 23.5961C55.3411 23.5242 55.2695 23.3921 55.2695 23.3025C55.2695 23.213 55.1879 23.0504 55.0881 22.9412C54.947 22.7868 54.9366 22.7243 55.0412 22.6602C55.2304 22.5444 55.0773 22.0053 54.8375 21.9432C54.7276 21.9147 54.6717 21.832 54.7047 21.7467C54.7932 21.5183 54.946 21.5721 55.0613 21.8723C55.1189 22.0224 55.2609 22.1698 55.3769 22.1998C55.4929 22.2299 55.5878 22.3214 55.5878 22.4032C55.5878 22.4849 55.6713 22.5813 55.7734 22.6174C56.0985 22.7322 56.2338 22.8801 56.1287 23.0058C56.0026 23.1566 56.2836 23.4995 56.6752 23.6727C56.8356 23.7437 56.9669 23.8501 56.9669 23.9091C56.9669 23.9682 57.0192 24.0165 57.0832 24.0165C57.1472 24.0165 57.4933 24.2718 57.8523 24.5838C58.2114 24.8958 58.6722 25.223 58.8764 25.3108L59.2477 25.4706L58.7405 25.4792C58.1231 25.4896 58.0583 25.6073 58.2931 26.2924C58.5291 26.9809 58.8562 27.4837 59.0707 27.4878C59.1681 27.4896 59.3407 27.5608 59.4543 27.6459C59.568 27.731 59.739 27.7762 59.8344 27.7462C60.0644 27.6739 60.3368 28.2104 60.1334 28.335C60.0603 28.3797 59.9573 28.3899 59.9045 28.3576C59.8517 28.3253 59.8733 28.2582 59.9525 28.2085C60.0584 28.1421 60.0614 28.1178 59.9638 28.1166C59.7349 28.1138 59.4224 28.4957 59.5238 28.6543C59.7861 29.0644 59.5259 29.049 59.151 28.6322ZM58.6726 28.2814C58.668 28.1706 58.6931 28.1085 58.7283 28.1434C58.7636 28.1784 58.7674 28.269 58.7367 28.3449C58.7029 28.4287 58.6777 28.4038 58.6726 28.2814ZM61.6346 27.832C61.6346 27.5331 61.6869 27.382 61.8058 27.3368C61.9518 27.2813 61.9662 27.3298 61.9036 27.6671C61.7962 28.2461 61.6346 28.3452 61.6346 27.832ZM62.0266 27.1021C61.8773 26.9541 61.9467 26.038 62.112 25.9752C62.1995 25.9419 62.2712 25.8423 62.2712 25.7538C62.2712 25.6653 62.3189 25.5928 62.3772 25.5928C62.5219 25.5928 62.5108 25.7122 62.3253 26.1521C62.2383 26.3582 62.1946 26.5976 62.228 26.684C62.2992 26.8677 62.1347 27.2091 62.0266 27.1021ZM62.5969 24.9948C62.5928 24.8103 62.6371 24.6302 62.6955 24.5945C62.8227 24.5166 62.8227 24.8266 62.6955 25.1199C62.6186 25.2971 62.6032 25.2774 62.5969 24.9948ZM62.9244 23.386C62.9244 23.2415 62.9485 23.1823 62.9779 23.2546C63.0074 23.3268 63.0074 23.4451 62.9779 23.5173C62.9485 23.5896 62.9244 23.5304 62.9244 23.386ZM52.3522 22.8605C52.3161 22.8027 52.3372 22.7554 52.399 22.7554C52.4607 22.7554 52.5113 22.8027 52.5113 22.8605C52.5113 22.9183 52.4902 22.9656 52.4645 22.9656C52.4388 22.9656 52.3882 22.9183 52.3522 22.8605ZM62.5331 21.4891C62.4356 21.3329 62.5131 21.2776 62.6834 21.3818C62.7746 21.4377 62.7854 21.4918 62.7142 21.5355C62.6536 21.5725 62.5721 21.5516 62.5331 21.4891ZM62.3772 20.7587C62.3772 20.7009 62.425 20.6536 62.4833 20.6536C62.5417 20.6536 62.5894 20.7009 62.5894 20.7587C62.5894 20.8165 62.5417 20.8638 62.4833 20.8638C62.425 20.8638 62.3772 20.8165 62.3772 20.7587ZM62.2624 20.1807C62.2534 20.1229 62.2523 20.0382 62.26 19.9926C62.2677 19.9469 62.2279 19.8241 62.1715 19.7197C62.102 19.5911 62.1084 19.4907 62.1912 19.4086C62.3439 19.2575 62.5199 19.2489 62.4274 19.3971C62.3898 19.4575 62.4069 19.564 62.4654 19.6339C62.538 19.7205 62.5252 19.8446 62.4253 20.0234C62.3447 20.1677 62.2713 20.2385 62.2624 20.1807ZM55.3756 15.9833C55.3756 15.9578 55.4233 15.9078 55.4817 15.872C55.54 15.8363 55.5878 15.8572 55.5878 15.9184C55.5878 15.9796 55.54 16.0297 55.4817 16.0297C55.4233 16.0297 55.3756 16.0088 55.3756 15.9833ZM22.7013 11.1956C22.7013 11.0222 22.7491 10.8803 22.8074 10.8803C22.8657 10.8803 22.9135 11.0222 22.9135 11.1956C22.9135 11.369 22.8657 11.5108 22.8074 11.5108C22.7491 11.5108 22.7013 11.369 22.7013 11.1956ZM37.4021 10.7879C37.3692 10.7352 37.4136 10.665 37.5008 10.6319C37.588 10.5987 37.6593 10.6146 37.6593 10.6672C37.6593 10.8097 37.4708 10.8981 37.4021 10.7879ZM26.9599 10.3646C26.8532 10.2989 26.8482 10.2563 26.9405 10.1998C27.086 10.1107 27.1953 10.1896 27.1414 10.3449C27.1194 10.4085 27.0445 10.4166 26.9599 10.3646ZM22.2473 10.0484C22.0177 9.77774 21.9792 9.6688 22.0735 9.55627C22.2316 9.36753 22.1067 8.88359 21.8999 8.88359C21.7745 8.88359 21.7629 8.83941 21.8475 8.68289C21.9156 8.55678 22.0299 8.50133 22.1548 8.5337C22.2757 8.56503 22.4695 8.4789 22.6491 8.31405C22.9886 8.00235 23.1109 7.98308 23.3971 8.19613C23.595 8.34344 23.585 8.36543 23.1395 8.76155C22.72 9.13457 22.6696 9.23176 22.6091 9.78491L22.5422 10.3961L22.2473 10.0484ZM19.5895 9.96951C19.4664 9.84754 19.5121 9.73522 19.7325 9.61838C19.9029 9.52805 19.9598 9.54011 20.0132 9.67783C20.1017 9.90643 19.7619 10.1403 19.5895 9.96951ZM44.3167 8.64713C44.194 8.31677 44.4897 8.15422 44.9175 8.31684C45.1579 8.4082 45.1252 8.51659 44.8151 8.65654C44.4712 8.81178 44.3771 8.81 44.3167 8.64713ZM23.6561 8.14796C23.5791 8.00546 23.5779 7.93778 23.6523 7.93778C23.7127 7.93778 23.7502 7.87867 23.7356 7.80642C23.7208 7.73301 23.791 7.68868 23.8948 7.70593C23.9969 7.72292 24.0804 7.69319 24.0804 7.63987C24.0804 7.58654 24.2236 7.48415 24.3987 7.41233C24.5737 7.34051 24.7169 7.2505 24.7169 7.21232C24.7169 7.17414 24.8401 7.1328 24.9907 7.12046C25.1413 7.10811 25.3417 7.05523 25.436 7.00293C25.5383 6.94619 25.7096 6.9463 25.8607 7.00321C25.9999 7.05566 26.1597 7.07051 26.2157 7.03622C26.2717 7.00193 26.3879 7.03176 26.474 7.10251C26.5777 7.18778 26.8285 7.2109 27.218 7.17108C27.6784 7.12401 27.8185 7.14459 27.8656 7.2662C27.8987 7.35156 27.8952 7.45157 27.858 7.48844C27.7557 7.58978 26.7516 7.69909 26.6265 7.62251C26.5663 7.58567 26.2672 7.59698 25.9618 7.64764C25.6564 7.6983 25.2708 7.75317 25.1049 7.76957C24.939 7.78596 24.7719 7.84234 24.7336 7.89485C24.6953 7.94736 24.5445 8.00305 24.3987 8.0186C24.2528 8.03415 24.0805 8.11691 24.0157 8.20251C23.8593 8.40919 23.7917 8.39894 23.6561 8.14796ZM43.9184 8.3118C43.9184 8.28631 43.9661 8.23623 44.0245 8.2005C44.0828 8.16478 44.1306 8.18564 44.1306 8.24685C44.1306 8.30806 44.0828 8.35814 44.0245 8.35814C43.9661 8.35814 43.9184 8.33728 43.9184 8.3118ZM2.89658 8.12619C2.83807 8.05147 2.76042 7.90757 2.72402 7.80642C2.68519 7.69854 2.54941 7.62251 2.39555 7.62251C2.2513 7.62251 2.10258 7.57332 2.06508 7.51321C2.02086 7.44233 2.09325 7.42787 2.27099 7.47206C2.49735 7.52834 2.54509 7.50357 2.54509 7.32988C2.54509 6.9506 3.06608 6.95418 3.07389 7.33351C3.07479 7.37686 3.15001 7.41233 3.24105 7.41233C3.36741 7.41233 3.39879 7.50538 3.37366 7.80554C3.339 8.21938 3.09693 8.38208 2.89658 8.12619ZM42.992 7.99809C42.7329 7.87934 42.5132 7.39186 42.6081 7.14665C42.6795 6.96255 42.7969 6.95245 43.0858 7.10558C43.3379 7.23927 43.482 7.14815 43.3013 6.9692C43.0993 6.76905 43.1502 6.73045 43.6455 6.70844C44.1197 6.68736 44.4303 6.87168 44.2926 7.09246C44.1849 7.26497 43.8347 7.22071 43.7053 7.01825C43.6259 6.89395 43.6011 6.88543 43.6289 6.99197C43.6515 7.07867 43.7753 7.20213 43.9042 7.26633L44.1384 7.38305L43.8428 7.5787C43.6801 7.6863 43.5054 7.76189 43.4545 7.74667C43.4036 7.73146 43.3886 7.78796 43.4213 7.87224C43.4991 8.073 43.2895 8.13443 42.992 7.99809ZM34.4688 7.34939C34.5899 7.12562 34.689 6.88273 34.689 6.80962C34.689 6.73652 34.7367 6.6767 34.795 6.6767C34.8534 6.6767 34.9011 6.72399 34.9011 6.78179C34.9011 6.83959 34.9523 6.88688 35.0148 6.88688C35.1995 6.88688 35.4566 7.19603 35.3979 7.34754C35.3681 7.42454 35.2083 7.51677 35.0429 7.55249C34.8774 7.58822 34.631 7.64868 34.4954 7.68684L34.2487 7.75623L34.4688 7.34939ZM33.6016 6.93186C33.2389 6.73694 33.2118 6.33631 33.5456 6.10467C33.8467 5.89576 33.9865 5.89611 33.9053 6.10558C33.8571 6.23017 33.8908 6.25463 34.0442 6.2064C34.2866 6.13019 34.42 6.30231 34.3108 6.55037C34.2674 6.64876 34.2423 6.81201 34.255 6.91316C34.2834 7.14072 34.005 7.14869 33.6016 6.93186ZM44.5183 6.59642C44.4574 6.49674 44.6679 6.31455 44.8732 6.28935C44.9607 6.2786 45.1512 6.23463 45.2966 6.19164C45.5529 6.11583 45.5559 6.12082 45.3974 6.35739C45.238 6.59518 44.6202 6.76317 44.5183 6.59642ZM32.9562 6.18629C32.8274 6.05864 32.8829 5.94669 33.0446 6.00816C33.1322 6.04143 33.2038 6.11088 33.2038 6.1625C33.2038 6.27268 33.0576 6.28672 32.9562 6.18629ZM33.1655 5.78365C33.0816 5.5672 33.2683 5.20545 33.4639 5.20545C33.5445 5.20545 33.6317 5.14634 33.6578 5.07409C33.721 4.89868 33.8092 4.99018 33.8857 5.31075C33.9647 5.64101 33.8605 5.80059 33.5088 5.88802C33.3061 5.93842 33.2147 5.91062 33.1655 5.78365ZM51.8748 5.26924C51.8748 5.24652 51.9464 5.20072 52.0339 5.16745C52.1214 5.13418 52.193 5.15276 52.193 5.20875C52.193 5.26473 52.1214 5.31054 52.0339 5.31054C51.9464 5.31054 51.8748 5.29195 51.8748 5.26924ZM28.159 3.83013C28.1198 3.76729 28.1293 3.67468 28.1801 3.62432C28.3056 3.50004 28.5817 3.68096 28.4903 3.82754C28.3976 3.97607 28.2508 3.97722 28.159 3.83013ZM28.7482 3.83928C28.7482 3.78148 28.8465 3.73419 28.9666 3.73419C29.0867 3.73419 29.1555 3.78148 29.1195 3.83928C29.0834 3.89708 28.9851 3.94437 28.901 3.94437C28.817 3.94437 28.7482 3.89708 28.7482 3.83928ZM27.8472 3.10486C27.81 3.04529 27.8526 3.02767 27.947 3.06356C28.1308 3.13342 28.1644 3.20875 28.0118 3.20875C27.9569 3.20875 27.8829 3.162 27.8472 3.10486ZM26.5734 2.6833C26.2465 2.60089 26.3072 2.56506 26.805 2.54668C26.9616 2.5409 27.1088 2.59292 27.1321 2.66228C27.1786 2.80046 27.0565 2.80506 26.5734 2.6833ZM26.3789 2.29797C26.34 2.25944 26.3082 2.19293 26.3082 2.15017C26.3082 2.04914 26.7184 2.15516 26.7935 2.27563C26.8602 2.38253 26.4847 2.40277 26.3789 2.29797ZM52.4236 1.89303C52.2468 1.5087 52.2684 1.34081 52.5113 1.21204C52.7455 1.08787 52.7535 1.10351 52.7255 1.6324C52.6997 2.12011 52.5768 2.22621 52.4236 1.89303Z" fill="#271291"/>
</g>
<defs>
<clipPath id="clip0_218_923">
<rect width="63" height="34" fill="white"/>
</clipPath>
</defs>
</svg>
