<svg width="24" height="24" viewBox="0 0 24 24" fill="none" xmlns="http://www.w3.org/2000/svg">
<g clip-path="url(#clip0_218_788)">
<path d="M12 24C18.6274 24 24 18.6274 24 12C24 5.37258 18.6274 0 12 0C5.37258 0 0 5.37258 0 12C0 18.6274 5.37258 24 12 24Z" fill="#8ECB2A"/>
<path d="M15.5863 10.5294L11.6333 14.5445C11.3406 14.8418 10.8656 14.8418 10.5727 14.5445L8.53213 12.4715C8.23929 12.1741 8.23929 11.6918 8.53213 11.3943C8.82501 11.0968 9.29982 11.0968 9.59262 11.3942L11.1031 12.9285L14.5256 9.45203C14.8185 9.15455 15.2934 9.15478 15.5861 9.45203C15.8789 9.74954 15.8789 10.2318 15.5863 10.5294Z" fill="white"/>
</g>
<defs>
<clipPath id="clip0_218_788">
<rect width="24" height="24" fill="white"/>
</clipPath>
</defs>
</svg>
