<svg width="36" height="34" viewBox="0 0 36 34" fill="none" xmlns="http://www.w3.org/2000/svg">
<g clip-path="url(#clip0_409_2807)">
<path d="M4.46559 0.163315C2.38559 0.606022 0.590035 2.41227 0.154479 4.493C-0.0410764 5.42269 -0.0410764 28.6206 0.154479 29.5503C0.492257 31.1618 1.6567 32.6581 3.14115 33.3842C4.50115 34.0571 3.72781 34.0217 17.0878 34.0217C30.4389 34.0217 29.6923 34.0482 31.0434 33.393C32.5011 32.6758 33.6923 31.1352 34.0211 29.5503C34.2256 28.594 34.2167 16.8092 34.0123 16.331C33.7189 15.6315 33.0345 15.1623 32.2878 15.1623C31.5056 15.1623 30.9367 15.4987 30.5723 16.1805C30.3767 16.5347 30.3767 16.5966 30.3323 22.7857L30.2878 29.0368L30.0478 29.3821C29.9145 29.568 29.6567 29.8248 29.47 29.9487L29.1411 30.1701H17.0878H5.03448L4.70559 29.9487C4.51892 29.8248 4.26115 29.568 4.12781 29.3821L3.88781 29.0368V17.0128V4.99769L4.15448 4.61696C4.30559 4.41331 4.59892 4.14769 4.81226 4.03259L5.20337 3.82894H14.9723C22.1634 3.82894 24.8478 3.80238 25.1589 3.72269C25.7456 3.58102 26.3589 2.95238 26.5011 2.35915C26.7145 1.49144 26.3234 0.650291 25.5234 0.251854L25.0523 0.0216484L15.0523 0.0305023C6.83892 0.0305023 4.9367 0.0570641 4.46559 0.163315Z" fill="#271291"/>
<path d="M33.5746 2.01377C33.379 2.0846 33.2013 2.14658 33.1746 2.14658C33.1479 2.14658 29.5213 5.74137 25.1124 10.133L17.0857 18.1284L14.7924 15.8528C13.539 14.6044 12.3657 13.5153 12.1968 13.4268C11.5479 13.0903 10.5257 13.2851 10.0013 13.8518C9.52126 14.3565 9.38793 15.3304 9.69904 15.9414C9.79682 16.1185 11.2813 17.6679 13.0146 19.3856C16.2857 22.6263 16.3568 22.6882 17.0857 22.6882C17.8501 22.6882 17.5213 22.9981 26.8902 13.6747C34.0457 6.5471 35.779 4.77627 35.8946 4.47523C36.1079 3.91741 36.0279 3.20908 35.699 2.73981C35.219 2.05804 34.2946 1.73929 33.5746 2.01377Z" fill="#271291"/>
</g>
<defs>
<clipPath id="clip0_409_2807">
<rect width="36" height="34" fill="white"/>
</clipPath>
</defs>
</svg>
