<svg width="60" height="60" viewBox="0 0 60 60" fill="none" xmlns="http://www.w3.org/2000/svg">
<g clip-path="url(#clip0_185_333)">
<path d="M5.37891 4.98047C5.21484 5.07422 5.01562 5.29688 4.93359 5.47266C4.83984 5.71875 4.80469 9.85547 4.82812 21.4805L4.86328 37.1719L5.19141 37.4531C5.51953 37.7344 5.54297 37.7344 8.09766 37.7344H10.6641V38.7305V39.7266H8.07422C6.63281 39.7266 5.40234 39.7734 5.28516 39.8438C5.16797 39.9023 4.98047 40.1836 4.86328 40.4531C4.30078 41.8711 0 54.0586 0 54.2578C0 54.375 0.128906 54.6328 0.28125 54.8086L0.5625 55.1367H30H59.4375L59.7188 54.8086C59.8711 54.6328 60 54.375 60 54.2578C60 54.0586 55.6992 41.8711 55.1367 40.4531C55.0195 40.1836 54.832 39.9023 54.7148 39.8438C54.5977 39.7734 53.3672 39.7266 51.9258 39.7266H49.3359V38.7305V37.7344H51.9023C54.457 37.7344 54.4805 37.7344 54.8086 37.4531L55.1367 37.1719L55.1719 21.4805C55.1953 9.83203 55.1602 5.71875 55.0664 5.47266C54.7734 4.75781 56.5312 4.80469 29.9766 4.80469C9.22266 4.81641 5.63672 4.83984 5.37891 4.98047ZM53.2031 21.3281V35.8594H30H6.79688V21.3281V6.79688H30H53.2031V21.3281ZM47.4375 38.6953L47.4023 39.668H30H12.5977L12.5625 38.6953L12.5273 37.7344H30H47.4727L47.4375 38.6953ZM54.1875 43.4648C54.5508 44.4961 54.8438 45.3633 54.8438 45.3984C54.8438 45.4336 43.6641 45.4688 29.9883 45.4688C10.1484 45.4688 5.14453 45.4336 5.17969 45.3164C5.21484 45.2461 5.51953 44.3672 5.85938 43.3828L6.49219 41.6016H30H53.5195L54.1875 43.4648ZM56.6133 50.3086L57.6211 53.1445L43.8164 53.1797C36.2109 53.1914 23.7891 53.1914 16.1836 53.1797L2.37891 53.1445L3.38672 50.3086L4.39453 47.4609H30H55.6055L56.6133 50.3086Z" fill="#271291"/>
<path d="M23.6441 10.8281C23.2809 11.0977 23.1988 11.6016 23.1988 13.6055C23.1988 16.2422 23.2574 16.3594 24.6051 16.4297L25.1324 16.4648L25.1676 17.4258L25.2027 18.3984H22.6129H20.0113L19.6715 18.7383C19.3902 19.0312 19.3316 19.1719 19.3316 19.6758V20.2734H18.4059H17.4801L17.4332 19.6055C17.3863 19.0664 17.316 18.8906 17.0582 18.668C16.7535 18.4102 16.6832 18.3984 14.4918 18.3984C12.1363 18.4102 12.0074 18.4336 11.7379 18.9492C11.5621 19.2773 11.5387 30.8906 11.7145 31.3477C11.9137 31.8633 12.4293 31.9922 14.4332 31.9922C16.6246 31.9922 17.0582 31.8867 17.2926 31.3477C17.3863 31.125 17.4566 30.7266 17.4566 30.4688V30H18.3941H19.3316V30.5273C19.3316 31.2305 19.5895 31.6992 20.0465 31.8633C20.5738 32.0508 39.4176 32.0508 39.9449 31.8633C40.402 31.6992 40.6598 31.2305 40.6598 30.5273V30H41.5973H42.5348V30.4688C42.5348 30.7266 42.6051 31.125 42.6988 31.3477C42.9332 31.8867 43.3668 31.9922 45.5582 31.9922C47.5621 31.9922 48.0777 31.8633 48.277 31.3477C48.4527 30.8906 48.4293 19.2773 48.2535 18.9492C47.984 18.4336 47.8551 18.4102 45.4996 18.3984C43.3082 18.3984 43.2379 18.4102 42.9332 18.668C42.6754 18.8906 42.6051 19.0664 42.5582 19.6055L42.5113 20.2734H41.5855H40.6598V19.6758C40.6598 19.1719 40.6012 19.0312 40.3199 18.7383L39.9801 18.3984H37.3785H34.7887L34.8238 17.4258L34.859 16.4648L35.3863 16.4297C36.734 16.3594 36.7926 16.2422 36.7926 13.6055C36.7926 11.6016 36.7105 11.0977 36.3473 10.8281C36.0543 10.6055 23.9371 10.6055 23.6441 10.8281ZM34.8004 13.5352V14.5312H29.9957H25.191V13.5352V12.5391H29.9957H34.8004V13.5352ZM32.902 17.4258L32.9371 18.3984H29.9957H27.066V17.4844C27.066 16.9805 27.1012 16.5234 27.148 16.4766C27.1949 16.4414 28.4957 16.418 30.0426 16.4297L32.8668 16.4648L32.902 17.4258ZM15.4645 25.1367V30H14.527H13.5895V25.1367V20.2734H14.527H15.4645V25.1367ZM38.6676 25.1367V30H29.9957H21.3238V25.1367V20.2734H29.9957H38.6676V25.1367ZM46.402 25.1367V30H45.4645H44.527V25.1367V20.2734H45.4645H46.402V25.1367ZM19.3316 25.1367V28.0078H18.3941H17.4566V25.1367V22.2656H18.3941H19.3316V25.1367ZM42.5348 25.1367V28.0078H41.5973H40.6598V25.1367V22.2656H41.5973H42.5348V25.1367Z" fill="#271291"/>
<path d="M23.2031 50.332V51.3281H30H36.7969V50.332V49.3359H30H23.2031V50.332Z" fill="#271291"/>
</g>
<defs>
<clipPath id="clip0_185_333">
<rect width="60" height="60" fill="white"/>
</clipPath>
</defs>
</svg>
