<svg width="60" height="60" viewBox="0 0 60 60" fill="none" xmlns="http://www.w3.org/2000/svg">
<path d="M8.4375 6.5625V12.1875H4.6875H0.9375V13.125V14.0625H13.125H25.3125V18.75V23.4375H13.125H0.9375V24.375V25.3125H4.6875H8.4375V26.3555V27.3984L8.08594 27.5391C7.28906 27.8672 6.5625 29.0508 6.5625 30C6.5625 30.9492 7.28906 32.1328 8.08594 32.4609L8.4375 32.6016V37.9688V43.3359L8.08594 43.4766C7.28906 43.8047 6.5625 44.9883 6.5625 45.9375C6.5625 46.8867 7.28906 48.0703 8.08594 48.3984L8.4375 48.5391V53.8008V59.0625H9.375H10.3125V53.9062V48.75H15H19.6875V53.9062V59.0625H20.625H21.5625V53.8008V48.5391L21.9141 48.3984C22.7109 48.0703 23.4375 46.8867 23.4375 45.9375C23.4375 44.9883 22.7109 43.8047 21.9141 43.4766L21.5625 43.3359V37.9688V32.6016L21.9141 32.4609C22.7109 32.1328 23.4375 30.9492 23.4375 30C23.4375 29.0508 22.7109 27.8672 21.9141 27.5391L21.5625 27.3984V26.3555V25.3125H23.4375C25.0547 25.3125 25.3125 25.3359 25.3125 25.4883C25.3125 25.5938 25.4414 25.8047 25.6055 25.957C25.8867 26.25 25.9102 26.25 28.125 26.25C31.1367 26.25 30.9375 26.0508 30.9375 29.0625C30.9375 31.2773 30.9375 31.3008 31.2305 31.582C31.3828 31.7461 31.5938 31.875 31.6992 31.875C31.8516 31.875 31.875 32.2734 31.875 35.1445V38.4141L31.582 38.4844C30.9375 38.6484 30.9023 38.8594 30.9727 42.1523C31.0078 44.3438 31.0781 45.4453 31.2188 46.1484C32.3555 51.7148 36.2578 56.25 41.543 58.125C43.582 58.8398 44.4023 58.9688 47.7773 59.0273C51.1523 59.0977 51.3516 59.0625 51.5156 58.418L51.5859 58.125H55.3242H59.0625V57.1875V56.25H55.3125H51.5625V51.5625V46.875H55.3125H59.0625V45.9375V45H55.3125C52.0078 45 51.5625 44.9766 51.5625 44.8242C51.5625 44.7188 51.4336 44.5078 51.2695 44.3555C50.9883 44.0625 50.9648 44.0625 48.75 44.0625C46.5352 44.0625 46.5117 44.0625 46.2305 43.7695C45.9375 43.4883 45.9375 43.4648 45.9375 41.25C45.9375 39.0352 45.9375 39.0117 45.6445 38.7305C45.4922 38.5664 45.2812 38.4375 45.1758 38.4375C45.0234 38.4375 45 38.0391 45 35.168V31.8984L45.293 31.8281C45.9375 31.6641 45.9727 31.4648 45.9023 28.0898C45.8438 24.7148 45.7148 23.8945 45 21.8555C43.3711 17.2734 39.6211 13.582 35.0391 12.0703C33.1758 11.4609 32.332 11.3438 29.0977 11.2852C25.7227 11.2148 25.5234 11.25 25.3594 11.8945L25.2891 12.1875H23.4258H21.5625V6.5625V0.9375H20.625H19.6875V6.5625V12.1875H15H10.3125V6.5625V0.9375H9.375H8.4375V6.5625ZM33.0469 13.4531C37.1953 14.4258 40.6758 17.1562 42.5859 20.9414C43.6172 23.0039 43.9453 24.4805 44.0273 27.5625L44.0977 30H38.4492H32.8125V28.4062C32.8125 26.4141 32.707 26.0156 31.9336 25.2539C31.1719 24.4805 30.7734 24.375 28.7812 24.375H27.1875V18.7383V13.1016L29.625 13.1602C31.4531 13.207 32.2969 13.2773 33.0469 13.4531ZM19.6875 26.25V27.1875H15H10.3125V26.25V25.3125H15H19.6875V26.25ZM21.2695 29.3555C21.457 29.5312 21.5625 29.7773 21.5625 30C21.5625 30.2227 21.457 30.4688 21.2695 30.6445L20.9883 30.9375H15H9.01172L8.73047 30.6445C8.54297 30.4688 8.4375 30.2227 8.4375 30C8.4375 29.7773 8.54297 29.5312 8.73047 29.3555L9.01172 29.0625H15H20.9883L21.2695 29.3555ZM43.125 35.1562V38.4375H38.4375H33.75V35.1562V31.875H38.4375H43.125V35.1562ZM19.6875 37.9688V43.125H15H10.3125V37.9688V32.8125H15H19.6875V37.9688ZM44.0625 41.9062C44.0625 43.8984 44.168 44.2969 44.9414 45.0586C45.7031 45.832 46.1016 45.9375 48.0938 45.9375H49.6875V51.5742V57.2227L47.2617 57.1523C45.7148 57.1055 44.5312 57.0117 44.0273 56.9062C39.082 55.7812 35.1211 52.2656 33.5742 47.6484C33.0234 46.0078 32.918 45.2812 32.8477 42.7383L32.7891 40.3125H38.4258H44.0625V41.9062ZM21.2695 45.293C21.457 45.4688 21.5625 45.7148 21.5625 45.9375C21.5625 46.1602 21.457 46.4062 21.2695 46.582L20.9883 46.875H15H9.01172L8.73047 46.582C8.54297 46.4062 8.4375 46.1602 8.4375 45.9375C8.4375 45.7148 8.54297 45.4688 8.73047 45.293L9.01172 45H15H20.9883L21.2695 45.293Z" fill="#271291"/>
<path d="M38.4727 4.35938C38.5312 8.14453 38.6367 8.88281 39.375 10.957C40.9922 15.4922 44.5312 19.0195 49.043 20.625C51.1523 21.3633 51.8672 21.4688 55.6406 21.5273L59.0625 21.5859V20.6484V19.7109L55.6992 19.6523C53.2031 19.6055 52.1133 19.5469 51.5273 19.4062C46.5469 18.2461 42.6211 14.7656 41.0742 10.1484C40.4648 8.34375 40.4062 7.86328 40.3477 4.30078L40.2891 0.9375H39.3516H38.4141L38.4727 4.35938Z" fill="#271291"/>
<path d="M51.5625 3.46875C51.5625 6.48047 51.6211 6.73828 52.4414 7.55859C53.2617 8.37891 53.5195 8.4375 56.5312 8.4375H59.0625V7.5V6.5625H56.543C53.168 6.5625 53.4375 6.83203 53.4375 3.45703V0.9375H52.5H51.5625V3.46875Z" fill="#271291"/>
</svg>
