<svg width="60" height="60" viewBox="0 0 60 60" fill="none" xmlns="http://www.w3.org/2000/svg">
<path d="M39.4346 6.73828C35.9658 7.37109 33.0244 9.77344 31.7002 13.0312C31.5361 13.4297 31.4072 13.8164 31.4072 13.9102C31.4072 14.0273 30.8682 14.0625 28.6533 14.0625H25.8877L25.6064 14.3555L25.3135 14.6367V18.1055V21.5625H19.501C15.2705 21.5625 13.5479 21.5977 13.1963 21.7031C12.5518 21.8906 11.5791 22.8633 11.3916 23.5078C11.0635 24.6094 11.2979 25.4766 12.1299 26.3203C12.4932 26.6836 12.8799 26.9531 13.1025 27.0117C13.3135 27.0469 13.4775 27.1172 13.4775 27.1406C13.4775 27.1641 12.8447 28.4531 12.0713 30L10.665 32.8125H7.02051C4.48926 32.8125 3.22363 32.8594 2.88379 32.9531C2.23926 33.1406 1.2666 34.1133 1.0791 34.7578C0.879883 35.4375 0.879883 43.3125 1.0791 43.9922C1.2666 44.6367 2.23926 45.6094 2.88379 45.7969C3.22363 45.8906 4.55957 45.9375 7.33691 45.9375H11.3096L11.2744 46.7344C11.1924 48.4688 11.8838 50.2031 13.1846 51.5039C14.5322 52.8516 15.9268 53.4375 17.8135 53.4375C19.7002 53.4375 21.1064 52.8516 22.4424 51.5039C23.7432 50.2031 24.4346 48.4688 24.3525 46.7344L24.3174 45.9375H31.4072H38.4971L38.4619 46.7344C38.3799 48.4688 39.0713 50.2031 40.3721 51.5039C41.7197 52.8516 43.1143 53.4375 45.001 53.4375C46.8877 53.4375 48.2939 52.8516 49.6299 51.5039C50.9307 50.2031 51.6221 48.4688 51.54 46.7344L51.5049 45.9375H54.0713C55.7354 45.9375 56.8018 45.8906 57.1182 45.7969C57.7627 45.6094 58.7354 44.6367 58.9229 43.9922C59.1104 43.3477 59.1104 39.1641 58.9229 38.5312C58.7588 37.9688 58.0322 37.1133 57.54 36.9141L57.1885 36.7734V25.6992V14.6367L56.8955 14.3555L56.6143 14.0625H53.8838H51.1416L50.9893 13.5469C50.6143 12.2578 49.29 10.2305 48.1768 9.23438C45.8096 7.11328 42.4932 6.17578 39.4346 6.73828ZM43.4189 8.71875C45.2939 9.21094 47.2041 10.6055 48.2939 12.2812C49.7119 14.4492 50.0635 17.1328 49.2314 19.5234C48.7627 20.9062 48.2471 21.7148 47.1689 22.793C46.0908 23.8711 45.2822 24.3867 43.8994 24.8555C42.1182 25.4766 40.0322 25.4297 38.1807 24.7266C36.4346 24.0703 34.6182 22.4297 33.7627 20.7188C33.0479 19.2773 32.8721 18.4922 32.8838 16.7578C32.8955 15.5039 32.9424 15.1523 33.2002 14.3555C33.6455 13.0078 34.2549 12.0234 35.333 10.957C36.6455 9.64453 38.0869 8.85938 39.7744 8.55469C40.5947 8.41406 42.5635 8.49609 43.4189 8.71875ZM30.9385 16.8047C30.9385 19.5586 32.0283 22.1953 33.9854 24.1406C38.0283 28.1836 44.4736 28.1836 48.5166 24.1406C50.4736 22.1953 51.5635 19.5586 51.5635 16.8047V15.9375H53.4385H55.3135V24.375V32.8125H41.251H27.1885V24.375V15.9375H29.0635H30.9385V16.8047ZM25.3135 24.375V25.3125H19.5127H13.7002L13.4189 25.0195C13.2314 24.8438 13.126 24.5977 13.126 24.375C13.126 24.1523 13.2314 23.9062 13.4189 23.7305L13.7002 23.4375H19.5127H25.3135V24.375ZM19.6885 30V32.8125H16.2314H12.7744L14.1807 30L15.5869 27.1875H17.6377H19.6885V30ZM25.3135 35.625V44.0625L24.5283 44.0508H23.7314L23.2041 43.2188C22.4072 41.9766 21.2939 41.1445 19.6885 40.5938C18.7979 40.2891 16.8408 40.2891 15.9385 40.5938C14.3447 41.1328 12.9268 42.2344 12.2354 43.4648L11.8955 44.0625H7.6416H3.3877L3.10645 43.7695C2.8252 43.5 2.81348 43.4297 2.81348 41.8945V40.3125H4.43066C6.45801 40.3125 6.93848 40.1719 7.65332 39.375C8.32129 38.625 8.43848 38.1914 8.43848 36.2812V34.6875H14.708H20.9893L21.2705 34.3945L21.5635 34.1133V30.6445V27.1875H23.4385H25.3135V35.625ZM6.56348 36.2695C6.56348 37.8047 6.55176 37.875 6.27051 38.1445C6.00098 38.4258 5.93066 38.4375 4.39551 38.4375H2.81348V36.8555C2.81348 35.3203 2.8252 35.25 3.10645 34.9805C3.37598 34.6992 3.44629 34.6875 4.98145 34.6875H6.56348V36.2695ZM55.3135 35.625V36.5625H41.251H27.1885V35.625V34.6875H41.251H55.3135V35.625ZM56.8955 38.7305C57.1885 39.0117 57.1885 39.0352 57.1885 41.25C57.1885 43.4648 57.1885 43.4883 56.8955 43.7695L56.6143 44.0625L53.7666 44.0508H50.9189L50.3916 43.2188C49.5947 41.9766 48.4814 41.1445 46.876 40.5938C45.9854 40.2891 44.0283 40.2891 43.126 40.5938C41.5322 41.1328 40.1143 42.2344 39.4229 43.4648L39.083 44.0625H33.1416H27.1885V41.25V38.4375H41.8955H56.6143L56.8955 38.7305ZM19.7354 42.6328C20.8018 43.125 21.4814 43.8047 22.0088 44.8594C22.4189 45.7031 22.4424 45.8086 22.4424 46.875C22.4424 47.9414 22.4189 48.0469 22.0088 48.8906C21.4814 49.957 20.8018 50.6133 19.7119 51.1289C18.9971 51.4688 18.8213 51.5039 17.8135 51.5039C16.8057 51.5039 16.6299 51.4688 15.915 51.1289C14.8252 50.6133 14.1455 49.957 13.6182 48.8906C13.208 48.0469 13.1846 47.9414 13.1846 46.8867C13.1846 45.8672 13.2197 45.6914 13.5596 44.9766C14.0283 43.9805 14.6963 43.2539 15.5752 42.7969C16.4893 42.3047 17.0049 42.1875 18.0713 42.2344C18.7861 42.2695 19.1494 42.3633 19.7354 42.6328ZM46.9229 42.6328C47.9893 43.125 48.6689 43.8047 49.1963 44.8594C49.6064 45.7031 49.6299 45.8086 49.6299 46.875C49.6299 47.9414 49.6064 48.0469 49.1963 48.8906C48.6689 49.957 47.9893 50.6133 46.8994 51.1289C46.1846 51.4688 46.0088 51.5039 45.001 51.5039C43.9932 51.5039 43.8174 51.4688 43.1025 51.1289C42.0127 50.6133 41.333 49.957 40.8057 48.8906C40.3955 48.0469 40.3721 47.9414 40.3721 46.8867C40.3721 45.8672 40.4072 45.6914 40.7471 44.9766C41.2158 43.9805 41.8838 43.2539 42.7627 42.7969C43.6768 42.3047 44.1924 42.1875 45.2588 42.2344C45.9736 42.2695 46.3369 42.3633 46.9229 42.6328Z" fill="#271291"/>
<path d="M41.9927 13.8516L39.3911 16.4531L38.6294 15.7266C37.5279 14.6602 37.4224 14.6836 35.8989 16.207C34.1997 17.9062 34.1411 17.6719 36.8364 20.3555C38.7818 22.3125 39.0161 22.5 39.3794 22.5C39.7544 22.5 40.0708 22.207 43.7974 18.4805C47.5122 14.7656 47.8169 14.4375 47.8169 14.0625C47.8169 13.7109 47.6763 13.5234 46.6099 12.457C44.8872 10.7344 45.2154 10.6406 41.9927 13.8516ZM45.2974 13.8281C45.52 14.0742 45.4849 14.0977 42.4497 17.1445L39.3794 20.2148L38.1841 19.0195L36.9771 17.8125L37.2349 17.5547L37.4927 17.2969L38.2544 18.0234C39.4497 19.1719 39.2857 19.2422 42.3677 16.1719C43.7857 14.7539 44.981 13.5938 45.0161 13.5938C45.0513 13.5938 45.1802 13.6992 45.2974 13.8281Z" fill="#271291"/>
<path d="M15 37.5V38.4375H17.8125H20.625V37.5V36.5625H17.8125H15V37.5Z" fill="#271291"/>
</svg>
