<svg width="60" height="60" viewBox="0 0 60 60" fill="none" xmlns="http://www.w3.org/2000/svg">
<g clip-path="url(#clip0_185_376)">
<path d="M3.42187 1.04297C2.29687 1.42969 1.31249 2.44922 0.996086 3.57422C0.843742 4.10156 0.820305 4.89844 0.843742 8.69531L0.878898 13.1836L1.20702 13.8398C1.58202 14.6133 2.36718 15.3867 3.14062 15.7383C3.66796 15.9844 3.85546 15.9961 8.63671 16.0312L13.582 16.0664L13.3359 16.7344C13.1133 17.3203 13.0781 17.7188 13.0312 20.1562L12.9844 22.9102L12.4219 23.4141C12.082 23.707 11.7187 24.1875 11.5195 24.5859C11.0859 25.4766 11.0508 26.9414 11.4492 27.7969C12.0351 29.0859 13.3125 29.9766 14.707 30.0938L15.4687 30.1523L15.8555 30.8555C16.2891 31.6875 17.2266 32.7422 18.0586 33.3516L18.6445 33.7734L18.6094 34.7227L18.5742 35.6719L15.3516 36.2227C13.582 36.5156 11.8945 36.8555 11.6016 36.9727C10.7812 37.3008 9.55077 38.1562 9.02343 38.7656C8.36718 39.5391 7.75781 40.7578 7.55859 41.6836C7.30077 42.8672 7.30077 53.8008 7.55859 54.7617C8.10937 56.8945 9.66796 58.4531 11.8008 59.0039C12.7969 59.2617 32.2031 59.2617 33.1992 59.0039C35.332 58.4531 36.8906 56.8945 37.4414 54.7617C37.6875 53.8125 37.6992 42.8672 37.4531 41.707C37.0195 39.668 35.5078 37.875 33.5156 37.0312C33.1055 36.8555 31.7109 36.5625 29.6484 36.2109L26.4258 35.6719L26.3906 34.7227L26.3555 33.7734L26.9414 33.3398C27.7617 32.7539 28.7344 31.6523 29.168 30.832L29.5312 30.1523L30.293 30.0938C31.2656 30.0117 32.168 29.5781 32.8125 28.875C33.5742 28.043 33.8086 27.4336 33.8086 26.25C33.7969 25.3945 33.75 25.1602 33.457 24.5625C33.2695 24.1875 32.8828 23.6719 32.5781 23.4141L32.0508 22.9453L31.9922 20.3555C31.9336 17.8008 31.9219 17.7422 31.6055 17.0977C31.2187 16.3008 30.4219 15.5391 29.6484 15.2109C29.168 15.0117 29.0508 14.8945 28.8516 14.4141C28.5234 13.6406 27.7617 12.8438 26.9648 12.457L26.3086 12.1289L23.0625 12.0938L19.8164 12.0586L19.7812 7.875L19.7461 3.69141L19.418 3.03516C19.043 2.26172 18.2578 1.48828 17.4844 1.13672C16.9453 0.878906 16.8164 0.878906 10.4883 0.855469C4.48827 0.820312 3.99609 0.84375 3.42187 1.04297ZM16.7578 3.16406C17.6484 3.62109 17.625 3.45703 17.707 9.90234C17.7422 13.0547 17.8125 15.7734 17.8711 15.9258C17.9531 16.1719 17.8477 16.125 17.0742 15.5742C16.5703 15.2227 15.8437 14.7188 15.457 14.4375L14.7422 13.9453H9.52734C4.54687 13.9453 4.31249 13.9336 3.86718 13.7109C3.56249 13.5586 3.3164 13.3125 3.16405 13.0078C2.9414 12.5742 2.92968 12.3281 2.92968 8.41406C2.9414 3.75 2.9414 3.73828 3.8203 3.21094L4.27734 2.92969H10.2891C16.0781 2.92969 16.3125 2.94141 16.7578 3.16406ZM26.1328 14.4141C26.6602 14.6836 27.0703 15.3516 27.0703 15.9375C27.0703 16.4414 27.6211 16.9922 28.125 16.9922C28.7109 16.9922 29.3789 17.4023 29.6484 17.9297C29.8477 18.3281 29.8828 18.6211 29.8828 20.0977V21.7969L27.7734 20.2148C25.5586 18.5625 25.2891 18.4336 24.75 18.8203C24.6094 18.9141 24.3633 19.2773 24.1875 19.6289C24.0234 19.9805 23.6836 20.4492 23.4141 20.6719C22.582 21.3867 22.2422 21.4453 18.75 21.4453C16.125 21.4453 15.5976 21.4688 15.375 21.6328L15.1172 21.8086V20.0391C15.1172 18.3867 15.2578 17.2969 15.4687 17.168C15.5273 17.1328 16.418 17.7188 17.4609 18.457C19.582 19.9688 19.8164 20.0391 20.4023 19.4648C20.5898 19.2773 20.7422 19.0078 20.7422 18.8672C20.7422 18.7383 20.5312 17.7891 20.2734 16.7578C20.0156 15.7266 19.8047 14.7305 19.8047 14.5312V14.1797H22.7344C25.4531 14.1797 25.7109 14.2031 26.1328 14.4141ZM26.9883 22.2656L28.0078 23.0156V25.3242C28.0078 26.5898 27.9492 27.9141 27.8906 28.2539C27.4805 30.4453 25.582 32.2617 23.3203 32.6133C21.0117 32.9648 18.6094 31.7227 17.6016 29.6484C17.0859 28.6055 16.9922 27.9492 16.9922 25.5938V23.5547H19.4883C22.8984 23.5547 23.7539 23.3086 25.0781 21.9727C25.4531 21.5977 25.7578 21.375 25.8398 21.4219C25.9219 21.4688 26.4375 21.8438 26.9883 22.2656ZM14.8828 26.25C14.8828 27.4688 14.8476 28.0078 14.7539 28.0078C14.4375 28.0078 13.7226 27.4688 13.4883 27.0703C13.1719 26.5078 13.1719 25.9922 13.5 25.418C13.7226 25.0312 14.4609 24.4922 14.8008 24.4922C14.8476 24.4922 14.8828 25.2773 14.8828 26.25ZM30.9609 24.7969C31.3477 24.9961 31.7578 25.7461 31.7578 26.2617C31.7578 26.7891 31.3359 27.4688 30.8203 27.7617C30.5742 27.8906 30.3164 28.0078 30.2461 28.0078C30.1523 28.0078 30.1172 27.457 30.1172 26.2383V24.4805L30.3867 24.5625C30.5273 24.5977 30.7852 24.7148 30.9609 24.7969ZM22.9102 34.7695C23.4258 34.7344 23.9414 34.6758 24.0586 34.6289C24.2344 34.5586 24.2578 34.6289 24.2578 35.2852V36.0352L23.3789 36.6094L22.5 37.1719L21.6328 36.6094L20.7539 36.0352V35.3203L20.7422 34.6055L21.3633 34.7109C21.6914 34.7812 22.3945 34.8047 22.9102 34.7695ZM20.2266 38.168L20.8711 38.5898L20.3672 39.1055C20.0977 39.3867 19.8281 39.6094 19.7812 39.6094C19.7344 39.6094 19.3828 39.2227 18.9844 38.7539C18.3047 37.9453 18.2812 37.9102 18.5391 37.8281C19.1719 37.6523 19.5703 37.7344 20.2266 38.168ZM26.4609 37.8281C26.7187 37.9102 26.6953 37.9453 26.0156 38.7539C25.6172 39.2227 25.2656 39.6094 25.2187 39.6094C25.1836 39.6094 24.9258 39.3867 24.6445 39.1172L24.1406 38.625L24.8203 38.1797C25.4766 37.7344 25.8516 37.6641 26.4609 37.8281ZM17.4023 40.1484C18.2344 41.1562 19.0195 42.0469 19.1484 42.1406C19.6992 42.5156 20.0039 42.375 21.2812 41.1094L22.5 39.9141L23.7187 41.1094C24.9961 42.375 25.3008 42.5156 25.8516 42.1406C25.9805 42.0469 26.7656 41.1562 27.5977 40.1484C28.4297 39.1406 29.1914 38.3203 29.2852 38.3203C30.0117 38.3203 32.3906 38.8477 33 39.1406C33.8672 39.5625 34.7109 40.4297 35.1328 41.3438L35.4492 42.0117L35.4844 47.9062C35.5195 54.457 35.5078 54.5977 34.7695 55.5703C34.3828 56.0859 33.3867 56.8359 33.0937 56.8359C32.9531 56.8359 32.9297 56.0625 32.9297 52.1367C32.9297 48.1523 32.8945 47.332 32.7422 46.7227L32.543 45.9961L33.1523 44.8008L33.75 43.5938L32.8125 43.125L31.875 42.6562L31.4531 43.5C31.2187 43.9688 31.0078 44.3672 30.9961 44.3906C30.9844 44.4141 30.6445 44.3203 30.2461 44.1797C29.5664 43.957 29.2852 43.9453 22.5 43.9453C15.7148 43.9453 15.4336 43.957 14.7539 44.1797C14.3555 44.3203 14.0156 44.4141 14.0039 44.3906C13.9922 44.3672 13.7812 43.9688 13.5469 43.5L13.125 42.6562L12.1875 43.125L11.25 43.5938L11.8476 44.8008L12.457 45.9961L12.2578 46.7227C12.1055 47.332 12.0703 48.1523 12.0703 52.1367C12.0703 56.0625 12.0469 56.8359 11.9062 56.8359C11.6133 56.8359 10.6172 56.0859 10.2305 55.5703C9.49218 54.5977 9.48046 54.457 9.51562 47.9062L9.55077 42.0117L9.86718 41.3438C10.2891 40.4297 11.1328 39.5625 12 39.1406C12.6445 38.8242 14.6719 38.3672 15.5859 38.332C15.832 38.3203 16.1484 38.6367 17.4023 40.1484ZM29.8828 46.2891C30.1875 46.4414 30.4336 46.6875 30.5859 46.9922C30.8086 47.4258 30.8203 47.6719 30.8203 52.2656V57.0703H22.5H14.1797V52.2656C14.1797 47.6719 14.1914 47.4258 14.4141 46.9922C14.5547 46.7109 14.8242 46.4414 15.0937 46.3008C15.5156 46.0781 15.7851 46.0664 22.4766 46.0547C29.2148 46.0547 29.4375 46.0664 29.8828 46.2891Z" fill="#271291"/>
<path d="M5.625 8.4375V9.49219H6.5625H7.5V8.4375V7.38281H6.5625H5.625V8.4375Z" fill="#271291"/>
<path d="M9.375 8.4375V9.49219H10.3125H11.25V8.4375V7.38281H10.3125H9.375V8.4375Z" fill="#271291"/>
<path d="M13.125 8.4375V9.49219H14.0625H15V8.4375V7.38281H14.0625H13.125V8.4375Z" fill="#271291"/>
<path d="M20.625 51.5625V52.6172H22.5H24.375V51.5625V50.5078H22.5H20.625V51.5625Z" fill="#271291"/>
<path d="M42.4102 1.16015C42.0938 1.48828 42.0703 1.55859 42.0703 2.4375V3.375L41.5898 3.5625L41.1094 3.76171L40.4297 3.10546C39.8438 2.55468 39.6797 2.46093 39.293 2.46093C38.8711 2.46093 38.7305 2.5664 36.5859 4.72265C34.4531 6.85546 34.3359 6.99609 34.3359 7.41796C34.3359 7.80468 34.4297 7.96875 34.9805 8.55468L35.6367 9.23437L35.4375 9.71484L35.25 10.1953H34.3125C33.4336 10.1953 33.3633 10.2187 33.0352 10.5352L32.6953 10.875V14.0625V17.25L33.0352 17.5898C33.3633 17.9062 33.4336 17.9297 34.3125 17.9297H35.25L35.4375 18.4219L35.6367 18.9023L34.9805 19.5703C34.4062 20.1562 34.3125 20.3086 34.3125 20.6836C34.3125 21.1055 34.4414 21.2578 36.5742 23.3906C38.7305 25.5586 38.8711 25.6641 39.293 25.6641C39.6797 25.6641 39.8438 25.5703 40.4297 25.0195L41.1094 24.3633L41.5898 24.5625L42.0703 24.75V27.8437V30.9258L41.5664 31.2773C40.6758 31.8867 39.6562 33.082 39.1406 34.125C38.0508 36.3516 38.0508 38.6484 39.1523 40.8984C39.8438 42.3047 41.168 43.6289 42.5508 44.2969C44.8359 45.3867 47.0859 45.3867 49.3359 44.2852C51.3633 43.2891 52.9688 41.1914 53.3789 38.9883C53.6016 37.8164 53.6016 37.1367 53.3789 36C53.0273 34.2305 51.75 32.2617 50.3203 31.2773L49.8047 30.9258V27.8437V24.75L50.2969 24.5625L50.7773 24.3633L51.4336 25.0078C52.0195 25.582 52.1602 25.6641 52.5586 25.6641C53.0039 25.6641 53.1094 25.582 55.2773 23.4141C57.4336 21.2695 57.5391 21.1289 57.5391 20.707C57.5391 20.3203 57.4453 20.1562 56.8711 19.5586L56.2148 18.8672L56.4258 18.3984L56.6367 17.9297H57.5625C58.4414 17.9297 58.5117 17.9062 58.8398 17.5898L59.1797 17.25V14.0625V10.875L58.8398 10.5352C58.5117 10.2187 58.4414 10.1953 57.5625 10.1953H56.625L56.4375 9.70312L56.2383 9.22265L56.8945 8.55468C57.4688 7.96875 57.5625 7.8164 57.5625 7.4414C57.5625 7.01953 57.4336 6.86718 55.3008 4.73437C53.1445 2.5664 53.0039 2.46093 52.582 2.46093C52.1953 2.46093 52.0312 2.55468 51.4453 3.10546L50.7656 3.76171L50.2852 3.5625L49.8047 3.375V2.4375C49.8047 1.55859 49.7812 1.48828 49.4648 1.16015L49.125 0.820309H45.9375H42.75L42.4102 1.16015ZM47.6953 3.63281C47.6953 4.71093 47.918 5.01562 48.9844 5.33203C49.1484 5.3789 49.6055 5.57812 50.0039 5.7539C51.0117 6.23437 51.2227 6.19921 51.9609 5.50781L52.5703 4.93359L53.8242 6.1875L55.0664 7.4414L54.4922 8.05078C53.8594 8.69531 53.7305 9.1875 54.0703 9.66796C54.1523 9.79687 54.3633 10.2656 54.5391 10.7227C55.125 12.2227 55.207 12.3047 56.3672 12.3047H57.0703V14.0625V15.8203H56.3672C55.207 15.8203 55.125 15.9023 54.5391 17.4023C54.3633 17.8477 54.1523 18.3281 54.0703 18.457C53.7422 18.9375 53.8594 19.418 54.4922 20.0859L55.0664 20.6953L53.8125 21.9492L52.5586 23.1914L51.9492 22.6172C51.293 21.9844 50.8594 21.8789 50.2734 22.207C50.1094 22.3008 49.9453 22.3711 49.8984 22.3828C49.8398 22.3828 49.8047 21.9844 49.8047 21.5039V20.6367L50.3203 20.2852C51.7148 19.3242 53.0156 17.3437 53.3789 15.6328C54.0234 12.5977 52.7109 9.41015 50.1211 7.72265C49.3242 7.19531 48.7852 7.03125 48.375 7.17187C47.7539 7.39453 47.6953 7.69921 47.6953 10.4883V13.0078H45.9375H44.1797V10.4883C44.1797 7.69921 44.1211 7.39453 43.5 7.17187C42.457 6.80859 40.0781 8.74218 39.1289 10.7109C38.0508 12.9492 38.0625 15.2344 39.1406 17.4375C39.6562 18.4805 40.6758 19.6758 41.5664 20.2852L42.0703 20.6367V21.5039C42.0703 21.9844 42.0469 22.3828 42.0234 22.3828C42 22.3828 41.7891 22.3008 41.5664 22.207C40.8516 21.9141 40.582 21.9727 39.9258 22.6172L39.3164 23.1914L38.0625 21.9492L36.8086 20.6953L37.3828 20.0859C38.0742 19.3477 38.1094 19.1367 37.6289 18.1289C37.4531 17.7305 37.2539 17.2734 37.207 17.1094C36.8906 16.043 36.5859 15.8203 35.5078 15.8203H34.8047V14.0625V12.3047H35.5078C36.5859 12.3047 36.8906 12.082 37.207 11.0156C37.2539 10.8516 37.4531 10.3945 37.6289 9.99609C38.1094 8.98828 38.0742 8.76562 37.3828 8.05078L36.8086 7.4414L38.0508 6.1875L39.3047 4.93359L39.9141 5.50781C40.6523 6.19921 40.8633 6.23437 41.8711 5.7539C42.2695 5.57812 42.7266 5.3789 42.8906 5.33203C43.957 5.01562 44.1797 4.71093 44.1797 3.63281V2.92968H45.9375H47.6953V3.63281ZM42.457 14.8359L42.7852 15.1172H45.9492H49.125L49.4648 14.7773L49.8047 14.4375V12.2812L49.8164 10.1367L50.168 10.5469C50.6484 11.0859 51.0586 11.918 51.2695 12.7383C51.8789 15.0703 50.7539 17.6484 48.6094 18.8555C48.2578 19.0547 47.9062 19.3594 47.8359 19.5234C47.6367 19.9453 47.6367 31.6172 47.8359 32.0391C47.9062 32.2031 48.2578 32.5078 48.6094 32.707C50.7656 33.9258 51.8789 36.4922 51.2695 38.8477C50.4961 41.7773 47.4961 43.582 44.6133 42.832C43.1367 42.4453 41.7891 41.4141 41.1094 40.125C39.6797 37.4648 40.6406 34.1836 43.2656 32.707C43.6172 32.5078 43.9688 32.2031 44.0391 32.0391C44.2383 31.6172 44.2383 19.9453 44.0391 19.5234C43.9688 19.3594 43.6172 19.0547 43.2539 18.8555C40.3008 17.1797 39.5391 13.2891 41.6484 10.6055L42.0117 10.1484L42.0703 12.3516L42.1289 14.5547L42.457 14.8359Z" fill="#271291"/>
<path d="M44.6669 33.8438C43.0145 34.4414 41.9598 36.0703 42.0888 37.793C42.2059 39.1641 43.0263 40.3711 44.2802 40.9805C44.8427 41.2617 45.077 41.3086 45.9325 41.3086C46.788 41.3086 47.0223 41.2617 47.5848 40.9805C48.3583 40.6055 49.1317 39.8203 49.4833 39.0469C49.8817 38.1914 49.8466 36.7266 49.413 35.8477C49.038 35.0625 48.2411 34.3008 47.4794 33.9492C46.7059 33.6094 45.4638 33.5625 44.6669 33.8438ZM46.7528 35.9766C47.2802 36.2461 47.6903 36.9141 47.6903 37.5C47.6903 38.3906 46.8231 39.2578 45.9325 39.2578C45.3466 39.2578 44.6786 38.8477 44.4091 38.3203C44.1161 37.7344 44.1161 37.2656 44.4091 36.6797C44.8427 35.8242 45.8622 35.5195 46.7528 35.9766Z" fill="#271291"/>
</g>
<defs>
<clipPath id="clip0_185_376">
<rect width="60" height="60" fill="white"/>
</clipPath>
</defs>
</svg>
