<svg width="70" height="70" viewBox="0 0 70 70" fill="none" xmlns="http://www.w3.org/2000/svg">
<g clip-path="url(#clip0_218_693)">
<path d="M17.561 0.164073C17.1646 0.396495 17.0415 0.65626 16.8638 1.66798C16.645 2.8711 16.2075 3.73243 15.4009 4.45704C14.7173 5.0586 13.5278 5.60548 12.8579 5.60548C12.2974 5.60548 11.6274 5.86524 11.4771 6.15235C11.2993 6.48048 11.2993 7.0547 11.4771 7.36915C11.6274 7.66993 12.1606 7.88868 13.022 7.98439C15.0317 8.23048 16.645 9.92579 16.8911 12.0449C16.9595 12.6465 17.0688 12.9336 17.3286 13.1934C18.0669 13.9317 19.0376 13.4258 19.2017 12.2227C19.5571 9.57032 20.9106 8.28517 23.7954 7.86134C24.5884 7.73829 24.9165 7.20509 24.6978 6.38478C24.5884 5.96095 23.9321 5.60548 23.2622 5.60548C22.1958 5.60548 20.6235 4.64845 19.9399 3.58204C19.5161 2.91212 19.3521 2.41993 19.2017 1.31251C19.0513 0.246104 18.3267 -0.273427 17.561 0.164073ZM18.9419 5.8379L19.8853 6.76759L18.9692 7.6836L18.0396 8.59962L17.1509 7.69728L16.2622 6.78126L17.0825 5.97462C17.5337 5.52345 17.9028 5.11329 17.9028 5.04493C17.9028 4.83985 17.9712 4.89454 18.9419 5.8379Z" fill="#271291"/>
<path d="M37.8672 0.423828C37.8672 0.683594 37.9082 1.20312 37.9492 1.58594L38.0312 2.2832L40.3828 2.36523C41.8867 2.41992 43.2129 2.54297 44.1016 2.7207C49.1055 3.71875 53.6309 6.30273 57.0488 10.0762C61.0957 14.5469 63.1602 19.9336 63.1602 25.9219C63.1465 32.0195 61.123 37.3516 57.1172 41.7949C55.8594 43.1895 54.4785 44.4063 52.373 45.9238C51.6074 46.4844 50.6367 47.3184 50.2129 47.7695C49.3516 48.6992 47.9297 50.8047 47.6973 51.502L47.5469 51.9531H39.5215H31.4961L31.127 51.1875C30.0469 48.9863 28.707 47.4551 26.3281 45.6777C23.1699 43.3262 21.5156 41.6582 19.834 39.1699C17.4141 35.5742 16.0879 31.5273 15.8828 27.1387L15.7871 25.2246L14.6523 25.1836L13.5312 25.1426V26.0312C13.5312 28.4512 14.0781 31.7461 14.8848 34.1797C16.6211 39.3613 19.752 43.5996 24.4688 47.1133C26.4375 48.5762 27.9824 50.1211 28.6113 51.2559L28.9941 51.9531H27.4902H25.9727V53.0469V54.1406H27.9414H29.9102L30.1289 55.084C30.457 56.5469 30.5117 56.4648 29.2539 56.4648H28.1602V57.5586V58.6523H29.3223H30.4844V60.5527C30.4844 62.918 30.5527 63.0547 31.8789 63.1641L32.7402 63.2324L32.8223 63.9844C33.2461 67.9492 37.2656 70.7793 41.0527 69.7949C42.6934 69.3711 44.1426 68.3867 45.0312 67.0879C45.6191 66.2266 46.207 64.7227 46.207 64.0527C46.207 63.2461 46.2891 63.1641 47.1641 63.1641C47.8613 63.1641 47.998 63.1231 48.2441 62.8086C48.5039 62.4805 48.5312 62.2617 48.5312 60.5527V58.6523H49.6934H50.8555V57.5586V56.4648H49.748H48.6406L48.7363 55.8086C48.7773 55.4531 48.8867 54.9336 48.9551 54.6465L49.0918 54.1406H51.0605H53.043V53.0469V51.9531H51.5391C50.7188 51.9531 50.0352 51.9121 50.0352 51.8711C50.0352 51.6387 51.3613 49.834 51.9902 49.2051C52.3867 48.8223 53.5352 47.8789 54.5469 47.127C60.3438 42.793 63.8027 37.3105 65.1016 30.3789C65.498 28.2598 65.5254 23.9941 65.1562 22.0117C64.8008 20.0566 64.3086 18.2246 63.7891 16.8574C60.9453 9.39258 54.998 3.71875 47.5332 1.3125C45.0586 0.519531 42.8848 0.150391 40.0957 0.0410156L37.8672 -0.0410156V0.423828ZM46.6445 54.209C46.6855 54.25 46.6719 54.5508 46.6035 54.8652C46.5488 55.1797 46.4668 55.6719 46.4121 55.9453L46.3301 56.4648H39.5078H32.6719L32.6172 56.1504C32.5762 55.9863 32.5078 55.6035 32.4668 55.3027C32.4121 55.002 32.3438 54.6191 32.3027 54.4414L32.2344 54.1406H39.3984C43.3496 54.1406 46.6035 54.168 46.6445 54.209ZM46.3164 59.8418L46.3574 60.9766H39.5762H32.8086V59.8145V58.6523L39.5488 58.6797L46.2754 58.7207L46.3164 59.8418ZM43.9648 63.8066C43.7734 65.2422 42.8027 66.5957 41.4766 67.2656C40.9023 67.5527 40.6152 67.6074 39.5078 67.6074C38.4004 67.6074 38.1133 67.5527 37.5664 67.2793C36.2266 66.5957 35.2695 65.2695 35.0645 63.8066L34.9688 63.1641H39.5078H44.0605L43.9648 63.8066Z" fill="#271291"/>
<path d="M32.9698 5.74218C32.6553 5.81054 32.0675 6.04296 31.6846 6.24804C31.0557 6.58984 30.7413 6.89062 29.962 7.90234C29.7569 8.17578 29.6749 8.20312 29.3468 8.08007C28.8409 7.88867 27.7061 7.88867 27.0089 8.09375C26.2432 8.3125 25.1221 9.06445 24.6573 9.66601C23.9054 10.6504 23.6046 12.0176 23.837 13.3437L23.9327 13.9043L23.2081 14.3144C22.2647 14.8613 21.335 15.8594 20.8429 16.8848C20.296 18.0332 20.2139 19.6602 20.6241 20.9043C20.7882 21.3828 20.9112 21.7793 20.8839 21.793C20.8565 21.8203 20.5557 21.9844 20.2139 22.1894C19.4346 22.6406 18.9151 23.2148 18.4913 24.1582C17.8214 25.6074 17.9718 27.1523 18.9014 28.5195C19.2979 29.0937 20.296 29.9414 20.7882 30.1055C20.8839 30.1328 20.8429 30.4336 20.6514 30.9941C20.1456 32.4844 20.337 34.2754 21.13 35.6289C21.5538 36.3535 22.6202 37.3516 23.3585 37.7344C23.9054 38.0078 23.9327 38.0488 23.837 38.459C23.3175 40.8379 24.6983 43.1621 27.0499 43.8457C27.7608 44.0508 29.005 44.0371 29.5382 43.8184C29.7022 43.7637 29.8936 43.9277 30.2354 44.4062C32.5323 47.5918 37.5362 46.4297 38.2745 42.5332C38.4932 41.3574 38.4522 10.2812 38.2335 9.20117C37.7413 6.84961 35.3214 5.26367 32.9698 5.74218ZM35.1026 8.29882C35.294 8.43554 35.5811 8.73632 35.7315 8.9414C36.0186 9.31054 36.0186 9.39257 36.0596 25.6758C36.087 36.9004 36.0596 42.1914 35.9503 42.5469C35.7725 43.1621 35.0206 43.8457 34.378 43.9687C33.38 44.1465 32.3682 43.6816 31.9171 42.8066C31.753 42.4648 31.7667 42.3555 32.2042 41.5078C32.4913 40.9199 32.669 40.373 32.669 40.0449V39.5117H31.5889H30.5089L30.4268 39.9902C30.3721 40.25 30.1807 40.6465 29.9757 40.8789C28.4581 42.6973 25.587 41.3574 26.0245 39.0332C26.1749 38.2266 27.1456 37.3242 27.8839 37.3242C28.1436 37.3242 28.1573 37.2422 28.1573 36.1621C28.1573 35.123 28.13 35 27.9112 35C27.4327 35 26.3526 35.3828 25.8057 35.7519L25.2589 36.1211L24.4932 35.7246C21.9776 34.4531 21.9639 31.0488 24.4659 29.7637C26.421 28.7519 28.7862 29.9004 29.2511 32.0879L29.4014 32.8125H30.5089H31.6163L31.5343 32.0469C31.4932 31.6367 31.2745 30.8984 31.0421 30.4199C29.6749 27.4941 26.2979 26.3047 23.4542 27.7539C22.4971 28.2461 22.1417 28.2598 21.4581 27.8769C20.4737 27.3301 20.0909 25.9902 20.5831 24.9375C21.0206 24.0078 22.3057 23.4609 22.9483 23.9121C24.3975 24.9375 26.6944 25.0742 28.4307 24.2402C30.003 23.4746 31.3155 21.6426 31.5206 19.9199L31.6163 19.1406H30.4952H29.3878L29.3057 19.6875C29.169 20.5488 28.4581 21.6016 27.7198 22.0527C27.2139 22.3672 26.8585 22.4766 26.1475 22.5176C25.3136 22.5723 25.1358 22.5449 24.4659 22.1894C21.9639 20.8769 21.9776 17.4727 24.4932 16.2285L25.2589 15.832L25.8057 16.2012C26.2979 16.5156 27.5284 16.9531 27.9932 16.9531C28.1163 16.9531 28.1573 16.625 28.1573 15.791C28.1573 14.7109 28.1436 14.6289 27.8839 14.6289C27.1456 14.6289 26.1749 13.7266 26.0245 12.9199C25.8057 11.7578 26.585 10.5 27.6788 10.2539C28.8272 9.99414 30.085 10.7324 30.3721 11.8398L30.5362 12.4414H31.6026H32.669V11.9082C32.669 11.5801 32.4913 11.0332 32.2042 10.459C31.8624 9.77539 31.7667 9.44726 31.8487 9.24218C31.9854 8.87304 32.6417 8.25781 33.0792 8.08007C33.585 7.86132 34.6788 7.98437 35.1026 8.29882Z" fill="#271291"/>
<path d="M44.3193 5.74218C42.5146 6.11132 41.0928 7.57421 40.7373 9.41991C40.5459 10.4316 40.5459 41.5215 40.7373 42.5332C41.4756 46.416 46.4658 47.6055 48.749 44.4336C49.1865 43.8184 49.2822 43.7637 49.5967 43.8594C49.8018 43.9141 50.4033 43.9551 50.9229 43.9551C53.7119 43.9414 55.7627 41.3301 55.1885 38.541C55.0928 38.0488 55.0928 38.0351 55.8037 37.625C56.7471 37.0918 57.6768 36.0937 58.1689 35.0684C58.7158 33.9336 58.7978 32.1699 58.3877 30.9805C58.2236 30.5293 58.1143 30.1601 58.1279 30.1465C58.1553 30.1328 58.4561 29.9687 58.7978 29.7637C59.5771 29.3125 60.0967 28.7383 60.5205 27.7949C61.5049 25.6621 60.6436 23.0918 58.5928 22.0527C58.3603 21.9434 58.1553 21.8203 58.1279 21.8066C58.1006 21.7793 58.2236 21.3828 58.3877 20.9043C58.7842 19.6875 58.7158 18.0332 58.21 16.9258C57.7588 15.9414 56.7471 14.8613 55.8037 14.3144C55.1201 13.9316 55.0791 13.8906 55.1748 13.4805C55.585 11.6348 54.8467 9.77538 53.3018 8.72265C52.2217 7.98437 51.0186 7.77929 49.4736 8.09374C49.3506 8.12109 49.0088 7.8203 48.6533 7.3828C47.6006 6.09765 45.8369 5.4414 44.3193 5.74218ZM46.0557 8.14843C46.3838 8.27148 46.7393 8.57226 46.9717 8.90038L47.3408 9.43359L46.9033 10.2539C46.6572 10.7051 46.4248 11.375 46.3838 11.7578L46.3018 12.4414H47.3955H48.4756L48.6396 11.8398C48.9268 10.7598 50.1846 9.99413 51.2783 10.2402C51.9893 10.4043 52.4404 10.7734 52.7822 11.457C53.1377 12.168 53.083 13.0976 52.6729 13.6582C52.3037 14.1504 51.5654 14.6289 51.1826 14.6289C50.8682 14.6289 50.8545 14.6562 50.8545 15.791C50.8545 16.625 50.8955 16.9531 51.0322 16.9531C51.4834 16.9531 52.7139 16.5156 53.1924 16.2012L53.7393 15.8457L54.3818 16.1328C56.0088 16.8574 56.7607 18.4434 56.2686 20.1113C55.9951 21.082 55.4072 21.7656 54.4639 22.2305C53.8213 22.5449 53.6025 22.5859 52.8643 22.5312C51.1416 22.3945 50.1025 21.3965 49.7061 19.5098C49.624 19.1406 49.6104 19.1406 48.5303 19.1406H47.4365V19.5098C47.4365 20.6855 48.1475 22.1894 49.1318 23.1601C50.8818 24.8965 53.3564 25.2793 55.626 24.1582C56.624 23.666 56.9932 23.666 57.7041 24.1309C59.2764 25.1562 58.7705 27.8223 56.9521 28.123C56.6103 28.1777 56.2686 28.082 55.626 27.7676C53.4111 26.6875 51.0596 27.0019 49.2822 28.6016C48.2568 29.5312 47.4502 31.2266 47.4365 32.4297V32.8125H48.5303C49.7334 32.8125 49.5967 32.9082 49.8291 31.8008C49.8701 31.623 50.0889 31.1855 50.335 30.8164C51.8662 28.5605 55.3799 29.0937 56.2549 31.7187C56.8018 33.373 56.0225 35.0957 54.3818 35.8203L53.7393 36.1074L53.1924 35.7519C52.6592 35.3828 51.5654 35 51.1006 35C50.8818 35 50.8545 35.123 50.8545 36.1621C50.8545 37.2422 50.8682 37.3242 51.1279 37.3242C51.5518 37.3242 52.1396 37.666 52.5361 38.1445C53.4248 39.1973 53.0557 40.8516 51.7842 41.5078C51.251 41.7812 50.3213 41.7812 49.7881 41.5078C49.2549 41.2344 48.6943 40.5098 48.585 39.9492L48.5029 39.5117H47.3955H46.3018L46.3838 40.209C46.4385 40.6055 46.6572 41.2344 46.8896 41.6445C47.3682 42.5059 47.3135 42.7793 46.5615 43.4492C45.7412 44.1738 44.6611 44.2012 43.7725 43.5312C42.8701 42.834 42.9248 43.8867 42.9248 25.9902C42.9248 14.8066 42.9658 9.61132 43.0752 9.33788C43.5127 8.1621 44.7979 7.64257 46.0557 8.14843Z" fill="#271291"/>
<path d="M10.6187 11.5117C10.3452 11.7305 10.1128 12.332 10.1128 12.8516C10.1128 13.5488 9.55225 14.793 8.93701 15.4492C8.2124 16.2285 7.36475 16.666 6.17529 16.8711C5.66943 16.9531 5.16357 17.0898 5.04053 17.1582C4.43896 17.5273 4.39795 18.5664 4.9585 18.9355C5.12256 19.0449 5.68311 19.1953 6.20264 19.2773C7.40576 19.4687 8.1167 19.8242 8.90967 20.6719C9.57959 21.3691 10.1128 22.5176 10.1128 23.2559C10.1128 24.2949 10.8921 25.0469 11.6577 24.7598C12.1499 24.5684 12.314 24.2812 12.437 23.3926C12.6831 21.6016 13.7905 20.1113 15.2534 19.5645C15.6636 19.4004 16.1421 19.2773 16.3062 19.2773C17.3179 19.2773 18.0425 18.7578 18.0425 18.0332C18.0425 17.377 17.6597 17.0898 16.5112 16.8848C14.3101 16.502 12.7515 15.0527 12.5054 13.1523C12.3687 12.0996 12.3003 11.8945 12.0269 11.6211C11.7124 11.3066 10.9741 11.252 10.6187 11.5117ZM12.1909 17.1582L13.1069 18.0469L12.1909 18.9766L11.2886 19.8926L10.3589 18.9629L9.4292 18.0195L9.81201 17.7187C10.0171 17.5684 10.4272 17.1719 10.7144 16.8574C11.0151 16.5293 11.2612 16.2695 11.2612 16.2695C11.2749 16.2695 11.6987 16.666 12.1909 17.1582Z" fill="#271291"/>
</g>
<defs>
<clipPath id="clip0_218_693">
<rect width="70" height="70" fill="white"/>
</clipPath>
</defs>
</svg>
