<svg width="70" height="70" viewBox="0 0 70 70" fill="none" xmlns="http://www.w3.org/2000/svg">
<path d="M1.43804 11.2793C1.09624 11.6074 1.09624 11.6348 1.09624 14.2187C1.09624 16.8027 1.09624 16.8301 1.43804 17.1582C1.71148 17.4453 1.90289 17.5 2.53179 17.5H3.28374V31.7187V45.9375H2.53179C1.90289 45.9375 1.71148 45.9922 1.43804 46.2793C1.09624 46.6074 1.09624 46.6348 1.09624 49.2187C1.09624 52.7187 0.891167 52.5 4.19976 52.5H6.63335L6.79742 53.2109C7.08453 54.3867 7.89117 55.8359 8.77984 56.7383C11.2955 59.2812 15.1099 59.7461 18.2408 57.9141C19.7037 57.0527 21.1255 55.1523 21.563 53.4297L21.7955 52.5H33.9087H46.0084L46.1724 53.2246C46.4595 54.3867 47.2662 55.8359 48.1548 56.7383C50.6705 59.2812 54.4849 59.7461 57.6158 57.9141C59.0787 57.0527 60.5005 55.1523 60.938 53.4297L61.1705 52.5H64.7115H68.2388L68.5669 52.1582L68.9087 51.8301V42.1777V32.5117L63.9048 24.1582C61.1431 19.5508 58.7779 15.6816 58.6275 15.5449C58.3677 15.3262 57.8345 15.3125 51.6002 15.3125H44.8462V13.4668C44.8462 11.6758 44.8326 11.5937 44.5044 11.2793L44.1763 10.9375H22.9712H1.76617L1.43804 11.2793ZM42.6587 14.2187V15.3125H22.9712H3.28374V14.2187V13.125H22.9712H42.6587V14.2187ZM7.65874 31.7187V45.9375H6.56499H5.47124V31.7187V17.5H6.56499H7.65874V31.7187ZM12.0337 30.8301C12.0337 42.2871 12.0064 44.1602 11.8423 44.1602C11.733 44.1602 11.2408 44.3652 10.7486 44.625L9.84624 45.1035V31.2949V17.5H10.94H12.0337V30.8301ZM16.4087 30.7754V44.0508L16.0943 43.9687C15.9166 43.9277 15.4244 43.8594 15.0005 43.8047L14.2212 43.709V30.6113V17.5H15.315H16.4087V30.7754ZM20.7837 31.7187V45.9375H20.1959C19.7447 45.9375 19.4986 45.8418 19.1021 45.5137L18.5962 45.1035V31.2949V17.5H19.69H20.7837V31.7187ZM25.1587 31.7187V45.9375H24.065H22.9712V31.7187V17.5H24.065H25.1587V31.7187ZM29.5337 31.7187V45.9375H28.44H27.3462V31.7187V17.5H28.44H29.5337V31.7187ZM33.9087 31.7187V45.9375H32.815H31.7212V31.7187V17.5H32.815H33.9087V31.7187ZM38.2837 31.7187V45.9375H37.19H36.0962V31.7187V17.5H37.19H38.2837V31.7187ZM42.6587 31.7187V45.9375H41.565H40.4712V31.7187V17.5H41.565H42.6587V31.7187ZM57.9986 18.5527L58.6275 19.6191L53.0904 19.6875L47.5533 19.7559L47.2935 20.084C47.0474 20.3848 47.0337 20.6992 47.0337 26.8242V33.2363L47.3755 33.5644L47.7037 33.9062H57.2193H66.7212V37.7344V41.5625H64.8755C63.0845 41.5625 63.0025 41.5762 62.688 41.9043C62.3599 42.2187 62.3462 42.3008 62.3462 44.0918V45.9375H60.6509H58.9693L58.2994 45.4043C56.8638 44.2695 55.5377 43.8184 53.5962 43.8184C51.6548 43.8184 50.3287 44.2695 48.8931 45.4043L48.2232 45.9375H46.5416H44.8462V31.7187V17.5H51.108H57.356L57.9986 18.5527ZM62.9341 26.7969L65.8873 31.7187H57.5611H49.2212V26.7969V21.875H54.608H59.981L62.9341 26.7969ZM66.7212 44.8437V45.9375H65.6275H64.5337V44.8437V43.75H65.6275H66.7212V44.8437ZM16.4634 46.457C17.7076 47.0312 18.5005 47.8242 19.1158 49.0547C19.5943 50.0391 19.6216 50.1621 19.6216 51.4062C19.6216 52.6504 19.5943 52.7734 19.1158 53.7578C18.5005 55.0019 17.7076 55.7676 16.4361 56.3691C15.6021 56.7656 15.397 56.8066 14.2212 56.8066C13.0455 56.8066 12.8404 56.7656 12.0064 56.3691C10.7349 55.7676 9.94195 55.0019 9.32671 53.7578C8.8482 52.7734 8.82085 52.6504 8.82085 51.4199C8.82085 50.2305 8.86187 50.0254 9.25835 49.1914C9.80523 48.0293 10.5845 47.1816 11.6099 46.6484C12.6763 46.0742 13.2779 45.9375 14.522 45.9922C15.356 46.0332 15.7798 46.1426 16.4634 46.457ZM55.8384 46.457C57.0826 47.0312 57.8755 47.8242 58.4908 49.0547C58.9693 50.0391 58.9966 50.1621 58.9966 51.4062C58.9966 52.6504 58.9693 52.7734 58.4908 53.7578C57.8755 55.0019 57.0826 55.7676 55.8111 56.3691C54.9771 56.7656 54.772 56.8066 53.5962 56.8066C52.4205 56.8066 52.2154 56.7656 51.3814 56.3691C50.1099 55.7676 49.3169 55.0019 48.7017 53.7578C48.2232 52.7734 48.1959 52.6504 48.1959 51.4199C48.1959 50.2305 48.2369 50.0254 48.6334 49.1914C49.1802 48.0293 49.9595 47.1816 50.9849 46.6484C52.0513 46.0742 52.6529 45.9375 53.897 45.9922C54.731 46.0332 55.1548 46.1426 55.8384 46.457ZM7.20757 48.2891C7.16656 48.3848 7.02984 48.8769 6.89312 49.3828L6.64703 50.3125H4.96539H3.28374V49.2187V48.125H5.27984C6.81109 48.125 7.26226 48.166 7.20757 48.2891ZM46.6236 48.166C46.6236 48.1934 46.5005 48.5762 46.3502 49.0137C46.1998 49.4512 46.0767 49.916 46.0767 50.0664C46.0767 50.2988 45.6392 50.3125 33.9087 50.3125C22.1783 50.3125 21.7408 50.2988 21.7408 50.0664C21.7408 49.916 21.6177 49.4512 21.4673 49.0137C21.3169 48.5762 21.1939 48.1934 21.1939 48.166C21.1939 48.1523 26.9224 48.125 33.9087 48.125C40.9087 48.125 46.6236 48.1523 46.6236 48.166ZM66.7212 49.2187V50.3125H63.9185C61.2798 50.3125 61.1158 50.2988 61.1158 50.0664C61.1158 49.916 60.9927 49.4512 60.8423 49.0137C60.6919 48.5762 60.5689 48.1934 60.5689 48.166C60.5689 48.1523 61.9498 48.125 63.6451 48.125H66.7212V49.2187Z" fill="#271291"/>
<path d="M47.0312 37.1875V38.2812H49.2188H51.4062V37.1875V36.0938H49.2188H47.0312V37.1875Z" fill="#271291"/>
<path d="M13.1274 48.3027C12.4575 48.5215 11.3091 49.6973 11.104 50.3945C10.7212 51.6797 10.9946 52.7051 11.9653 53.6621C13.3462 55.0566 15.0962 55.0566 16.477 53.6621C17.8169 52.3359 17.8579 50.627 16.5864 49.2188C15.6977 48.2344 14.4262 47.8926 13.1274 48.3027ZM14.9731 50.6543C15.1919 50.8594 15.3149 51.1465 15.3149 51.4063C15.3149 51.666 15.1919 51.9531 14.9731 52.1582C14.768 52.377 14.4809 52.5 14.2212 52.5C13.9614 52.5 13.6743 52.377 13.4692 52.1582C13.2505 51.9531 13.1274 51.666 13.1274 51.4063C13.1274 51.1465 13.2505 50.8594 13.4692 50.6543C13.6743 50.4355 13.9614 50.3125 14.2212 50.3125C14.4809 50.3125 14.768 50.4355 14.9731 50.6543Z" fill="#271291"/>
<path d="M52.5024 48.3027C51.8325 48.5215 50.6841 49.6973 50.479 50.3945C50.0962 51.6797 50.3696 52.7051 51.3403 53.6621C52.7212 55.0566 54.4712 55.0566 55.852 53.6621C57.1919 52.3359 57.2329 50.627 55.9614 49.2188C55.0727 48.2344 53.8012 47.8926 52.5024 48.3027ZM54.3481 50.6543C55.0317 51.3242 54.5532 52.5 53.5962 52.5C53.0356 52.5 52.5024 51.9668 52.5024 51.4063C52.5024 50.8457 53.0356 50.3125 53.5962 50.3125C53.8559 50.3125 54.143 50.4355 54.3481 50.6543Z" fill="#271291"/>
</svg>
