<svg width="70" height="70" viewBox="0 0 70 70" fill="none" xmlns="http://www.w3.org/2000/svg">
<path d="M12.373 1.43554C12.0449 1.74999 12.0312 1.83202 12.0312 3.62304V5.46874H6.9043H1.76367L1.43555 5.81054L1.09375 6.13866V35V63.8613L1.43555 64.1894L1.76367 64.5312H18.6074H35.4648L36.4219 65.1875C38.9648 66.9375 41.8359 68.0723 44.9531 68.5781C46.8125 68.8789 49.8887 68.8379 51.7617 68.4961C60.2383 66.9648 66.6641 60.6621 68.5234 52.0488C68.9473 50.0527 68.9473 46.0879 68.5234 44.0781C67.8945 41.1797 66.6094 38.2129 64.9688 35.8887C63.916 34.4258 61.7148 32.2519 60.1836 31.1719C56.8203 28.8066 53.1426 27.5488 49.0547 27.3848L47.0312 27.3027V16.7207V6.13866L46.6895 5.81054L46.3613 5.46874H41.2207H36.0938V3.62304C36.0938 1.83202 36.0801 1.74999 35.752 1.43554L35.4238 1.09374H24.0625H12.7012L12.373 1.43554ZM33.9062 6.56249V9.84374H24.0625H14.2188V6.56249V3.28124H24.0625H33.9062V6.56249ZM12.0312 9.50195C12.0312 11.293 12.0449 11.375 12.373 11.6894L12.7012 12.0312H24.0625H35.4238L35.752 11.6894C36.0801 11.375 36.0938 11.293 36.0938 9.50195V7.65624H40.4688H44.8438V17.623V27.5762L44.0645 27.7402C43.627 27.8223 43.1348 27.9316 42.9707 27.9726L42.6562 28.0547V21.4785V14.8887L42.3145 14.5605L41.9863 14.2187H24.0625H6.13867L5.81055 14.5605L5.46875 14.8887V36.0937V57.2988L5.81055 57.6269L6.13867 57.9687H18.0059H29.873L30.2559 58.6523C30.5977 59.2676 31.7051 60.7851 32.6211 61.8926L32.9902 62.3437H18.1289H3.28125V35V7.65624H7.65625H12.0312V9.50195ZM40.4688 22.5859V28.7793L39.4297 29.2441C38.0762 29.8594 36.2852 30.9805 35.041 32.0059L34.043 32.8125H27.4121H20.7812V33.9062V35H26.373H31.9785L31.1992 36.0937L30.4199 37.1875H25.6074H20.7812V38.2812V39.375H25.0332C28.3828 39.375 29.2715 39.416 29.2168 39.5391C28.6426 40.9199 28.3828 41.6035 28.1094 42.5469L27.7812 43.6816L24.2812 43.7226L20.7812 43.75V44.8437V45.9375H24.1445H27.5215L27.4258 46.3613C27.3848 46.5937 27.3438 47.0859 27.3438 47.4551V48.125H24.0625H20.7812V49.2187V50.3125H24.1035H27.4121L27.7129 51.8437C27.877 52.6914 28.1914 53.9219 28.4238 54.5781L28.8203 55.7812H18.2383H7.65625V36.0937V16.4062H24.0625H40.4688V22.5859ZM51.1055 29.7363C55.7402 30.4883 60.1426 33.1406 62.9727 36.9004C64.0527 38.3223 65.502 41.207 65.9531 42.8203C67.8125 49.3555 66.1309 56.1504 61.4414 60.9766C59.3633 63.1094 56.916 64.6953 54.1953 65.6387C50.3535 66.9648 45.9512 66.9785 42.1094 65.666C32.7305 62.4531 27.5488 52.4453 30.2969 42.8203C30.748 41.207 32.1973 38.3359 33.2773 36.9004C36.0801 33.1816 40.4004 30.5566 45.0488 29.75C46.5254 29.4902 49.5332 29.4902 51.1055 29.7363Z" fill="#271291"/>
<path d="M16.4062 6.5625V7.65625H17.5H18.5938V6.5625V5.46875H17.5H16.4062V6.5625Z" fill="#271291"/>
<path d="M29.5312 6.5625V7.65625H30.625H31.7188V6.5625V5.46875H30.625H29.5312V6.5625Z" fill="#271291"/>
<path d="M17.9102 19.8926L17.0352 20.7812H13.7676H10.5137L10.1855 21.123L9.84375 21.4512V25.1562V28.8613L10.1855 29.1895L10.5137 29.5312H14.2188H17.9238L18.252 29.1895L18.5938 28.8613V25.6074V22.3398L19.4824 21.4648C19.9746 20.9863 20.3711 20.5215 20.3711 20.4395C20.3711 20.2617 19.1133 19.0039 18.9219 19.0039C18.8535 19.0039 18.3887 19.4004 17.9102 19.8926ZM14.1777 23.625C13.8223 23.9805 13.5352 24.3359 13.5488 24.4043C13.5625 24.4863 13.9043 24.8418 14.3008 25.2109L15.0527 25.8945L15.7227 25.2246L16.4062 24.5547V25.9492V27.3438H14.2188H12.0312V25.1562V22.9688H13.4258H14.8203L14.1777 23.625Z" fill="#271291"/>
<path d="M20.7812 22.9688V24.0625H29.5312H38.2812V22.9688V21.875H29.5312H20.7812V22.9688Z" fill="#271291"/>
<path d="M20.7812 27.3438V28.4375H27.3438H33.9062V27.3438V26.25H27.3438H20.7812V27.3438Z" fill="#271291"/>
<path d="M36.0938 27.3438V28.4375H37.1875H38.2812V27.3438V26.25H37.1875H36.0938V27.3438Z" fill="#271291"/>
<path d="M17.9102 30.8301L17.0352 31.7188H13.7676H10.5137L10.1855 32.0605L9.84375 32.3887V36.0938V39.7988L10.1855 40.127L10.5137 40.4688H14.2188H17.9238L18.252 40.127L18.5938 39.7988V36.5449V33.2773L19.4824 32.4023C19.9746 31.9238 20.3711 31.459 20.3711 31.377C20.3711 31.1992 19.1133 29.9414 18.9219 29.9414C18.8535 29.9414 18.3887 30.3379 17.9102 30.8301ZM14.1777 34.5625C13.8223 34.918 13.5352 35.2734 13.5488 35.3418C13.5625 35.4238 13.9043 35.7793 14.3008 36.1484L15.0527 36.832L15.7227 36.1621L16.4062 35.4922V36.8867V38.2812H14.2188H12.0312V36.0938V33.9062H13.4258H14.8203L14.1777 34.5625Z" fill="#271291"/>
<path d="M17.9102 41.7676L17.0352 42.6562H13.7676H10.5137L10.1855 42.998L9.84375 43.3262V47.0312V50.7363L10.1855 51.0645L10.5137 51.4062H14.2188H17.9238L18.252 51.0645L18.5938 50.7363V47.4824V44.2148L19.4824 43.3398C19.9746 42.8613 20.3711 42.3965 20.3711 42.3145C20.3711 42.1367 19.1133 40.8789 18.9219 40.8789C18.8535 40.8789 18.3887 41.2754 17.9102 41.7676ZM14.1777 45.5C13.8223 45.8555 13.5352 46.2109 13.5488 46.2793C13.5625 46.3613 13.9043 46.7168 14.3008 47.0859L15.0527 47.7695L15.7227 47.0996L16.4062 46.4297V47.8242V49.2188H14.2188H12.0312V47.0312V44.8438H13.4258H14.8203L14.1777 45.5Z" fill="#271291"/>
<path d="M37.0279 36.873C35.3873 38.5137 34.0064 39.9902 33.9654 40.1543C33.9244 40.3184 33.9244 40.5918 33.9791 40.7695C34.0884 41.125 38.8736 46.0195 39.7076 46.6348C40.1724 46.9902 40.3502 47.0313 41.2115 47.0313C42.1822 47.0313 42.2095 47.0449 42.7291 47.5781L43.2623 48.125L42.6744 48.7266L42.1002 49.3145L40.815 49.2461C39.7896 49.1914 39.3658 49.2324 38.6138 49.4648C35.2779 50.4902 33.2681 53.9492 34.1158 57.2168C34.3892 58.2285 34.7584 58.6523 35.3736 58.6523C35.7838 58.6523 36.0299 58.4746 37.315 57.2168L38.7916 55.7813H39.6256H40.4732V56.6426V57.4902L39.0377 58.9258C37.7525 60.2109 37.6021 60.4023 37.6021 60.8535C37.6021 61.5781 38.0259 61.8926 39.3248 62.166C43.4537 63 47.2955 59.5684 46.9947 55.2891C46.9127 54.2363 46.9263 54.1543 47.2545 53.8535L47.5826 53.5391L51.9302 57.8594C54.6509 60.5801 56.4009 62.2207 56.6334 62.2754C56.8248 62.3301 57.1256 62.2891 57.317 62.207C57.7271 61.9883 61.4459 58.3379 61.9517 57.6406C62.1705 57.3535 62.3482 56.9434 62.3482 56.752C62.3482 56.4785 61.4322 55.4941 57.9459 51.9941L53.5435 47.5781L53.9127 47.1953C54.2818 46.8125 54.3091 46.8125 55.0884 46.9355C56.0865 47.0996 57.6861 46.7988 58.7799 46.252C61.4185 44.9121 62.8677 41.7539 62.1431 38.8965C62.0064 38.377 61.8013 37.9668 61.5826 37.7617C60.94 37.2012 60.6666 37.3242 58.9986 38.9648L57.481 40.4688H56.6334H55.7857V39.6211V38.7871L57.2213 37.3105C58.5611 35.9434 58.6568 35.8066 58.6568 35.2871C58.6568 34.877 58.5748 34.6855 58.315 34.4668C57.5494 33.8652 55.3072 33.7285 53.8443 34.1797C50.8775 35.0957 49.0455 37.8164 49.2779 40.9609L49.3599 42.0547L48.7447 42.6563L48.1295 43.2578L47.5826 42.7246L47.0357 42.1914V41.0977V39.9902L43.9869 36.9551C41.2115 34.166 40.9107 33.9063 40.4732 33.9063C40.0494 33.9063 39.7486 34.166 37.0279 36.873ZM54.4459 36.9688L53.5982 37.8438V39.8535V41.8633L53.9947 42.2598L54.3912 42.6563H56.2916C58.4107 42.6563 58.3834 42.6563 59.5045 41.5898L60.147 40.9609L60.0103 41.5078C59.7642 42.3828 59.3951 42.9707 58.7252 43.5996C57.5767 44.6523 56.2095 45.0215 54.7877 44.6387C54.3502 44.5293 53.899 44.4336 53.7896 44.4336C53.6666 44.4336 53.2154 44.7754 52.7642 45.1992C52.067 45.8691 51.8892 45.9785 51.4107 45.9922C50.9322 46.0059 50.7818 45.9238 50.2896 45.4316L49.7291 44.8574L50.7134 43.8047L51.7115 42.7656L51.6295 42.0547C51.3834 40.1543 51.3834 39.9492 51.6021 39.1973C51.7252 38.7734 52.0259 38.1719 52.272 37.8438C52.942 36.9688 54.2408 36.1621 55.0884 36.1074C55.1978 36.0938 54.897 36.4902 54.4459 36.9688ZM42.6881 38.7871L44.8482 40.9473V41.9043C44.8482 42.5742 44.9166 42.9707 45.067 43.2031C45.19 43.3945 46.1881 44.4473 47.2955 45.5684L49.2916 47.5781L48.4439 48.4258L47.5826 49.2871L45.3541 47.0586L43.1256 44.8438H42.0318H40.9517L38.7642 42.6563L36.5767 40.4688L38.4908 38.5547C39.5435 37.502 40.4322 36.6406 40.4732 36.6406C40.5142 36.6406 41.5123 37.6113 42.6881 38.7871ZM55.5806 52.7734L59.6822 56.875L58.274 58.2695L56.8795 59.6777L52.7506 55.5488L48.608 51.4063L49.9752 50.0391C50.7271 49.2871 51.3697 48.6719 51.4107 48.6719C51.4517 48.6719 53.3248 50.5176 55.5806 52.7734ZM45.5318 50.2441C45.9146 50.6406 46.0103 50.8457 46.0103 51.3105C46.024 51.8301 45.942 51.9668 45.272 52.6641L44.5338 53.4434L44.6431 54.2363C44.9713 56.4922 44.6568 57.75 43.4674 58.8574C42.7838 59.5 41.8541 60.0059 41.3619 60.0195C41.1431 60.0195 41.1978 59.9102 41.649 59.4316C42.6607 58.3789 42.6607 58.3926 42.6607 56.2188C42.6607 54.332 42.647 54.25 42.3189 53.9355C42.0045 53.6074 41.9361 53.5938 39.9263 53.5938H37.8482L36.9595 54.4414C36.1392 55.248 36.0845 55.2754 36.1666 54.8926C36.3443 54.1133 36.9322 53.0742 37.4654 52.582C38.4361 51.707 39.024 51.4883 40.3365 51.4883C40.9791 51.4883 41.7857 51.543 42.1275 51.5977L42.7701 51.707L43.7681 50.7363C44.3287 50.2168 44.8482 49.7656 44.9302 49.7656C44.9986 49.7656 45.272 49.9844 45.5318 50.2441Z" fill="#271291"/>
</svg>
