<svg width="70" height="70" viewBox="0 0 70 70" fill="none" xmlns="http://www.w3.org/2000/svg">
<g clip-path="url(#clip0_218_735)">
<path d="M32.0441 0.328125C31.7023 0.615234 31.6613 0.765625 31.593 1.70898L31.5109 2.76172L30.6906 3.07617C30.2394 3.24023 29.7062 3.45898 29.5012 3.55469C29.1457 3.71875 29.091 3.69141 28.3664 3.02148C27.7375 2.46094 27.5051 2.32422 27.1086 2.32422C26.6574 2.32422 26.4523 2.48828 24.9484 3.96484L23.2941 5.60547H20.5461H17.798L17.634 5.19531C17.3879 4.59375 16.3762 3.75977 15.6515 3.55469C13.4367 2.93945 11.3449 4.48438 11.3449 6.76758C11.3449 9.0918 13.4777 10.6367 15.7473 9.95312C16.4035 9.76172 17.4015 8.91406 17.634 8.33984L17.798 7.92969H20.5598H23.3215L23.718 8.33984L24.1144 8.75L23.7453 9.5293C23.5539 9.9668 23.2941 10.5547 23.1848 10.8281L22.9797 11.3477H21.968C20.6555 11.3477 20.3683 11.5938 20.3683 12.7559V13.5352H15.7336H11.1125L10.7023 12.8652C9.66327 11.1973 7.25702 10.8281 5.76678 12.1133C3.86639 13.7266 4.2492 16.6797 6.47772 17.7188C8.03631 18.4434 9.81366 17.9238 10.7297 16.4609L11.1125 15.8594H15.7336H20.3683V16.6113C20.3683 17.2402 20.423 17.4316 20.7101 17.7051C20.9973 18.0059 21.1613 18.0469 22.05 18.0469H23.048L23.3078 18.7578C23.4445 19.1543 23.6769 19.7148 23.8137 20.002L24.0734 20.5352L23.3898 21.2598C22.5969 22.0938 22.4465 22.5039 22.7336 23.0508C22.8566 23.2695 23.7726 24.2676 24.7844 25.252C27.0129 27.4668 27.0676 27.4805 28.298 26.3047L29.091 25.5527L29.7609 25.8809C30.1164 26.0723 30.6769 26.291 30.9777 26.3867L31.5519 26.5645L31.6066 27.6309C31.6476 28.5332 31.7023 28.752 31.9621 29.0117C32.2629 29.3125 32.3449 29.3262 34.9973 29.3262C37.6359 29.3262 37.7316 29.3125 38.0324 29.0254C38.2785 28.7793 38.3469 28.5059 38.4016 27.6719L38.4836 26.6191L39.7141 26.1133L40.9445 25.6074L41.7238 26.3457C42.9133 27.4668 43.009 27.4395 45.1144 25.3613L46.8371 23.6523H49.4348H52.0324L52.4973 24.3633C52.798 24.8008 53.2355 25.2383 53.6457 25.498C54.2336 25.8535 54.4523 25.9082 55.2863 25.9082C56.0109 25.8945 56.3937 25.8262 56.8176 25.6074C57.5285 25.2246 58.3351 24.3086 58.5129 23.666C59.1555 21.3555 57.6242 19.2363 55.3273 19.2363C54.0422 19.2363 52.798 20.002 52.3332 21.082L52.1555 21.4648H49.4894H46.8098L46.3586 21L45.9074 20.5352L46.2492 19.8789C46.4406 19.5098 46.6594 18.9492 46.7551 18.6211L46.9328 18.0469H47.9445C48.8332 18.0469 48.9973 18.0059 49.2844 17.7051C49.5715 17.4316 49.6262 17.2402 49.6262 16.6113V15.8594H54.2609H58.882L59.2648 16.4609C60.7961 18.8945 64.3781 18.4297 65.2941 15.6816C65.718 14.4102 65.3078 13.0293 64.2277 12.1133C62.7375 10.8281 60.3312 11.1973 59.2922 12.8652L58.882 13.5352H54.2609H49.6262V12.7422C49.6262 11.5938 49.3391 11.3477 47.9992 11.3477H47.0148L46.8098 10.8281C46.7004 10.5547 46.4406 9.9668 46.2492 9.5293L45.8801 8.75L46.6183 7.99805C47.2336 7.36914 47.3566 7.16406 47.3566 6.75391C47.3566 6.30273 47.1926 6.11133 45.3742 4.29297C43.5558 2.48828 43.3508 2.32422 42.8996 2.32422C42.4894 2.32422 42.257 2.44727 41.6281 3.02148C40.9035 3.69141 40.8488 3.71875 40.4933 3.55469C40.2883 3.45898 39.7551 3.24023 39.3039 3.07617L38.4836 2.76172L38.4016 1.70898C38.3332 0.765625 38.2922 0.615234 37.9504 0.328125C37.5949 0.0136719 37.5129 0 34.9973 0C32.4816 0 32.3996 0.0136719 32.0441 0.328125ZM36.1183 3.21289C36.1867 4.33398 36.3644 4.51172 37.7316 4.92188C38.2922 5.08594 39.2082 5.45508 39.7551 5.75586C41.0812 6.4668 41.3957 6.45312 42.257 5.64648L42.9406 5.00391L43.8156 5.87891L44.7043 6.75391L44.1027 7.38281C43.2141 8.28516 43.2004 8.51758 43.925 9.93945C44.2668 10.5957 44.6633 11.5801 44.8273 12.127C45.1965 13.3438 45.4289 13.5352 46.5773 13.5352H47.4387V14.6973V15.8594H46.509C45.3469 15.8594 45.1008 16.0781 44.7726 17.3633C44.6496 17.8418 44.2668 18.7852 43.925 19.4551C43.2004 20.8633 43.2141 21.0547 44.0891 21.998L44.6906 22.6406L43.8156 23.5156L42.9406 24.3906L42.257 23.748C41.4094 22.9551 41.0676 22.9277 39.8508 23.584C39.3449 23.8438 38.4289 24.2129 37.8 24.418C37.1711 24.6094 36.5422 24.8965 36.4191 25.0469C36.2551 25.2246 36.1594 25.5938 36.1183 26.1953L36.0637 27.0703H34.9973H33.9308L33.8762 26.1953C33.8078 25.0742 33.6027 24.8555 32.3859 24.4727C31.8664 24.3223 30.882 23.9121 30.1848 23.584C29.3644 23.1738 28.8312 22.9961 28.6535 23.0508C28.4894 23.0918 28.0793 23.4199 27.7101 23.7617L27.0676 24.3906L26.1789 23.5156L25.3039 22.6406L25.9055 21.998C26.7941 21.041 26.8078 20.8633 26.0012 19.2363C25.6183 18.4707 25.2492 17.5273 25.1535 17.1582C24.9074 16.0918 24.6066 15.8594 23.4855 15.8594H22.5558V14.6973V13.5352H23.4172C24.593 13.5352 24.7844 13.3711 25.2219 11.9629C25.4133 11.334 25.8234 10.3496 26.1242 9.76172C26.7941 8.51758 26.7668 8.27148 25.8918 7.38281L25.2902 6.75391L26.1652 5.89258L27.0539 5.01758L27.7512 5.64648C28.1887 6.04297 28.5988 6.28906 28.7902 6.28906C28.9816 6.28906 29.5969 6.04297 30.1848 5.75586C30.7726 5.45508 31.716 5.08594 32.2629 4.92188C33.6301 4.51172 33.8078 4.32031 33.8762 3.21289L33.9308 2.32422H34.9973H36.0637L36.1183 3.21289ZM15.091 5.79688C15.6789 6.04297 15.8976 6.60352 15.6379 7.21875C15.3098 8.01172 14.339 8.10742 13.7922 7.41016C13.2863 6.75391 13.7101 5.81055 14.5988 5.61914C14.6125 5.60547 14.8449 5.6875 15.091 5.79688ZM8.37811 13.6855C9.03436 13.9863 9.19842 14.8203 8.71991 15.3672C8.04999 16.1055 6.83319 15.6953 6.83319 14.7246C6.83319 13.8086 7.57147 13.3164 8.37811 13.6855ZM62.9289 13.959C63.0519 14.123 63.1613 14.4512 63.1613 14.6836C63.1613 15.6953 61.9719 16.1328 61.2883 15.3672C60.9465 14.9844 60.9055 14.6699 61.1242 14.1641C61.425 13.4941 62.4367 13.3848 62.9289 13.959ZM56.0246 21.7383C56.4348 22.1211 56.5168 22.5859 56.2707 23.0781C56.0383 23.5293 55.8058 23.6523 55.2453 23.6523C54.2883 23.6523 53.8918 22.4355 54.6301 21.7656C55.0539 21.3965 55.6281 21.3828 56.0246 21.7383Z" fill="#271291"/>
<path d="M32.9947 7.04102C29.0435 8.10742 26.4595 12.1816 27.2525 16.0645C27.8404 18.9355 29.8364 21.2461 32.5161 22.1758C33.2681 22.4355 33.7193 22.4902 35.0044 22.4902C36.2896 22.4902 36.7407 22.4355 37.4927 22.1758C40.1724 21.2461 42.1685 18.9355 42.7564 16.0645C43.5493 12.1406 40.938 8.08008 36.9595 7.04102C35.9888 6.78125 33.938 6.79492 32.9947 7.04102ZM35.9614 9.16016C38.8462 9.70703 40.7466 12.1406 40.5825 15.0527C40.3911 18.3066 37.3833 20.7266 34.1568 20.2207C31.5591 19.8105 29.5767 17.6504 29.4263 15.0527C29.2896 12.7148 30.5337 10.5684 32.5708 9.63867C33.8286 9.06445 34.772 8.92773 35.9614 9.16016Z" fill="#271291"/>
<path d="M0.396484 29.6543L0.0683594 29.9141L0.0273438 43.9414L0 57.9824L0.328125 58.3105L0.669922 58.6523H4.51172H8.35352L8.68164 58.3105C8.96875 58.0371 9.02344 57.8457 9.02344 57.2168V56.4648H13.5215H18.0195L18.1152 57.1074C18.4023 59.1172 19.9062 60.6211 21.9023 60.9082C22.5312 61.0039 22.5312 61.0039 22.627 61.6328C22.9141 63.6152 24.459 65.1738 26.4141 65.4336L27.043 65.5156L27.1797 66.3086C27.4531 67.8398 28.2871 68.9336 29.6543 69.5762C30.2695 69.8633 30.625 69.9316 31.4453 69.9316C32.6895 69.9316 33.5645 69.5762 34.4258 68.7285L35 68.168L35.5879 68.7285C36.4355 69.5762 37.3105 69.9316 38.5547 69.9316C40.7559 69.9316 42.4238 68.5234 42.8203 66.3086L42.957 65.5156L43.5859 65.4336C45.541 65.1738 47.0859 63.6152 47.373 61.6465C47.4688 61.0039 47.4688 61.0039 48.0977 60.9219C50.0664 60.6621 51.5977 59.1035 51.8848 57.1074L51.9805 56.4648H56.4785H60.9766V57.2168C60.9766 57.8457 61.0312 58.0371 61.3184 58.3105L61.6465 58.6523H65.4883H69.3301L69.6719 58.3105L70 57.9824L69.9727 43.9414L69.9316 29.9141L69.6035 29.6543C69.3027 29.4082 69.0293 29.3945 65.4609 29.3945H61.6465L61.3184 29.7363C61.0312 30.0098 60.9766 30.2012 60.9766 30.8301V31.582H47.3594C37.6387 31.582 33.6602 31.623 33.4551 31.7324C33.291 31.8145 32.7988 32.2383 32.3613 32.6484L31.582 33.4141L30.6934 32.5391L29.791 31.6504L19.4141 31.6094L9.02344 31.582V30.8164C9.02344 30.2012 8.96875 30.0098 8.68164 29.7363L8.35352 29.3945H4.53906C0.970703 29.3945 0.697266 29.4082 0.396484 29.6543ZM6.80859 44.0508L6.83594 56.4648H4.58008H2.32422V44.0234V31.582L4.55273 31.6094L6.76758 31.6504L6.80859 44.0508ZM67.6758 44.0234V56.4648H65.4199H63.1641V44.1191C63.1641 37.3242 63.2051 31.7188 63.2598 31.6777C63.3008 31.623 64.3262 31.582 65.5156 31.582H67.6758V44.0234ZM31.2676 36.2578C34.084 39.1152 34.2891 39.5391 33.4961 40.8379C32.9766 41.6992 31.623 42 30.7344 41.4395C30.4883 41.2891 29.2441 40.1133 27.959 38.8418L25.6348 36.5039L24.8555 37.2832L24.0625 38.0625L24.5 38.5137L24.9375 38.9648L19.5918 44.3379C13.8223 50.1074 13.7539 50.1895 13.5898 51.7754C13.5215 52.377 13.5762 52.7461 13.7812 53.3477L14.0547 54.1406H11.5391H9.02344V44.0234V33.9062H18.9766H28.9297L31.2676 36.2578ZM60.9766 44.0234V54.1406H58.4609H55.9453L56.2188 53.3477C56.4238 52.7461 56.4785 52.377 56.4102 51.7754C56.2598 50.2578 56.041 49.9707 52.2539 46.1699C48.2207 42.123 47.8242 41.8359 46.1973 41.8359C43.9004 41.8359 42.123 43.3672 41.8496 45.582L41.7676 46.2793L41.0703 46.3613C39.0879 46.6074 37.584 48.1113 37.3379 50.0938L37.2559 50.791L36.5586 50.873C34.6035 51.1191 33.0859 52.5957 32.8398 54.5234L32.7441 55.3027L32.0469 55.3848C30.1191 55.6172 28.6152 57.0664 28.3281 58.9531C28.1914 59.8418 28.3281 60.8125 28.6836 61.5234L28.9434 62.0566L28.5195 62.4531C27.9316 63.0137 27.5898 63.1641 26.9062 63.1641C25.457 63.1641 24.5 61.7285 25.0195 60.3477C25.1016 60.1426 25.7852 59.3496 26.5234 58.584L27.8906 57.2031L27.0977 56.4238L26.3184 55.6445L25.0195 56.957C23.543 58.4473 23.2148 58.6523 22.3945 58.6523C21.2598 58.6523 20.3711 57.75 20.3711 56.6016C20.3711 55.8223 20.5078 55.6172 22.0938 54.0039L23.3789 52.7051L22.5859 51.9121L21.8066 51.1328L20.5078 52.4453C19.0312 53.9355 18.7031 54.1406 17.8828 54.1406C16.3926 54.1406 15.3672 52.459 16.0508 51.1602C16.1602 50.9551 18.5664 48.4805 21.3828 45.6777L26.5098 40.5508L27.918 41.918C29.6953 43.6406 30.2832 43.9551 31.7871 43.9551C32.7031 43.9551 33.0039 43.9004 33.6465 43.5723C35.2598 42.793 36.1758 41.2207 36.0664 39.4434C35.9844 38.1582 35.6289 37.502 34.2754 36.1348L33.168 35L33.7012 34.4531L34.2344 33.9062H47.6055H60.9766V44.0234ZM46.9355 44.2422C47.4551 44.502 53.6621 50.627 53.9492 51.1602C54.2227 51.6934 54.1953 52.623 53.8672 53.1562C53.3203 54.0449 52.0488 54.4141 51.1602 53.9492C50.627 53.6621 44.502 47.4551 44.2422 46.9355C43.4219 45.2949 45.2949 43.4219 46.9355 44.2422ZM42.3555 48.7402C42.875 48.959 48.4531 54.373 49.2324 55.4258C50.2305 56.7656 49.2734 58.6523 47.6055 58.6523C47.2773 58.6523 46.8535 58.5703 46.6484 58.4609C46.4434 58.3516 44.7891 56.7656 42.9844 54.9336C39.498 51.4199 39.375 51.2695 39.5664 50.2441C39.7305 49.3828 40.6875 48.5488 41.5352 48.5352C41.6992 48.5352 42.0684 48.6309 42.3555 48.7402ZM37.8438 53.2656C38.459 53.5117 44.5977 59.582 44.9121 60.2383C45.5547 61.6055 44.5977 63.1641 43.0938 63.1641C42.7656 63.1641 42.3418 63.082 42.1367 62.9727C41.9316 62.8633 40.2773 61.2773 38.4727 59.4453C34.9863 55.9316 34.8633 55.7812 35.0547 54.7559C35.2188 53.8945 36.1758 53.0605 37.0234 53.0469C37.1875 53.0469 37.5566 53.1426 37.8438 53.2656ZM33.332 57.7773C33.9473 58.0234 40.0859 64.0938 40.4004 64.75C41.1797 66.3906 39.7305 68.0586 37.9121 67.6211C37.666 67.5527 36.3672 66.3633 34.1387 64.1484C30.543 60.5664 30.3516 60.3066 30.543 59.2812C30.707 58.4062 31.6641 57.5723 32.5117 57.5586C32.6758 57.5586 33.0449 57.6543 33.332 57.7773ZM31.9922 65.1465L33.4141 66.5684L33.0859 66.9375C32.5254 67.5254 32.0332 67.7168 31.2129 67.6484C29.4082 67.498 28.7793 65.4473 30.1055 64.0117C30.2695 63.8477 30.4336 63.7109 30.4746 63.7109C30.5293 63.7109 31.1992 64.3535 31.9922 65.1465Z" fill="#271291"/>
</g>
<defs>
<clipPath id="clip0_218_735">
<rect width="70" height="70" fill="white"/>
</clipPath>
</defs>
</svg>
