<svg width="70" height="70" viewBox="0 0 70 70" fill="none" xmlns="http://www.w3.org/2000/svg">
<path d="M10.1855 1.43555C9.84375 1.76367 9.84375 1.79102 9.84375 4.375C9.84375 6.95898 9.84375 6.98633 10.1855 7.31445C10.459 7.60156 10.6504 7.65625 11.2793 7.65625H12.0312V19.6875V31.7188H11.2793C10.6504 31.7188 10.459 31.7734 10.1855 32.0605C9.84375 32.3887 9.84375 32.416 9.84375 35C9.84375 37.584 9.84375 37.6113 10.1855 37.9395C10.459 38.2266 10.6504 38.2812 11.2793 38.2812H12.0312V50.3125V62.3438H11.2793C10.6504 62.3438 10.459 62.3984 10.1855 62.6855C9.84375 63.0137 9.84375 63.041 9.84375 65.625C9.84375 68.209 9.84375 68.2363 10.1855 68.5645L10.5137 68.9062H18.5938H26.6738L27.002 68.5645C27.3438 68.2363 27.3438 68.209 27.3438 65.625C27.3438 63.041 27.3438 63.0137 27.002 62.6855C26.7285 62.3984 26.5371 62.3438 25.9082 62.3438H25.1562V50.3125V38.2812H25.9082C26.5371 38.2812 26.7285 38.2266 27.002 37.9395C27.3438 37.6113 27.3438 37.584 27.3438 35C27.3438 32.416 27.3438 32.3887 27.002 32.0605C26.7285 31.7734 26.5371 31.7188 25.9082 31.7188H25.1562V19.6875V7.65625H25.9082C26.5371 7.65625 26.7285 7.60156 27.002 7.31445C27.3438 6.98633 27.3438 6.95898 27.3438 4.375C27.3438 1.79102 27.3438 1.76367 27.002 1.43555L26.6738 1.09375H18.5938H10.5137L10.1855 1.43555ZM25.1562 4.375V5.46875H18.5938H12.0312V4.375V3.28125H18.5938H25.1562V4.375ZM22.9688 8.75V9.84375H18.5938H14.2188V8.75V7.65625H18.5938H22.9688V8.75ZM22.9688 19.6875V27.3438H18.5938H14.2188V19.6875V12.0312H18.5938H22.9688V19.6875ZM22.9688 30.625V31.7188H18.5938H14.2188V30.625V29.5312H18.5938H22.9688V30.625ZM25.1562 35V36.0938H18.5938H12.0312V35V33.9062H18.5938H25.1562V35ZM22.9688 39.375V40.4688H18.5938H14.2188V39.375V38.2812H18.5938H22.9688V39.375ZM22.9688 50.3125V57.9688H18.5938H14.2188V50.3125V42.6562H18.5938H22.9688V50.3125ZM22.9688 61.25V62.3438H18.5938H14.2188V61.25V60.1562H18.5938H22.9688V61.25ZM25.1562 65.625V66.7188H18.5938H12.0312V65.625V64.5312H18.5938H25.1562V65.625Z" fill="#271291"/>
<path d="M53.9355 7.99804C53.6484 8.27148 53.5938 8.46289 53.5938 9.09179V9.84375H49.8066C47.7148 9.84375 45.582 9.91211 45.0488 9.98046C41.6309 10.4727 38.6367 11.9629 36.2305 14.3555C33.8379 16.7617 32.3477 19.7559 31.8555 23.1738C31.7871 23.6934 31.7188 25.8398 31.7188 27.918V31.7187H30.9668C30.3379 31.7187 30.1465 31.7734 29.873 32.0605C29.5312 32.3887 29.5312 32.416 29.5312 35C29.5312 37.584 29.5312 37.6113 29.873 37.9395C30.1465 38.2266 30.3379 38.2812 30.9668 38.2812H31.7188V50.3125V62.3437H30.9668C30.3379 62.3437 30.1465 62.3984 29.873 62.6855C29.5312 63.0137 29.5312 63.041 29.5312 65.625C29.5312 68.209 29.5312 68.2363 29.873 68.5645L30.2012 68.9062H38.2813H46.3613L46.6895 68.5645C47.0313 68.2363 47.0313 68.209 47.0313 65.625C47.0313 63.041 47.0313 63.0137 46.6895 62.6855C46.416 62.3984 46.2246 62.3437 45.5957 62.3437H44.8438V50.3125V38.2812H45.5957C46.2246 38.2812 46.416 38.2266 46.6895 37.9395C47.0313 37.6113 47.0313 37.584 47.0313 35C47.0313 32.416 47.0313 32.3887 46.6895 32.0605C46.416 31.7734 46.2246 31.7187 45.5957 31.7187H44.8438V28.7656C44.8438 25.2519 44.9121 24.9512 45.8691 23.9941C46.8262 23.0371 47.127 22.9687 50.6406 22.9687H53.5938V23.7207C53.5938 24.3496 53.6484 24.541 53.9355 24.8144C54.2637 25.1562 54.291 25.1562 56.875 25.1562C59.459 25.1562 59.4863 25.1562 59.8145 24.8144L60.1563 24.4863V16.4062V8.32617L59.8145 7.99804C59.4863 7.65625 59.459 7.65625 56.875 7.65625C54.291 7.65625 54.2637 7.65625 53.9355 7.99804ZM57.9688 16.4062V22.9687H56.875H55.7813V16.4062V9.84375H56.875H57.9688V16.4062ZM49.2188 16.3926V20.7402L48.002 20.8086C45.8145 20.9316 44.1875 21.9844 43.2578 23.8711C42.834 24.7324 42.752 25.0332 42.6836 26.0996L42.6152 27.3437H38.2402H33.8652L33.9473 25.1836C34.084 21.1641 35.2051 18.4707 37.8574 15.8594C39.9492 13.7812 42.2734 12.6328 45.3906 12.1269C45.582 12.0996 46.5117 12.0586 47.4824 12.0449L49.2188 12.0312V16.3926ZM53.5938 16.4062V20.7812H52.5H51.4063V16.4062V12.0312H52.5H53.5938V16.4062ZM42.6563 30.625V31.7187H38.2813H33.9063V30.625V29.5312H38.2813H42.6563V30.625ZM44.8438 35V36.0937H38.2813H31.7188V35V33.9062H38.2813H44.8438V35ZM42.6563 39.375V40.4687H38.2813H33.9063V39.375V38.2812H38.2813H42.6563V39.375ZM42.6563 50.3125V57.9687H38.2813H33.9063V50.3125V42.6562H38.2813H42.6563V50.3125ZM42.6563 61.25V62.3437H38.2813H33.9063V61.25V60.1562H38.2813H42.6563V61.25ZM44.8438 65.625V66.7187H38.2813H31.7188V65.625V64.5312H38.2813H44.8438V65.625Z" fill="#271291"/>
</svg>
