<svg width="70" height="70" viewBox="0 0 70 70" fill="none" xmlns="http://www.w3.org/2000/svg">
<g clip-path="url(#clip0_218_714)">
<path d="M0.601562 4.67578C0.4375 4.74414 0.232422 4.96289 0.150391 5.14062C0.0410156 5.38672 0 11.8262 0 28.3145V51.1602L0.396484 51.5566L0.792969 51.9531H15.6406H30.4883V54.209V56.4648H24.4043C20.5625 56.4648 18.0742 56.5195 17.6094 56.6152C17.2129 56.6973 16.3652 57.0117 15.7227 57.3125C13.1523 58.543 11.3477 61.3047 11.3477 64.0254C11.3477 64.6816 11.4023 64.873 11.6895 65.1465L12.0176 65.4883H35H57.9824L58.3105 65.1465C58.5977 64.873 58.6523 64.6816 58.6523 64.0254C58.6523 60.7168 55.9863 57.4629 52.623 56.6699C51.9121 56.5059 50.5996 56.4648 45.6367 56.4648H39.5117V54.209V51.9531H54.3594H69.207L69.6035 51.5566L70 51.1602V28.3145C70 11.8672 69.959 5.38672 69.8496 5.1543C69.7676 4.96289 69.5488 4.74414 69.3574 4.66211C68.9062 4.45703 1.02539 4.4707 0.601562 4.67578ZM67.6758 28.2324V49.6289H35H2.32422V28.2324V6.83594H35H67.6758V28.2324ZM37.2969 54.168L37.2559 56.3965H35H32.7441L32.7031 54.168L32.6758 51.9531H35H37.3242L37.2969 54.168ZM51.5977 58.7891C53.7852 59.1445 55.6582 60.7715 56.2598 62.8496L56.3418 63.1641H35H13.6582L13.7402 62.8496C14.3281 60.8398 16.2148 59.1445 18.2793 58.7891C19.2363 58.6387 50.6133 58.625 51.5977 58.7891Z" fill="#271291"/>
<path d="M5.11719 9.1875C4.95312 9.25586 4.74805 9.47461 4.66602 9.65234C4.55664 9.89843 4.51562 15.1484 4.51562 28.3145V46.6484L4.91211 47.0449L5.30859 47.4414H35.0039H64.6992L65.0957 47.0449L65.4922 46.6484V28.3145C65.4922 15.1758 65.4512 9.89843 65.3418 9.66601C65.2598 9.47461 65.041 9.25586 64.8496 9.17382C64.3984 8.96875 5.54102 8.98242 5.11719 9.1875ZM63.168 28.2324V45.1172H35.0039H6.83984V28.2324V11.3477H35.0039H63.168V28.2324Z" fill="#271291"/>
<path d="M17.0898 18.1152C12.9883 20.6309 9.50195 22.8457 9.33789 23.0508C9.02344 23.3926 9.02344 23.4062 9.02344 28.2324C9.02344 33.0586 9.02344 33.0723 9.33789 33.4141C9.73438 33.8652 24.2402 42.7793 24.7188 42.875C25.0195 42.9434 26.373 42.1504 32.6621 38.2949C36.832 35.7246 40.3184 33.5234 40.4141 33.3867C40.5645 33.209 40.5918 32.0879 40.6055 28.1914V23.2285L40.2773 22.9277C40.0996 22.7637 37.3516 21.0273 34.166 19.0723C25.6895 13.8633 25.1426 13.5352 24.8281 13.5352C24.6641 13.5352 21.1914 15.5996 17.0898 18.1152ZM37.2285 23.6387C37.3242 23.7344 32.3066 26.8926 32.1426 26.8379C32.1016 26.8242 30.6934 25.9766 29.0254 24.9512L25.9766 23.0781V19.8926V16.6934L31.5547 20.125C34.6172 22.0117 37.1602 23.584 37.2285 23.6387ZM23.625 19.9883L23.584 23.1602L20.6445 24.9785C19.0312 25.9766 17.623 26.7969 17.5273 26.7969C17.1992 26.7969 12.3184 23.7207 12.4824 23.625C21.4648 18.0742 23.4609 16.8437 23.5566 16.8301C23.6113 16.8164 23.6387 18.2383 23.625 19.9883ZM27.4805 26.6602C28.7246 27.4258 29.791 28.0957 29.8457 28.1641C29.9414 28.2461 25.334 31.2129 24.9102 31.3496C24.7871 31.3769 19.6738 28.2734 19.7422 28.1914C19.7695 28.1641 20.9316 27.4531 22.2988 26.6055C24.0352 25.5254 24.8828 25.0879 25.0195 25.1562C25.1426 25.2246 26.25 25.8945 27.4805 26.6602ZM13.3574 27.0019C14.3965 27.6445 15.2305 28.2051 15.2168 28.2461C15.1895 28.3281 11.498 30.625 11.4023 30.625C11.375 30.625 11.3477 29.5449 11.3477 28.2324C11.3477 26.9199 11.375 25.8398 11.416 25.8398C11.4434 25.8398 12.3184 26.3594 13.3574 27.0019ZM38.418 28.2461C38.418 30.2969 38.3906 30.6387 38.2266 30.584C37.6113 30.3516 34.4531 28.2461 34.5488 28.1504C34.7266 27.9727 38.1992 25.8398 38.3223 25.8398C38.377 25.8398 38.418 26.9199 38.418 28.2461ZM20.5215 31.418L23.584 33.3047L23.625 36.4902C23.6387 38.2402 23.6113 39.6484 23.543 39.6211C23.4746 39.6074 20.9316 38.0352 17.8691 36.1621L12.3184 32.7441L12.8242 32.4434C13.0977 32.2793 14.2598 31.5547 15.3809 30.8437C16.5156 30.1328 17.4453 29.5449 17.4453 29.5449C17.459 29.5312 18.8535 30.3789 20.5215 31.418ZM34.918 31.2266C36.2441 32.0469 37.2832 32.7578 37.2285 32.8125C37.0098 33.0039 26.1543 39.6484 26.0586 39.6484C26.0176 39.6484 25.9902 38.2266 26.0039 36.4902L26.0449 33.332L29.1211 31.4453C30.8164 30.4062 32.2656 29.5996 32.3477 29.6406C32.4297 29.6953 33.5781 30.4062 34.918 31.2266Z" fill="#271291"/>
<path d="M48.0527 13.6992C47.4375 14.0273 47.4375 13.959 47.4375 20.3301V26.4004L47.7793 26.7285L48.1074 27.0703H54.1777C59.9609 27.0703 60.2754 27.0566 60.5762 26.8105L60.9043 26.5508L60.9453 20.4395L60.9863 14.3418L60.5762 13.9453L60.1797 13.5352H54.2461C50.2266 13.5488 48.2441 13.5898 48.0527 13.6992ZM58.6484 20.3711V24.8828L54.1777 24.8555L49.6934 24.8145L49.6523 20.3301L49.625 15.8594H54.1367H58.6484V20.3711Z" fill="#271291"/>
<path d="M56.2871 16.9121C56.1094 17.1992 55.5078 18.1836 54.9609 19.1133L53.9629 20.7949L53.334 20.1797L52.6914 19.5508L51.9121 20.3437L51.1328 21.1367L52.4043 22.3945C53.5254 23.4883 53.7578 23.6523 54.168 23.6523C54.4277 23.6523 54.7285 23.5703 54.8516 23.4746C55.1387 23.2559 58.5156 17.623 58.4473 17.5C58.3789 17.3906 56.7656 16.4062 56.6563 16.4062C56.6289 16.4062 56.4648 16.6387 56.2871 16.9121Z" fill="#271291"/>
<path d="M47.7793 29.7363L47.4375 30.0645V36.1211C47.4512 40.6602 47.4922 42.2324 47.6152 42.3965C48.0117 42.916 48.2441 42.9297 54.2734 42.9297H60.1797L60.5762 42.5332L60.9727 42.1367V36.0938V30.0645L60.6309 29.7363L60.3027 29.3945H54.2051H48.1074L47.7793 29.7363ZM58.6484 36.0938V40.6055H54.1367H49.625V36.0938V31.582H54.1367H58.6484V36.0938Z" fill="#271291"/>
<path d="M55.6289 33.8106C55.082 34.7266 54.4941 35.7109 54.3027 36.0117L53.9746 36.5313L53.373 35.9434L52.7715 35.3555L51.9512 36.1758L51.1172 36.9961L52.334 38.1719C53.6328 39.4434 54.0977 39.6758 54.6719 39.3613C54.9043 39.2383 55.6699 38.1035 56.7637 36.2988C57.7207 34.7129 58.5 33.4004 58.5137 33.3594C58.5137 33.3184 58.0898 33.0313 57.5703 32.7168L56.627 32.1563L55.6289 33.8106Z" fill="#271291"/>
</g>
<defs>
<clipPath id="clip0_218_714">
<rect width="70" height="70" fill="white"/>
</clipPath>
</defs>
</svg>
